<mxfile host="app.diagrams.net" modified="2023-01-08T14:54:08.751Z" agent="5.0 (Windows NT 10.0; Win64; x64) AppleWebKit/537.36 (KHTML, like Gecko) Chrome/108.0.0.0 Safari/537.36" version="20.8.3" etag="gNZwC9wqKh7JPfbkoST8" type="github">
  <diagram id="Db9RHmdtPAt26-Z1-oMQ" name="serverless-web-app">
    <mxGraphModel dx="866" dy="1065" grid="1" gridSize="10" guides="1" tooltips="1" connect="1" arrows="1" fold="1" page="1" pageScale="1" pageWidth="1169" pageHeight="827" math="0" shadow="0">
      <root>
        <mxCell id="0" />
        <mxCell id="1" parent="0" />
        <mxCell id="JCDnAdbY1yPkoRfCkcH7-275" value="" style="rounded=0;whiteSpace=wrap;html=1;strokeColor=#2c1111;fontSize=12;" vertex="1" parent="1">
          <mxGeometry x="1449" y="350" width="551" height="240" as="geometry" />
        </mxCell>
        <mxCell id="JCDnAdbY1yPkoRfCkcH7-211" value="" style="rounded=0;whiteSpace=wrap;html=1;strokeColor=#2c1111;fontSize=12;" vertex="1" parent="1">
          <mxGeometry x="1449" y="90" width="551" height="240" as="geometry" />
        </mxCell>
        <mxCell id="JCDnAdbY1yPkoRfCkcH7-185" style="edgeStyle=orthogonalEdgeStyle;rounded=0;orthogonalLoop=1;jettySize=auto;html=1;endArrow=none;endFill=0;startArrow=classic;startFill=1;" edge="1" parent="1" source="JCDnAdbY1yPkoRfCkcH7-133" target="JCDnAdbY1yPkoRfCkcH7-186">
          <mxGeometry relative="1" as="geometry">
            <mxPoint x="2111" y="489.9999999999998" as="targetPoint" />
            <Array as="points" />
          </mxGeometry>
        </mxCell>
        <UserObject label="&lt;div style=&quot;font-size: 1px&quot;&gt;&lt;p style=&quot;align:left;margin-left:0;margin-right:0;margin-top:0px;margin-bottom:0px;text-indent:0;valign:top;direction:ltr;&quot;&gt;&lt;/p&gt;&lt;/div&gt;" tags="Background" id="JCDnAdbY1yPkoRfCkcH7-133">
          <mxCell style="verticalAlign=top;align=left;vsdxID=1146;fillColor=none;gradientColor=none;shape=stencil(nZBLDoAgDERP0z3SIyjew0SURgSD+Lu9kMZoXLhwN9O+tukAlrNpJg1SzDH4QW/URgNYgZTkjA4UkwJUgGXng+6DX1zLfmoymdXo17xh5zmRJ6Q42BWCfc2oJfdAr+Yv+AP9Cb7OJ3H/2JG1HNGz/84klThPVCc=);strokeColor=#2c1111;points=[];labelBackgroundColor=none;rounded=0;html=1;whiteSpace=wrap;" vertex="1" parent="1">
            <mxGeometry x="2087.6" y="63.5" width="220" height="293" as="geometry" />
          </mxCell>
        </UserObject>
        <UserObject label="&lt;div style=&quot;font-size: 1px&quot;&gt;&lt;p style=&quot;align:left;margin-left:0;margin-right:0;margin-top:0px;margin-bottom:0px;text-indent:0;valign:top;direction:ltr;&quot;&gt;&lt;font style=&quot;font-size:16.93px;font-family:Segoe UI;color:#000000;direction:ltr;letter-spacing:0px;line-height:120%;opacity:1&quot;&gt;&lt;br&gt;&lt;/font&gt;&lt;/p&gt;&lt;/div&gt;" tags="Background" id="JCDnAdbY1yPkoRfCkcH7-11">
          <mxCell style="verticalAlign=top;align=left;vsdxID=1144;fillColor=none;gradientColor=none;shape=stencil(nZBLDoAgDERP0z3SIyjew0SURgSD+Lu9kMZoXLhwN9O+tukAlrNpJg1SzDH4QW/URgNYgZTkjA4UkwJUgGXng+6DX1zLfmoymdXo17xh5zmRJ6Q42BWCfc2oJfdAr+Yv+AP9Cb7OJ3H/2JG1HNGz/84klThPVCc=);strokeColor=#000000;points=[];labelBackgroundColor=none;rounded=0;html=1;whiteSpace=wrap;" vertex="1" parent="1">
            <mxGeometry x="1474" y="135.5" width="501" height="140" as="geometry" />
          </mxCell>
        </UserObject>
        <UserObject label="" tags="Background" id="JCDnAdbY1yPkoRfCkcH7-21">
          <mxCell style="vsdxID=1008;fillColor=none;gradientColor=none;strokeColor=none;spacingTop=-3;spacingBottom=-3;spacingLeft=-3;spacingRight=-3;points=[[0.5,1.31,0],[0.5,0,0],[0,0.5,0],[1,0.5,0]];labelBackgroundColor=none;rounded=0;html=1;whiteSpace=wrap;" vertex="1" parent="1">
            <mxGeometry x="1710.5" y="190" width="48" height="48" as="geometry" />
          </mxCell>
        </UserObject>
        <mxCell id="JCDnAdbY1yPkoRfCkcH7-22" style="vsdxID=1009;fillColor=#50e6ff;gradientColor=none;shape=stencil(vVPLbsMgEPwajl4Bix04p+l/oAbbqNRYmDbO3xdKH6atpfaS2zKzM6vRsgSPy6hnQzhdYvCP5mLPcSR4Rzi302iCjakieCJ47H0wQ/DP07m8Z507c/XkX7LDWnRKQotZxem1IFKCEG/IfRE4O20E8gBKVYJk0bVbgQ4PiQ3vAgGSlf5w/UC6MuDTkwHfsaRro1e7NMFHHa2fCk8L53QYTJPGNb3TQ0UtF2PmDcz2E3GQ9XSOgGI/kIKuzqOAt1WeH46MAhe3ysMQBKvG0/3mvP96nWkZ8vDPdWIV/xfP9KfwVvn/8KVT8XUQvXWu3NOW/35ACSrHh6dX);strokeColor=none;spacingTop=-3;spacingBottom=-3;spacingLeft=-3;spacingRight=-3;points=[[0.5,1.31,0],[0.5,0,0],[0,0.5,0],[1,0.5,0]];labelBackgroundColor=none;rounded=0;html=1;whiteSpace=wrap;" vertex="1" parent="JCDnAdbY1yPkoRfCkcH7-21">
          <mxGeometry y="20" width="15" height="17" as="geometry" />
        </mxCell>
        <mxCell id="JCDnAdbY1yPkoRfCkcH7-23" style="vsdxID=1010;fillColor=#1490df;gradientColor=none;shape=stencil(vVPLbsMgEPwajl4BG/M4p+l/oAbbqNRYmDbJ3xcXVzVRkx4q5bbMzC7sskNwPw9msoTTOcXwak/umAaCT4RzNw42upQjggeC+y5E28fwPh7LeTKLconewsdS4VzylASplyxOLwVhgPILeC5678aNXitoZa1nINQ2wcSXzMY1YQeqsDRevpFVf6emAmSrpjFnNzcxJJNcGAtPC+dN7G2T72s6b/qKmk/WThuY3W6JIYi2vp7S23IOSlRqpe8OQINs6wFowLYaQC5ZP0AK2IlH9a8oaLxeAfGvH81bpX6v+Ih+/lzpHPz4oXPeFztt+Wv/ZKh4Dw+f);strokeColor=none;spacingTop=-3;spacingBottom=-3;spacingLeft=-3;spacingRight=-3;points=[[0.5,1.31,0],[0.5,0,0],[0,0.5,0],[1,0.5,0]];labelBackgroundColor=none;rounded=0;html=1;whiteSpace=wrap;" vertex="1" parent="JCDnAdbY1yPkoRfCkcH7-21">
          <mxGeometry y="9" width="14" height="17" as="geometry" />
        </mxCell>
        <mxCell id="JCDnAdbY1yPkoRfCkcH7-24" style="vsdxID=1011;fillColor=#50e6ff;gradientColor=none;shape=stencil(vVPLbsMgEPwajl7xMsHnNPkP1GAblRoLkyb5+0JxFIjkXCrltjs7M8tILGL7ZVSzRhQvwbsvfTGnMCL2gSg106i9CbFC7IDYvndeD96dp1PuZ5WYqfp2P8nhmnVSgEgiim8ZwH/dMXOtmQputwPSVWSCgfJSoPxnnPq7ANqV7293ZOWXnrLypAwYWzmNupql8S6oYNxUPhBb5QfdxH1Nb9VQjZaL1nMBk+1IRMKurdZ3EkS7HYmDJHUkDqKORAh0YsPzHZGAV8ulBC7+F+jZMQak74qTPmi9HgNmr/nbHzoWj0vojbX5kMr58+VEKF8dO/wC);strokeColor=none;spacingTop=-3;spacingBottom=-3;spacingLeft=-3;spacingRight=-3;points=[[0.5,1.31,0],[0.5,0,0],[0,0.5,0],[1,0.5,0]];labelBackgroundColor=none;rounded=0;html=1;whiteSpace=wrap;" vertex="1" parent="JCDnAdbY1yPkoRfCkcH7-21">
          <mxGeometry x="33" y="20" width="15" height="17" as="geometry" />
        </mxCell>
        <mxCell id="JCDnAdbY1yPkoRfCkcH7-25" style="vsdxID=1012;fillColor=#1490df;gradientColor=none;shape=stencil(vVPLcsMgDPwajtbwcDGc0/Q/mAbbTF3jwaRx/r5QNa1xx5npJTexWmm1I0TEYe7NZAmncwz+zV7cKfZEPBPO3djb4GKKiDgScWh9sF3w5/GE78lkZo7e/UfusGCdboDlIk6vCCgNUn0hL8gf3LjiKwmCFwWM0n06g3rDVsD1mm/Ca8qGb34NCsVpuN4Qifz9luw2MV0qs7i5Cj6a6PyIeRyPDiZ0tkpyVTuYrkjNF2unFczuGOKwUQfR/NOPKv3ozQZ+Oj7ATl6/LNQbCU/7fjQ0delHg6gLP39b5i+lH+no/odOwe81tG4Y8JjW+e31JAgvTxw/AQ==);strokeColor=none;spacingTop=-3;spacingBottom=-3;spacingLeft=-3;spacingRight=-3;points=[[0.5,1.31,0],[0.5,0,0],[0,0.5,0],[1,0.5,0]];labelBackgroundColor=none;rounded=0;html=1;whiteSpace=wrap;" vertex="1" parent="JCDnAdbY1yPkoRfCkcH7-21">
          <mxGeometry x="33" y="9" width="14" height="17" as="geometry" />
        </mxCell>
        <mxCell id="JCDnAdbY1yPkoRfCkcH7-26" style="vsdxID=1013;fillColor=#000000;gradientColor=none;shape=stencil(vVXLloIwDP0aluS0TQvt2tH/6FFUzjDgKTjq30+ZokPKiCvZlZub5nFTkuCqPdpTkQjWdq75LC7lrjsm+JEIUdbHwpWdPyW4TnC1b1xxcM253oXvk+2Z/emr+e5vuAY/KYDL3kuwW0CUBJX/IpvgUJX1yEFAb5rjW7f1Vvfgcwx8Nzhw4DogA4XR+xBkNthTey3b1DWd7cqmJuzKukOR+ljpvrIHYmovRXEawfx5dhy0irNjgmYHUb34vuRoq6UGpkhsBpmaazXyuBhBW60YcFoOW6oakwPiP6GfTc1EF25IKcaAysh9nsIXHBw9GRwZJ8jzKMF8ueERYGh0j2R6Vp9czztMNMpeaMQZfdsSQb+vAbFCZpIeo6/BKyTpa5D+Z6aWkkgD0udtMjA45m/PLvyseSDkcHfgD9HEfebFvUo5IDcRqXDFoUrAQafbgBgFeTY7TK+2hD/87Zh9WVVhRY3t8U7yUNhnuP4B);strokeColor=none;spacingTop=-3;spacingBottom=-3;spacingLeft=-3;spacingRight=-3;points=[[0.5,1.31,0],[0.5,0,0],[0,0.5,0],[1,0.5,0]];labelBackgroundColor=none;rounded=0;html=1;whiteSpace=wrap;" vertex="1" parent="JCDnAdbY1yPkoRfCkcH7-21">
          <mxGeometry x="12" width="24" height="48" as="geometry" />
        </mxCell>
        <mxCell id="JCDnAdbY1yPkoRfCkcH7-27" value="&lt;div style=&quot;font-size: 1px&quot;&gt;&lt;font style=&quot;font-size:15.52px;font-family:Segoe UI;color:#000000;direction:ltr;letter-spacing:0px;line-height:120%;opacity:1&quot;&gt;Function Apps&lt;br/&gt;&lt;/font&gt;&lt;/div&gt;" style="text;vsdxID=1008;fillColor=none;gradientColor=none;strokeColor=none;spacingTop=-3;spacingBottom=-3;spacingLeft=-3;spacingRight=-3;points=[[0.5,1.31,0],[0.5,0,0],[0,0.5,0],[1,0.5,0]];labelBackgroundColor=none;rounded=0;html=1;whiteSpace=wrap;verticalAlign=middle;align=center;;html=1;" vertex="1" parent="JCDnAdbY1yPkoRfCkcH7-21">
          <mxGeometry x="-26.42" y="48" width="101.6" height="18.63" as="geometry" />
        </mxCell>
        <UserObject label="" tags="Background" id="JCDnAdbY1yPkoRfCkcH7-34">
          <mxCell style="vsdxID=1027;fillColor=none;gradientColor=none;strokeColor=none;spacingTop=-3;spacingBottom=-3;spacingLeft=-3;spacingRight=-3;points=[[0.5,1.31,0],[0.5,0,0],[0,0.5,0],[1,0.5,0]];labelBackgroundColor=none;rounded=0;html=1;whiteSpace=wrap;" vertex="1" parent="1">
            <mxGeometry x="1880" y="186" width="48" height="48" as="geometry" />
          </mxCell>
        </UserObject>
        <mxCell id="JCDnAdbY1yPkoRfCkcH7-35" style="vsdxID=1028;fillColor=none;gradientColor=none;strokeColor=none;spacingTop=-3;spacingBottom=-3;spacingLeft=-3;spacingRight=-3;points=[[0.5,1.31,0],[0.5,0,0],[0,0.5,0],[1,0.5,0]];labelBackgroundColor=none;rounded=0;html=1;whiteSpace=wrap;" vertex="1" parent="JCDnAdbY1yPkoRfCkcH7-34">
          <mxGeometry width="48" height="48" as="geometry" />
        </mxCell>
        <mxCell id="JCDnAdbY1yPkoRfCkcH7-36" style="vsdxID=1029;fillColor=#50e6ff;gradientColor=none;shape=stencil(lVfLctswDPwaXTkUqQd1TtP/yDROralrZxyntf6+VCUT4MKE4puiYL0gd7GkKv/0sX9531XOflzOp1+7v+PrZV/5b5Vz43G/O4+X+FT558o/vZ3Ou5/n0+fxdfn7/WWunJ9+n/7Mv3BdcLU3QzejnJ2WN643g/v/5vsC+PF5XhB1gvhhhdSIsVe3Vrn0anKpqlm5rl5Wra9cZ8Kg8jNMjRiVn1Xp/OFRfms8rL83Xc5et8bWwG5sk5PXrcZsTdPnxGt9YrWJI9E2pm1yWguc0QK9SgucpD/RpsbY9vvN1aailfkwHrk3CVCox05p06VWijESTLFFaubrrqBdSdxx60LObYE5itHmzHZjGFN9LhfjHLpNzu4RTrJUibMFQjn4NA1sh1VxOaQGCGOWE0BFKrkub4SAvOSaW77EFPByDGDoWQpNwm4FdpacirNZCk/ScIm/T5M5CdOV+RNGGo/z4/pZlc7fPcofTegFv4ghJO8M7r2+cCZWIXJ5SZlVSK7TMidJ9yte5wdR2ezbRxxEyryzsGweAtJ/SrSI+wWE/vaFJL/BhGCCzwC1VeMrAjweoxYCLEROEHUYTAc5wqt8qsqlzVfHEQWAaDdCQt7u4ClVbg1708Psh9hwnzfcB9NAw3OVOnsRY8GLhKHrTkzDVvA7uG7xKo/ylfgZhikYgJ91KTXU1p+qSvsfdxbXT5Jww8DJzoCKYaglRX+IoHmxDfAzUzNJ4NTls+KxqsRPMk61/GUnLDFJSa7CbA+sn2GYJBBH80jc0R/OvnnY+uox/dncT1KSFIe3BJmYIHjnsXDz3vQ+IWgz4NDj7ZUH/97CU9XdpOKIAkDslBdX4BmDk0LdTVI8xSnU0dedwkObxRJMKsV/eU7gUIFY3zqD4gN9gb+Nh8PyAc//j1/s8dXyte+f/wE=);strokeColor=none;spacingTop=-3;spacingBottom=-3;spacingLeft=-3;spacingRight=-3;points=[[0.5,1.31,0],[0.5,0,0],[0,0.5,0],[1,0.5,0]];labelBackgroundColor=none;rounded=0;html=1;whiteSpace=wrap;" vertex="1" parent="JCDnAdbY1yPkoRfCkcH7-35">
          <mxGeometry x="1" width="46" height="48" as="geometry" />
        </mxCell>
        <mxCell id="JCDnAdbY1yPkoRfCkcH7-37" style="vsdxID=1030;fillColor=#000000;gradientColor=none;shape=stencil(jVLbEoIgFPwaXs8ARwifu/xHU5ZMpg1a2d8nHbxh0/R2XHbdhbMM13W+v2VM8rpx1SV72mOTM9wwKW2ZZ8423cRwy3B9qlx2dtW9PNL3be+ZfrpWD/+HlnRpAsJ4leQvQjCFRH2QHQkOd0cKQQTBeRAEQCOYhKBWEmQSSHVg9ZABVIGFQchB9Swc86x+uaPuCYP/EKh3FwJ07N4FitwVGJyb+zw/rx5d3GfRkbUCrubWPk1kPb7x4D2kCdaFLSdrmgq+8+OofilqHjd6pclCXsv0LS4Lskj/NesfleqGsZAnWxTU5+l5XOAOovLj9g0=);strokeColor=none;spacingTop=-3;spacingBottom=-3;spacingLeft=-3;spacingRight=-3;points=[[0.5,1.31,0],[0.5,0,0],[0,0.5,0],[1,0.5,0]];labelBackgroundColor=none;rounded=0;html=1;whiteSpace=wrap;" vertex="1" parent="JCDnAdbY1yPkoRfCkcH7-35">
          <mxGeometry x="5" y="4" width="37" height="38" as="geometry" />
        </mxCell>
        <mxCell id="JCDnAdbY1yPkoRfCkcH7-38" style="vsdxID=1031;fillColor=none;gradientColor=none;strokeColor=none;spacingTop=-3;spacingBottom=-3;spacingLeft=-3;spacingRight=-3;points=[[0.5,1.31,0],[0.5,0,0],[0,0.5,0],[1,0.5,0]];labelBackgroundColor=none;rounded=0;html=1;whiteSpace=wrap;" vertex="1" parent="JCDnAdbY1yPkoRfCkcH7-35">
          <mxGeometry x="6" y="11" width="34" height="24" as="geometry" />
        </mxCell>
        <mxCell id="JCDnAdbY1yPkoRfCkcH7-39" style="vsdxID=1032;fillColor=#f2f2f2;gradientColor=none;shape=stencil(lZbddtswCMefxrccAfq87rr36FnTJWdZ0pOmW/v2w7MlGbw6651DQD8k+CMNfPeyf3jeDeRerpfzj93vw+N1P/CXgehw2u8uh6t8DXw/8N3T+bL7fjm/nh6n388Po+f49fP8a1zhbYqjAC6MUeTeJ0spkPxfy9cp4NvrZYrAyYEJGOeQ2YTOTYY3mn0ycF12NhWExLMXN6/gZ6/ZlBHG3xv03Jap9OQgkeGzhkeEEjVcdp4MXLxi3oJLTCAN7zENLl7tgGjt1fmufJ6PvOJjWPHRG76D9fbRbt+BSzfwLmu8LxBQ47EAksZ7BEeajwgZNX/0Uvzj4bRoVSmh7tSVv83XmaOSxi06Vw+x6FQzQzGZekhRZ7rSiM70P0T16QAt2ya496YK3OycHtB15Gzhmk9VUYJsJCt5FdM24hU3y1AWw6B3EnlNLx686VrkunLj5wzRFMPfmBg51Yq2vUMykhUfNCODwZu95whs9w64ufUk6XoNN5NShlc0aonggybHDJ40GROEsoWWmCbD2gSiTCOAKIdj8ORWVRevbGYVEfhtfgJOpuoSY3ouRsiWT61dGj8C5RWfN6+pIJdLXvHZdF3oplZ4BDbDculVu47q4PuIv4ipJmwyb/zYlU8tcdv148Vg6i+mwJvnz03gywFojl9ElzRenCw9QEmGTnVw/nOeZQKqKv0gYKXS3ETZjqvftoshkcxx+QSmW/sc6+8MPR3NxXJrmMpHfz89HY7H6fm1/N++t8Q0vdX4/g8=);strokeColor=none;spacingTop=-3;spacingBottom=-3;spacingLeft=-3;spacingRight=-3;points=[[0.5,1.31,0],[0.5,0,0],[0,0.5,0],[1,0.5,0]];labelBackgroundColor=none;rounded=0;html=1;whiteSpace=wrap;" vertex="1" parent="JCDnAdbY1yPkoRfCkcH7-38">
          <mxGeometry width="34" height="24" as="geometry" />
        </mxCell>
        <mxCell id="JCDnAdbY1yPkoRfCkcH7-40" style="vsdxID=1033;fillColor=#50e6ff;gradientColor=none;shape=stencil(lZbbUttADIafxrcaabXHawrvwUBoMk0TJoQW3h6lttfZ35NleudstP4s6ddh0Lu37ePrZnD8dj4df23+7p7P20F/DM7tDtvNaXe2p0HvB717OZ42P0/H98Pz+Pv18WJ5efp9/HN5w8d4r0Ty/nLL8ed4IkJB/508jBee3k/jDZmuOMp5ujIdKbnxCn+48ST7+S38OR3xZKHjz2SvKZPFdOTId8kxL1cWsmvJ0VMJLdmTlxYehTi38EgsXbgnCS08kS8AT8SxhRcKHuCFUmjh4ohLj56ERFq6JSqmFm8x9anFm5Wklp+UwHfhObC38IFyAjxX5VR8ogLem5WD2GcmRveZpMs3OTlwv5AG0Fwmv3I+AL1YPCLQA5W+4pXUt3THVCD39mbQnX1jhNznSOJbvJocuspLmSLIPjiKGaRnQgN+VAq55YeyBFKrtHKX78tKe5bDCMlXS36LN1+Ta/FWZQJFn8392MNLInWQe5N+SzcFlQz4+uIl+rOnC91/E/xYHa1Vb1kFel6VXQLZidWctujIc7XcctwTNBzLXoJGa0YRas6sBOJuEveuxYc0l/QtfFh62cw3QUHLMasqDlf1UsfBwg9Qdb726Vt8XTVcn6sUrhMPVR+ktqEl8QWiH6yjuS6eCojexk+BxDNIjleS05Xjpkvu5t30DuVuU7p2UVejE6HchWHE1s+be1/+JuQ2gRVG++UOVLrN0wRos4rQacwNWeGl67h1QhBcMZGA4Cy7AQRvjR/bfDRPIO5Wt1PrvRV3XXmfmBQ3G63VVQWXl0m8jBleCz738BYexu1GVm22JrlmvVCGIXO91M0FiFvdfnf4vzXQHpYl8mW334876PX/uHTa0biw6v0X);strokeColor=none;spacingTop=-3;spacingBottom=-3;spacingLeft=-3;spacingRight=-3;points=[[0.5,1.31,0],[0.5,0,0],[0,0.5,0],[1,0.5,0]];labelBackgroundColor=none;rounded=0;html=1;whiteSpace=wrap;" vertex="1" parent="JCDnAdbY1yPkoRfCkcH7-35">
          <mxGeometry y="5" width="48" height="36" as="geometry" />
        </mxCell>
        <mxCell id="JCDnAdbY1yPkoRfCkcH7-41" value="&lt;div style=&quot;font-size: 1px&quot;&gt;&lt;font style=&quot;font-size:15.52px;font-family:Segoe UI;color:#000000;direction:ltr;letter-spacing:0px;line-height:120%;opacity:1&quot;&gt;Azure &lt;br/&gt;Cosmos DB&lt;br/&gt;&lt;/font&gt;&lt;/div&gt;" style="text;vsdxID=1027;fillColor=none;gradientColor=none;strokeColor=none;spacingTop=-3;spacingBottom=-3;spacingLeft=-3;spacingRight=-3;points=[[0.5,1.31,0],[0.5,0,0],[0,0.5,0],[1,0.5,0]];labelBackgroundColor=none;rounded=0;html=1;whiteSpace=wrap;verticalAlign=middle;align=center;;html=1;" vertex="1" parent="JCDnAdbY1yPkoRfCkcH7-34">
          <mxGeometry x="-26.42" y="48" width="101.6" height="37.26" as="geometry" />
        </mxCell>
        <UserObject label="" tags="symbols" id="JCDnAdbY1yPkoRfCkcH7-71">
          <mxCell style="vsdxID=1097;fillColor=none;gradientColor=none;strokeColor=none;spacingTop=-3;spacingBottom=-3;spacingLeft=-3;spacingRight=-3;points=[[0.5,-0.12,0],[0.5,1.02,0],[1.05,0.5,0],[-0.1,0.5,0]];labelBackgroundColor=none;rounded=0;html=1;whiteSpace=wrap;" vertex="1" parent="1">
            <mxGeometry x="1210" y="128" width="67" height="58" as="geometry" />
          </mxCell>
        </UserObject>
        <mxCell id="JCDnAdbY1yPkoRfCkcH7-72" style="vsdxID=1098;fillColor=none;gradientColor=none;strokeColor=none;spacingTop=-3;spacingBottom=-3;spacingLeft=-3;spacingRight=-3;points=[[0.5,-0.12,0],[0.5,1.02,0],[1.05,0.5,0],[-0.1,0.5,0]];labelBackgroundColor=none;rounded=0;html=1;whiteSpace=wrap;" vertex="1" parent="JCDnAdbY1yPkoRfCkcH7-71">
          <mxGeometry width="67" height="58" as="geometry" />
        </mxCell>
        <mxCell id="JCDnAdbY1yPkoRfCkcH7-73" style="vsdxID=1099;fillColor=none;gradientColor=none;strokeColor=none;spacingTop=-3;spacingBottom=-3;spacingLeft=-3;spacingRight=-3;points=[[0.5,-0.12,0],[0.5,1.02,0],[1.05,0.5,0],[-0.1,0.5,0]];labelBackgroundColor=none;rounded=0;html=1;whiteSpace=wrap;" vertex="1" parent="JCDnAdbY1yPkoRfCkcH7-72">
          <mxGeometry width="63" height="49" as="geometry" />
        </mxCell>
        <mxCell id="JCDnAdbY1yPkoRfCkcH7-74" style="vsdxID=1100;fillColor=#FFFFFF;gradientColor=none;shape=stencil(lZPRbsIwDEW/Jq+RE7elfpwY/AeCskbrWhTKBn9PiwNJurTT8lDFznV1rhMLXJ/r3akSGs697T6rH3Poa4HvQmvT1pU1/bATuBG4Pna2+rDdpT1wfNqNynH31X2Pf7hyHUmgsUjDjRMK4BFvWb2/WJYrPs4k6JxWmfsCZK5axeVw1Zxw4c2FlMkSg+XEGItdWJbSKR408DYANaYN8CFmV7JYLdFDDJtLVfhFVMbos15ja0/4oJWRnTl2Akkq4l/sPOXSs+gidjJp+usWnqhzTnGqx2QnE/S+JHlXv/l9gVp8CnrJ7tTfq/dBLzHxkFPt/+Pl/089bPyIHU3T8ISG59ORHFI8zri5Aw==);strokeColor=none;spacingTop=-3;spacingBottom=-3;spacingLeft=-3;spacingRight=-3;points=[[0.5,-0.12,0],[0.5,1.02,0],[1.05,0.5,0],[-0.1,0.5,0]];labelBackgroundColor=none;rounded=0;html=1;whiteSpace=wrap;" vertex="1" parent="JCDnAdbY1yPkoRfCkcH7-73">
          <mxGeometry width="63" height="49" as="geometry" />
        </mxCell>
        <mxCell id="JCDnAdbY1yPkoRfCkcH7-75" style="vsdxID=1101;fillColor=#5ea0ef;gradientColor=#0078d4;shape=stencil(pVbbboMwDP0aXq0kzoU8Tl33H9VKV7SunWi7tX8/aLjECZChRjzE5Jxw7NgmGa7O+813kQl2vlSnz+K33F72Gb5mQpTHfVGVl3qW4TrD1e5UFR/V6XrcOvt70yCb2dfpp9nh5nhWApqGJdjdvWEP682BD+XRAyvQOI19v1ZuZ+4WBShUgnOhjWZKt0TuM9lNEPPemgjoDcZ4K/GGFN6aBiQflLCXSDgjqm2tzM4pZ1Sr1aC9Yaj0cTfbRc4YVe6FEClkSnt8QoQRq7d1OLQ0eW5QoJXUl0FQqLCTPOEthnAcDeaIAwNl7LRi/QOeJ7JBzDlMM6vT70cToyT+V/hJ8Gk15QicYBW0GTFaT7kBFE/hOQfOZwihnqX4hJ4UnEbHSNBqwfYmh9w8hU+4GwtaTEgoSuKDbqzAUA+SvepB6dNfsu5AumUEw3B4gspRMHQuRGuDViBB+iNZSg/CbDlFv5CAEjsooa9s1FoE7o0rFB21/mDfnHng3HhksKcGfTrd6DxOm005KDGdHfFpLyZE6bGYkErAREVYDmpRCcWE+RKKFS3FpwSlCfVkuD/tysPBXb/89fC+Vb9ydzVc/wE=);strokeColor=none;spacingTop=-3;spacingBottom=-3;spacingLeft=-3;spacingRight=-3;points=[[0.5,-0.12,0],[0.5,1.02,0],[1.05,0.5,0],[-0.1,0.5,0]];labelBackgroundColor=none;rounded=0;html=1;whiteSpace=wrap;" vertex="1" parent="JCDnAdbY1yPkoRfCkcH7-73">
          <mxGeometry x="2" y="2" width="58" height="44" as="geometry" />
        </mxCell>
        <mxCell id="JCDnAdbY1yPkoRfCkcH7-76" style="vsdxID=1102;fillColor=none;gradientColor=none;strokeColor=none;spacingTop=-3;spacingBottom=-3;spacingLeft=-3;spacingRight=-3;points=[[0.5,-0.12,0],[0.5,1.02,0],[1.05,0.5,0],[-0.1,0.5,0]];labelBackgroundColor=none;rounded=0;html=1;whiteSpace=wrap;" vertex="1" parent="JCDnAdbY1yPkoRfCkcH7-72">
          <mxGeometry x="30" y="22" width="36" height="36" as="geometry" />
        </mxCell>
        <mxCell id="JCDnAdbY1yPkoRfCkcH7-77" style="vsdxID=1103;fillColor=#FFFFFF;gradientColor=none;shape=stencil(vVHLDsIgEPwajiQI6RfU+h8bu22JCGRB2/69kG1iazx58DazM/vIjjBtmiCi0CplCjecbZ8nYc5Ca+snJJsLEqYTph0C4Ujh4XvmEaqzont41gkL96naodXKrGF6YSfQtUi0OXXDVlqPfJNP6usotUhYbJIUMmQb/GGrAxpRljVycDBuc1hKM2LclX8/7H9nFfB+82Cd45T2+mcspcSRmu4F);strokeColor=none;spacingTop=-3;spacingBottom=-3;spacingLeft=-3;spacingRight=-3;points=[[0.5,-0.12,0],[0.5,1.02,0],[1.05,0.5,0],[-0.1,0.5,0]];labelBackgroundColor=none;rounded=0;html=1;whiteSpace=wrap;" vertex="1" parent="JCDnAdbY1yPkoRfCkcH7-76">
          <mxGeometry width="36" height="36" as="geometry" />
        </mxCell>
        <mxCell id="JCDnAdbY1yPkoRfCkcH7-78" style="vsdxID=1104;fillColor=none;gradientColor=none;strokeColor=none;spacingTop=-3;spacingBottom=-3;spacingLeft=-3;spacingRight=-3;points=[[0.5,-0.12,0],[0.5,1.02,0],[1.05,0.5,0],[-0.1,0.5,0]];labelBackgroundColor=none;rounded=0;html=1;whiteSpace=wrap;" vertex="1" parent="JCDnAdbY1yPkoRfCkcH7-76">
          <mxGeometry x="2" y="2" width="31" height="31" as="geometry" />
        </mxCell>
        <mxCell id="JCDnAdbY1yPkoRfCkcH7-79" style="vsdxID=1105;fillColor=#5ea0ef;gradientColor=#0078d4;shape=stencil(hZLdTsMwDIWfJreW4/z6Eo3tPSbW0YqyTl0H3dvTzilLCoJcWHZst9+JjjKbS70/V4rwMvTdW/XZHIZamWdF1Jzqqm+GKVNmq8zm2PXVa99dTwepz/t5cs7eu4/5C6PsRQJL8xbhTW7wXu1k+OXay7SWpgugLUUXJKbF1AxArP1ymKO0R5I2RVj25sjs03rqaw3WRbMcxMQ1mhwMb6nUBO6Bik8TbducMmlYyNL4pzDjQHsbjZOIaEttHIEzOFNK8wxkMHiWWOpiCyF7F1+qWri+dUUP1q+ErWk5QETSHO4xlqjOQva3UJIyQQZKqEtWciVdbg/zwx+/PPo/fpqShxOPTduKkfP+2rnTlbjebL8A);strokeColor=none;spacingTop=-3;spacingBottom=-3;spacingLeft=-3;spacingRight=-3;points=[[0.5,-0.12,0],[0.5,1.02,0],[1.05,0.5,0],[-0.1,0.5,0]];labelBackgroundColor=none;rounded=0;html=1;whiteSpace=wrap;" vertex="1" parent="JCDnAdbY1yPkoRfCkcH7-78">
          <mxGeometry x="16" y="7" width="7" height="7" as="geometry" />
        </mxCell>
        <mxCell id="JCDnAdbY1yPkoRfCkcH7-80" style="vsdxID=1106;fillColor=#5ea0ef;gradientColor=#0078d4;shape=stencil(jZLBDoIwDIafZlfStTrhaBDfwwjKIoIZoPL2gh0Zm5rYU/+1Xb+tFZS25eFWCIS2M82leOi8KwXtBKKuy8LobvQEZYLSU2OKs2n6Omd9O0yZk3dt7tMNT66TAFMNwsCa1Z5Tj73hXMlBRRE5wyRZ21obl4r1E1nTfLfVK4xgadKm07I3DFZu0LHA9guODNrHGLSXkXK28VkSnyVAWcXjS32c+ad+8yi/H0DApwK+OPgejH0INxv6GM4boNL1v6McHbcCJ11VvEHLeLgy4xGvG2Uv);strokeColor=none;spacingTop=-3;spacingBottom=-3;spacingLeft=-3;spacingRight=-3;points=[[0.5,-0.12,0],[0.5,1.02,0],[1.05,0.5,0],[-0.1,0.5,0]];labelBackgroundColor=none;rounded=0;html=1;whiteSpace=wrap;" vertex="1" parent="JCDnAdbY1yPkoRfCkcH7-78">
          <mxGeometry x="5" width="4" height="4" as="geometry" />
        </mxCell>
        <mxCell id="JCDnAdbY1yPkoRfCkcH7-81" style="vsdxID=1107;fillColor=#5ea0ef;gradientColor=#0078d4;shape=stencil(hZLRboMwDEW/Jq+WYyeQPE5d+x/VSgcagyqlW/f3I3UYJNo0npzre8PBWPHu2h4vjSK8TmF8az6709QqflZE3dA2oZvmSvFe8e48huY1jLfhJOfLMTpj9T5+xBvuksOYIPySk6uA7EM5iPnlFsStxcAIzhFb8kbruk7h1PQMtaTxTiJVBmq0P5HkT03vVj+LpHEBKoQHDz7NSH03bPjXwPZ7/qD3FlYW7XJ6zMk9QWUWds7BMYd2Dsjk2CV0SWINxAEub0Cds+gChhjSyGOiymkMgcXNo3O6YqDFL/5lpP+sxFysy3Tu+l52cdsvl2+WZHF5/w0=);strokeColor=none;spacingTop=-3;spacingBottom=-3;spacingLeft=-3;spacingRight=-3;points=[[0.5,-0.12,0],[0.5,1.02,0],[1.05,0.5,0],[-0.1,0.5,0]];labelBackgroundColor=none;rounded=0;html=1;whiteSpace=wrap;" vertex="1" parent="JCDnAdbY1yPkoRfCkcH7-78">
          <mxGeometry x="9" width="5" height="6" as="geometry" />
        </mxCell>
        <mxCell id="JCDnAdbY1yPkoRfCkcH7-82" style="vsdxID=1108;fillColor=#5ea0ef;gradientColor=#0078d4;shape=stencil(hVPbUoNADP0aXjObZK+PTq3/0bFUGBE6lGr9exeyWHZ19CVscnLgHJKteHdpDue6InWZxuG1/miPU1PxY0XU9k09tlM8VbyveHcaxvplHK79UfLzYe6cT2/D+/yGm/DUzCD1KZm3wLRUnqT5+TpKN0oDK3A2xIfEEFziJzxocGy9JlSGLBMKfCOBrQbPBq1eokncBAYPQW/YicqColqlFoVFqXqIYru23zi7E1JOYPkvbw5BkzcOlxi95dYQwTi/Koywz71pgm9yjCHY3J6D7Y9RCk1h0IHxucXS4A/FsJmFK0ZBBuKHcNW82lnlEmBwXpFEzrWafIy50GIOxc78Mol/diwe7tt5artOlnuLl9scS3ITeP8F);strokeColor=none;spacingTop=-3;spacingBottom=-3;spacingLeft=-3;spacingRight=-3;points=[[0.5,-0.12,0],[0.5,1.02,0],[1.05,0.5,0],[-0.1,0.5,0]];labelBackgroundColor=none;rounded=0;html=1;whiteSpace=wrap;" vertex="1" parent="JCDnAdbY1yPkoRfCkcH7-78">
          <mxGeometry x="7" y="7" width="7" height="7" as="geometry" />
        </mxCell>
        <mxCell id="JCDnAdbY1yPkoRfCkcH7-83" style="vsdxID=1109;fillColor=#5ea0ef;gradientColor=#0078d4;shape=stencil(lZTLUsMwDEW/JluNZMmStWR4/AcDhWYoLRPK6+9x6rSpTaHDRnEs3+T4ylbHl6/L25dFF/B1O2yeFh/9/XbZ8VUXQr9eLoZ+m0cdX3d8+bAZFo/D5m19X95fbseV4+h58z5+4bPoiEB9VAX8KjOMgGXmpgju3oaioFmSEhPtYpjEUzIKJLUQVdnygpL8DCVpYB4CWomOGCfxPp/AlFDJRR15EnNJ4rR2eiXEGRIvTnByBFRxjiXWnE5AEUWCmKX80xpUDSIHUdvF1FA6qCiSqTuRuNecnh2gmlUjiJ+h9bx3pPzYRW9cZfCUK4MpiUdFlJp3b8aBUQJMGxvdjDXhvJoPJXc7wzeLpomAwJFnLG+YTm9onwRjicTBhDl6S+gKjYXnim0EElI02kVsDcxn9rjaiFrDZr8O4hzdteb9dbMHS4G9Js6nXficqX9dpZCAKcUkaPmy5KJbU/ST4j2wQ8AZ+YfDx/d+PgXYntJVv/5fs8iDudU89KtV6VTH+bY15anS1vj6Gw==);strokeColor=none;spacingTop=-3;spacingBottom=-3;spacingLeft=-3;spacingRight=-3;points=[[0.5,-0.12,0],[0.5,1.02,0],[1.05,0.5,0],[-0.1,0.5,0]];labelBackgroundColor=none;rounded=0;html=1;whiteSpace=wrap;" vertex="1" parent="JCDnAdbY1yPkoRfCkcH7-78">
          <mxGeometry x="25" y="12" width="6" height="9" as="geometry" />
        </mxCell>
        <mxCell id="JCDnAdbY1yPkoRfCkcH7-84" style="vsdxID=1110;fillColor=#5ea0ef;gradientColor=#0078d4;shape=stencil(lZTdbsIwDIWfpreWY+f3cmLsPdAooxqjqMDG3n5J09I6Y6D1wkrtnuTrSeKKF8ft6lBXhMdT177XX836tK34uSJq9tu6a05xVPGy4sWm7eq3rj3v1/n9sEpfptFH+5lmuGSd96BtUhF+5wwFMK7PvGTB67nLCjWTKMM+x0E8FMmDDcYaUo6DYkSd6xe6Jx6K5MCTRZ9nIEQziPk37JAiC8FOtPh0A9i4yESMro8lMErA+AOERpHPUQIqBM3ajZAhOAnI4I3kwwdsCsaV+ijZ4k5MTmpElqhYuIcSBiUJJ/YHNCjX1xpmf+sKoyKcVkg52ivdiBNdz9x5CsmWdkTiWXnsbuKxAR+cZtNHK2E9wfXoJMuCxLUW7PQ4yRoYcLaxBazCwsox8TdpIBjPW4qoJKsLMDmDBendK2I0uNkdeXw/bti6a/b/6wBxMPWPTbPb5fYzr5f9JqZyr+LlDw==);strokeColor=none;spacingTop=-3;spacingBottom=-3;spacingLeft=-3;spacingRight=-3;points=[[0.5,-0.12,0],[0.5,1.02,0],[1.05,0.5,0],[-0.1,0.5,0]];labelBackgroundColor=none;rounded=0;html=1;whiteSpace=wrap;" vertex="1" parent="JCDnAdbY1yPkoRfCkcH7-78">
          <mxGeometry y="12" width="6" height="9" as="geometry" />
        </mxCell>
        <mxCell id="JCDnAdbY1yPkoRfCkcH7-85" style="vsdxID=1111;fillColor=#5ea0ef;gradientColor=#0078d4;shape=stencil(pZPdbsIwDIWfpreWfxLHvpwYew80yqjGABXY4O3XNm2hbNomTZWO4hy7+ZrahcwO68W+LBgPx3r3Wn5Uy+O6kMeCudquy7o6NqtC5oXMVru6fKl3p+0yx/tFm9mu3nbv7RvOuS4SeGyrGC95B7voKSc/n+qcTdlkg5gosGV1176298lBMVkQksQxIkr2z9z7CGKuhJ32tb0XBLqq4EijeZZbKrz0oTbn0BUUH75jZcCUvKntdApqDBLZA1HSkGhKGbwxUYNnnWI6A0U15RQiuk0xk8N4kgyfjL+AGoHR+NyBJoRoxj2sTUHNQIjULOvdff4EOlBdMQ1U/gNKAuPPa2/cfcqqCiySVLNOWRVGzrY1fOjJAfe2TeVLn3awm2r7975uFteJWFWbTR6oW/9+gpqtPH0y/wQ=);strokeColor=none;spacingTop=-3;spacingBottom=-3;spacingLeft=-3;spacingRight=-3;points=[[0.5,-0.12,0],[0.5,1.02,0],[1.05,0.5,0],[-0.1,0.5,0]];labelBackgroundColor=none;rounded=0;html=1;whiteSpace=wrap;" vertex="1" parent="JCDnAdbY1yPkoRfCkcH7-78">
          <mxGeometry y="5" width="6" height="8" as="geometry" />
        </mxCell>
        <mxCell id="JCDnAdbY1yPkoRfCkcH7-86" style="vsdxID=1112;fillColor=#5ea0ef;gradientColor=#0078d4;shape=stencil(hZLdbsMgDIWfhltkY/58OXXde1RruqBlSUXTrX37JYUuAVUrV8Y+xh9wBG1O7e7YCAWnMQ6fzU/Yj62gV6FU6NsmhnGKBG0FbQ5DbD7icO73aX/czco5+hq+5xMuqQ+lNnOTgmtOANz2b0n9fo5JjqlMVipC7zUYxw5zay6yly6fdlEpZVkaaxQ6YiTQWZ+LTIueyvFwzQk/DTQLEbw8gHJeKgve8m2UZS6xtJIGVgtLRG0lOesRDWsFVCIiVHwoDZeE8IxOTiP+JlRPBhWLJO38/TLVc1Uo8D9GF/rVP9/FDz+5lD6zxBQsbjqErktmXNdr902p5Fza/gI=);strokeColor=none;spacingTop=-3;spacingBottom=-3;spacingLeft=-3;spacingRight=-3;points=[[0.5,-0.12,0],[0.5,1.02,0],[1.05,0.5,0],[-0.1,0.5,0]];labelBackgroundColor=none;rounded=0;html=1;whiteSpace=wrap;" vertex="1" parent="JCDnAdbY1yPkoRfCkcH7-78">
          <mxGeometry x="16" width="5" height="6" as="geometry" />
        </mxCell>
        <mxCell id="JCDnAdbY1yPkoRfCkcH7-87" style="vsdxID=1113;fillColor=#5ea0ef;gradientColor=#0078d4;shape=stencil(lZLdTsMwDIWfJrdRbOf3Eo3tPSbW0YjSTlkH4+1J6xSWUZCQLMvx8Wk+NRa0Obf7UyNQncc0vDTv8TC2gh4FYuzbJsUxV4K2gjbHITXPabj0Bz6f9tPkVL0Ob9MXruyzKMFOLlQf3EEnvZ87OzY8XRI7gAcoSEuhhC7eoiFIMOS15axU0a/IOngZwC8RinkRQd56Q6BiJtZVGa+OM6R6WOFcv6uI2v4NarQMRi9hFNSoHqUNSMrN2decoO5Il8bvrF5LmzFKmJrVg3TLVTnXoC7/cQdfUWMau+akn09Pq28/o3ax/9++5OJ7246x63hZb/X77cwt3mzafgI=);strokeColor=none;spacingTop=-3;spacingBottom=-3;spacingLeft=-3;spacingRight=-3;points=[[0.5,-0.12,0],[0.5,1.02,0],[1.05,0.5,0],[-0.1,0.5,0]];labelBackgroundColor=none;rounded=0;html=1;whiteSpace=wrap;" vertex="1" parent="JCDnAdbY1yPkoRfCkcH7-78">
          <mxGeometry x="1" y="21" width="9" height="8" as="geometry" />
        </mxCell>
        <mxCell id="JCDnAdbY1yPkoRfCkcH7-88" style="vsdxID=1114;fillColor=#5ea0ef;gradientColor=#0078d4;shape=stencil(jZLNbsJADISfJteVf9Zr+1hR+h6ohBKVEhSgpW/fDZs0BFUqN69nJvlkTcWL43Z1qCuC46lr3+uvZn3aVvxcETX7bd01pzxVvKx4sWm7+q1rz/t1eR9WvbOfPtrP/guXkoM+QfB9+3opxtdzV5xYRILAbG4MAhYVgIbsqGuIAm7ATijJnYt+oaKzBjJDFnGmMTtoCYJaZGQliT7kuGgCwWSwDyuEG1J4+gM2aVBPCQGTR8c5qVPIgJZIr8A457QY8l6zimgpzkGNAgt5RNQUFeekI9Yvp1IQ+Yc0e6arQJyTRgzXH4GYEQtAevymqGFKkgPYnPaO9f6iu2b/WE/yMLVr0+x2pZy3+n0b86o0mZc/);strokeColor=none;spacingTop=-3;spacingBottom=-3;spacingLeft=-3;spacingRight=-3;points=[[0.5,-0.12,0],[0.5,1.02,0],[1.05,0.5,0],[-0.1,0.5,0]];labelBackgroundColor=none;rounded=0;html=1;whiteSpace=wrap;" vertex="1" parent="JCDnAdbY1yPkoRfCkcH7-78">
          <mxGeometry x="21" width="4" height="4" as="geometry" />
        </mxCell>
        <mxCell id="JCDnAdbY1yPkoRfCkcH7-89" style="vsdxID=1115;fillColor=#5ea0ef;gradientColor=#0078d4;shape=stencil(lZPtToNQDIavhr9NP85H+9PMeR+LY444x8I2nXcvcA5DcHEaktJz2rd5KG0hi+N2dSgLxuOpqV/Lj2p92hbyWDBX+23ZVKfWK2RZyGJTN+VLU5/363Q+rLrMznur37sKl6QjxE7D+JnOwSBQf/OU0p/PTcqnlKBdAopaZy1rc8wJkET2zpAsl8ELp2AkcKw+Um/RBm0OU1sXozrpK3hEyXLJtRXQZ0m+wpETH26gikAMoX311k1ZA2jg6Dyadl9j5qe4pEA6PjNYhkFqTOEHLE5B21pB7sASQm6qXlv3p77+ChoRvCqLZ3M0BAdKRog6I8V7TXUG4jE4S3YKagzkw7Wx8wkIcP0bEuOUVBkyZQwu0pR0nFK5OaY96a7a/2ewW2dcik2126Wd+h6fL1F7lRZQll8=);strokeColor=none;spacingTop=-3;spacingBottom=-3;spacingLeft=-3;spacingRight=-3;points=[[0.5,-0.12,0],[0.5,1.02,0],[1.05,0.5,0],[-0.1,0.5,0]];labelBackgroundColor=none;rounded=0;html=1;whiteSpace=wrap;" vertex="1" parent="JCDnAdbY1yPkoRfCkcH7-78">
          <mxGeometry x="24" y="5" width="6" height="8" as="geometry" />
        </mxCell>
        <mxCell id="JCDnAdbY1yPkoRfCkcH7-90" style="vsdxID=1116;fillColor=#5ea0ef;gradientColor=#0078d4;shape=stencil(lZLRTsMwDEW/pq+WY8eJ84jG+I+JdbSitFPXQfl70iWjCxpCvESOr691nLjizanZHeuK8DSNw2v90e6npuLHiqjtm3pspxhVvK14cxjG+mUczv0+3Y+7pXKJ3ob3pcOcfOxBFhPhZ0pQAHaXzFOqfz6PyWBygYJ4Y0nTGYLL/qyLgjciwTEj+dx8piQaB7iaQ3ZmUQnEqaJnDtZmceYkYq7NV4O4QuLDHU4rILySlpDKYNURqzCZ2MuUmJFknVB8iWkdeI1zo9KCW2Jeub5B/8JUAyQlnDEQyDkUQSvqEamkkwBKvz0iEaBRvk5X0t38Nt/97gti1/b/2pAYrOt1aLsubeet/nMdYyqtMm+/AA==);strokeColor=none;spacingTop=-3;spacingBottom=-3;spacingLeft=-3;spacingRight=-3;points=[[0.5,-0.12,0],[0.5,1.02,0],[1.05,0.5,0],[-0.1,0.5,0]];labelBackgroundColor=none;rounded=0;html=1;whiteSpace=wrap;" vertex="1" parent="JCDnAdbY1yPkoRfCkcH7-78">
          <mxGeometry x="21" y="21" width="9" height="9" as="geometry" />
        </mxCell>
        <mxCell id="JCDnAdbY1yPkoRfCkcH7-91" style="vsdxID=1117;fillColor=#5ea0ef;gradientColor=#0078d4;shape=stencil(hZLdbsIwDIWfJreRY+f3cmLsPdAoNFrXolA29vZLcSBkQ5uv7J5zok+1Ba2O/ebQCYTjnKa37jNu517Qs0CMY9+lOOdO0FrQajelbp+m07jl+bBZnEv3Pn0sL5w5pwCWDMJXO7+weYjjn2ap6N7+ekr8uGKDNRLdrXwJq5rODo/ovPYQgmX9jKyTkkHfygDoki+6lYRBKQqowWQ0VeLE8hW1GS+c8PQAFUlaVatFNVpqAnLBaevJ/EI1QTqs1XIGlBkQbKHVLWb9p/RgAxfU/5bQbCw3dde7OAx8Kvf6z9vIn/iuaP0N);strokeColor=none;spacingTop=-3;spacingBottom=-3;spacingLeft=-3;spacingRight=-3;points=[[0.5,-0.12,0],[0.5,1.02,0],[1.05,0.5,0],[-0.1,0.5,0]];labelBackgroundColor=none;rounded=0;html=1;whiteSpace=wrap;" vertex="1" parent="JCDnAdbY1yPkoRfCkcH7-78">
          <mxGeometry x="8" y="24" width="5" height="6" as="geometry" />
        </mxCell>
        <mxCell id="JCDnAdbY1yPkoRfCkcH7-92" style="vsdxID=1118;fillColor=#5ea0ef;gradientColor=#0078d4;shape=stencil(fVLLcoMwDPwarhpZ8kvHTpr8R6YhhSkNGULa5O8LkRkwaeuDRvJqQStvwZtLtT+XBeGl79qP8rs+9FXBrwVRfarKru6HrOBtwZtj25XvXXs9HbQ+78fOMftsv8Yv3JRnEEcO4V1rrXba+nbttNco6AWIMXjRmIgJDEBi/HREosI3UpgdGG8jO42INtETbghcYvByFLyn0jA4O0+HL8OATX1aaMmVTMr+0EICPiCTjJFzKRJBXOTp2FyJE2CL3skjRhGXKxELYbGJkKuKAcTkyoYrtxK2nlYceLQs7hF9Pq5HsM//o/UDTw9hgFabnnv4yQW/7PlfzwzJ7LVj3TRq1SW+9uZwpb7m7Q8=);strokeColor=none;spacingTop=-3;spacingBottom=-3;spacingLeft=-3;spacingRight=-3;points=[[0.5,-0.12,0],[0.5,1.02,0],[1.05,0.5,0],[-0.1,0.5,0]];labelBackgroundColor=none;rounded=0;html=1;whiteSpace=wrap;" vertex="1" parent="JCDnAdbY1yPkoRfCkcH7-78">
          <mxGeometry x="16" y="15" width="7" height="7" as="geometry" />
        </mxCell>
        <mxCell id="JCDnAdbY1yPkoRfCkcH7-93" style="vsdxID=1119;fillColor=#5ea0ef;gradientColor=#0078d4;shape=stencil(hZLbboMwDIafJreREychvpy69j2qlY5oDKqUbt3bD3A2cIW2XBgfoy/mV7i7NsdLrSxch9y/1Z/pNDQKn5W1qWvqnIbRU7hXuDv3uX7N/a07cXw5Tp2T995/TDfcec4ATDMWvmR84OY2dX81o/Zu3f5yy3y54YbgdERvgputL8OlaKwumbvlDIKuAo0ftkRVmSj1qHF1AGwZRy7/wIlwJoOnDTiQOGi1JRPKqSSZ146cB8/WS6ywPAR/F2NI0sQodrVJ5EAHT+hgtkbykR93uToSsAKNlkIFbMFIRIqa/DL+sLjlv+KGCmbUf4QgVTM6i97OqW1Zruv6oz7HFGsb998=);strokeColor=none;spacingTop=-3;spacingBottom=-3;spacingLeft=-3;spacingRight=-3;points=[[0.5,-0.12,0],[0.5,1.02,0],[1.05,0.5,0],[-0.1,0.5,0]];labelBackgroundColor=none;rounded=0;html=1;whiteSpace=wrap;" vertex="1" parent="JCDnAdbY1yPkoRfCkcH7-78">
          <mxGeometry x="7" y="15" width="7" height="7" as="geometry" />
        </mxCell>
        <mxCell id="JCDnAdbY1yPkoRfCkcH7-94" style="vsdxID=1120;fillColor=#5ea0ef;gradientColor=#0078d4;shape=stencil(fZLdbsMgDIWfhltkbMDhcuq696jWdEHLkoqmW/v2C3GUhuzH4sJwfKxPxop2l+ZwrhXCZUj9e/0Vj0Oj6Fkhxq6pUxzGTNFe0e7Up/ot9dfuKPfzIVfm7KP/zB1u4oPsQLjLzaAmN728SHEbu7+LAdalr9ckjY3IFjTyEtVsncWA2gVcDot6Q1GZNf+0zqKzmhBCxd5ZQjM7qWSCO62RJ0R4+oXSVxrcEr6krLS3JrAjqLxFACoxyWrGR5SYeZTWeQ5gxkIXApekG87N5CfWf4e//akxefzxKbatrMha3+7E+CT7RPtv);strokeColor=none;spacingTop=-3;spacingBottom=-3;spacingLeft=-3;spacingRight=-3;points=[[0.5,-0.12,0],[0.5,1.02,0],[1.05,0.5,0],[-0.1,0.5,0]];labelBackgroundColor=none;rounded=0;html=1;whiteSpace=wrap;" vertex="1" parent="JCDnAdbY1yPkoRfCkcH7-78">
          <mxGeometry x="16" y="24" width="5" height="6" as="geometry" />
        </mxCell>
        <UserObject label="" tags="Background" id="JCDnAdbY1yPkoRfCkcH7-95">
          <mxCell style="vsdxID=1049;fillColor=none;gradientColor=none;strokeColor=none;spacingTop=-3;spacingBottom=-3;spacingLeft=-3;spacingRight=-3;points=[];labelBackgroundColor=none;rounded=0;html=1;whiteSpace=wrap;" vertex="1" parent="1">
            <mxGeometry x="2030" y="120" width="37.8" height="28" as="geometry" />
          </mxCell>
        </UserObject>
        <mxCell id="JCDnAdbY1yPkoRfCkcH7-96" style="vsdxID=1050;fillColor=none;gradientColor=none;strokeColor=none;spacingTop=-3;spacingBottom=-3;spacingLeft=-3;spacingRight=-3;points=[];labelBackgroundColor=none;rounded=0;html=1;whiteSpace=wrap;" vertex="1" parent="JCDnAdbY1yPkoRfCkcH7-95">
          <mxGeometry width="37.8" height="28" as="geometry" />
        </mxCell>
        <mxCell id="JCDnAdbY1yPkoRfCkcH7-97" style="vsdxID=1051;fillColor=none;gradientColor=none;strokeColor=none;spacingTop=-3;spacingBottom=-3;spacingLeft=-3;spacingRight=-3;points=[];labelBackgroundColor=none;rounded=0;html=1;whiteSpace=wrap;" vertex="1" parent="JCDnAdbY1yPkoRfCkcH7-96">
          <mxGeometry width="37.8" height="28" as="geometry" />
        </mxCell>
        <mxCell id="JCDnAdbY1yPkoRfCkcH7-98" style="vsdxID=1052;fillColor=none;gradientColor=none;strokeColor=none;spacingTop=-3;spacingBottom=-3;spacingLeft=-3;spacingRight=-3;points=[];labelBackgroundColor=none;rounded=0;html=1;whiteSpace=wrap;" vertex="1" parent="JCDnAdbY1yPkoRfCkcH7-97">
          <mxGeometry x="12.6" y="12.25" width="14.9625" height="15.750000000000002" as="geometry" />
        </mxCell>
        <mxCell id="JCDnAdbY1yPkoRfCkcH7-99" style="vsdxID=1053;fillColor=#235dc1;gradientColor=none;shape=stencil(jVJLEoIwDD1Nt522AUrXiPdgBKQjAlNA4fZSgwPUAd0lLy+fl4RA1BZJkxHB2s7Ut+yp064gcCJC6KrIjO4mi0BMIMprk11N3Vcp+k1imda61w9bYcA8Trm0SYKNCEifBv4bOSO/1NWKDx4F2CRwxvbpYejWd+iX3uA4HMPKo/JTn28z2CAcYJwBFVA2dxnA5cyA4lSo/UEXPvoHmr5XJmjAj0SxrSAJ1IOtJEeQnLagHEFLV/jrUr8vOxnLW+S6LPGr1nH3jSYIXxDiFw==);strokeColor=none;spacingTop=-3;spacingBottom=-3;spacingLeft=-3;spacingRight=-3;points=[];labelBackgroundColor=none;rounded=0;html=1;whiteSpace=wrap;" vertex="1" parent="JCDnAdbY1yPkoRfCkcH7-98">
          <mxGeometry width="14.9625" height="15.750000000000002" as="geometry" />
        </mxCell>
        <mxCell id="JCDnAdbY1yPkoRfCkcH7-100" style="vsdxID=1054;fillColor=none;gradientColor=none;strokeColor=none;spacingTop=-3;spacingBottom=-3;spacingLeft=-3;spacingRight=-3;points=[];labelBackgroundColor=none;rounded=0;html=1;whiteSpace=wrap;" vertex="1" parent="JCDnAdbY1yPkoRfCkcH7-97">
          <mxGeometry y="7" width="21.2625" height="11.083333333333334" as="geometry" />
        </mxCell>
        <mxCell id="JCDnAdbY1yPkoRfCkcH7-101" style="vsdxID=1055;fillColor=#3b6ec6;gradientColor=none;shape=stencil(lZJBEoIwDEVP022mbSiUNeo9GAHpiMAUULi9YDtKq124S9L3k/xpCGZDnfcl4XQYdXctH6oYa4IHwrlq61KrcY0IHglmVafLi+6mtjB5n2/kFt26+9ZhNjq6KThdTMYYyPRVORm4UW0QjgUkYZZHgLHDpxJktBecJ21WYVYigDMrsSVG7cyZWyYGIS3DfQYtkwAmlsHAbHfZd4tlb/QnKiFOw6xvCSFF15Hnh7peBGDkmqGukb9+6Ateg88hVKppzB3t3/3DWUvm6PD4BA==);strokeColor=none;spacingTop=-3;spacingBottom=-3;spacingLeft=-3;spacingRight=-3;points=[];labelBackgroundColor=none;rounded=0;html=1;whiteSpace=wrap;" vertex="1" parent="JCDnAdbY1yPkoRfCkcH7-100">
          <mxGeometry width="21.2625" height="11.083333333333334" as="geometry" />
        </mxCell>
        <mxCell id="JCDnAdbY1yPkoRfCkcH7-102" style="vsdxID=1056;fillColor=none;gradientColor=none;strokeColor=none;spacingTop=-3;spacingBottom=-3;spacingLeft=-3;spacingRight=-3;points=[];labelBackgroundColor=none;rounded=0;html=1;whiteSpace=wrap;" vertex="1" parent="JCDnAdbY1yPkoRfCkcH7-97">
          <mxGeometry x="6.3" width="31.5" height="23.333333333333336" as="geometry" />
        </mxCell>
        <mxCell id="JCDnAdbY1yPkoRfCkcH7-103" style="vsdxID=1057;fillColor=#5d8de4;gradientColor=none;shape=stencil(jdRLcoMwDAbg07DV2BJ+aJ0m98g0pDClIUNIm96+prYDYgbanS1+8GeDKGh3q4/XqkB1G/ruvfpqTkNd0EuB2Fzqqm+GMCpoX9Du3PXVW9/dL6c4vx7H5Dj66D7HJzzifaUC68e7UH3HigVtfwuHmG+byyyvgVDGLZCZ51/vfVxAx4BK8TS1Hohj6YEpAZgJqeI0qByiWMqrpqlD8HqdiQ4kk/2WET0wSSczOJRO0mCNhGqlJJMIrJNU9mA3TpQJvBNWw4C8xWUHTmqNBbc41SctWw2CQamdMqlQOmCzbp3y6ZHAm9Apnw86w7MybOX5QaH4YLKRS1CLl6/WhWGTygqj2gKG/ZYsiUoCSwLUEohApTTOu4j+00Z/t10YTD17bto2tvz8+rLHQyn+H2j/Aw==);strokeColor=none;spacingTop=-3;spacingBottom=-3;spacingLeft=-3;spacingRight=-3;points=[];labelBackgroundColor=none;rounded=0;html=1;whiteSpace=wrap;" vertex="1" parent="JCDnAdbY1yPkoRfCkcH7-102">
          <mxGeometry width="31.5" height="23.333333333333336" as="geometry" />
        </mxCell>
        <mxCell id="JCDnAdbY1yPkoRfCkcH7-104" style="vsdxID=1058;fillColor=none;gradientColor=none;strokeColor=none;spacingTop=-3;spacingBottom=-3;spacingLeft=-3;spacingRight=-3;points=[];labelBackgroundColor=none;rounded=0;html=1;whiteSpace=wrap;" vertex="1" parent="JCDnAdbY1yPkoRfCkcH7-97">
          <mxGeometry y="21" width="9.45" height="7" as="geometry" />
        </mxCell>
        <mxCell id="JCDnAdbY1yPkoRfCkcH7-105" style="vsdxID=1059;fillColor=#9fbbf0;gradientColor=none;shape=stencil(UzV2Ls5ILEhVNTIoLinKz04tz0wpyVA1dlE1MsrMy0gtyiwBslSNXVWNndPyi1LTi/JL81Ig/IJEkEoQKze/DGRCBUSfkaWesQVIl5FBJUTE3FDPzBQs4gbRkJOZh1eDAW7FBuQpNDTAoxQmSZZikj1HuQYgAxH4aZk5OZC4Q5ZHjyygECSijV0B);strokeColor=none;spacingTop=-3;spacingBottom=-3;spacingLeft=-3;spacingRight=-3;points=[];labelBackgroundColor=none;rounded=0;html=1;whiteSpace=wrap;" vertex="1" parent="JCDnAdbY1yPkoRfCkcH7-104">
          <mxGeometry width="9.45" height="7" as="geometry" />
        </mxCell>
        <mxCell id="JCDnAdbY1yPkoRfCkcH7-106" style="vsdxID=1060;fillColor=none;gradientColor=none;strokeColor=none;spacingTop=-3;spacingBottom=-3;spacingLeft=-3;spacingRight=-3;points=[];labelBackgroundColor=none;rounded=0;html=1;whiteSpace=wrap;" vertex="1" parent="JCDnAdbY1yPkoRfCkcH7-97">
          <mxGeometry x="23.625" y="2.916666666666667" width="9.45" height="7" as="geometry" />
        </mxCell>
        <mxCell id="JCDnAdbY1yPkoRfCkcH7-107" style="vsdxID=1061;fillColor=#adc5f2;gradientColor=none;shape=stencil(jVLtDoIwDHya/SWjBXkAxPcwArKIjAxQeHtZOsNWI+FfP+52va4C86G59pUAOYxGP6q3KsdG4FkAqK6pjBrXSGAhMK+1qe5GT11JeX+1SBs99cu+MBMvlZYCcqE0lpRfCHubDIFjamdZdEJHiEOGnIEVFthIDoIcgt8pIpnsCW8MVwCIklDXn82VZCibMtVdq6sAZqEmM8psehNhCDhqkln09ga/M/Ft/zPJfrRV3eHfX4PtbGrVtnR1fp+f2VqiE8XiAw==);strokeColor=none;spacingTop=-3;spacingBottom=-3;spacingLeft=-3;spacingRight=-3;points=[];labelBackgroundColor=none;rounded=0;html=1;whiteSpace=wrap;" vertex="1" parent="JCDnAdbY1yPkoRfCkcH7-106">
          <mxGeometry width="9.45" height="7" as="geometry" />
        </mxCell>
        <mxCell id="JCDnAdbY1yPkoRfCkcH7-108" style="vsdxID=1062;fillColor=none;gradientColor=none;strokeColor=none;spacingTop=-3;spacingBottom=-3;spacingLeft=-3;spacingRight=-3;points=[];labelBackgroundColor=none;rounded=0;html=1;whiteSpace=wrap;" vertex="1" parent="JCDnAdbY1yPkoRfCkcH7-97">
          <mxGeometry x="9.45" y="11.666666666666668" width="11.8125" height="8.75" as="geometry" />
        </mxCell>
        <mxCell id="JCDnAdbY1yPkoRfCkcH7-109" style="vsdxID=1063;fillColor=#6c9aee;gradientColor=none;shape=stencil(lZHNDoIwEISfZq9k242BO+J7kFBoY21JqX9vb8tGBRMx3mZ3v5k0U6B60u2oQOIUgz+qq+miBtqDlMZpFUxMCqgBqnsf1BD82XU8j20mszr5S064sa8ShSyzS+KdNzhPB4atcQsYV2C27r7DoipKWhkEbmQ/jy842TfS/3r3DziJdz29sZbbXd4/60wr/gpqHg==);strokeColor=none;spacingTop=-3;spacingBottom=-3;spacingLeft=-3;spacingRight=-3;points=[];labelBackgroundColor=none;rounded=0;html=1;whiteSpace=wrap;" vertex="1" parent="JCDnAdbY1yPkoRfCkcH7-108">
          <mxGeometry width="11.8125" height="8.75" as="geometry" />
        </mxCell>
        <mxCell id="JCDnAdbY1yPkoRfCkcH7-110" style="vsdxID=1064;fillColor=none;gradientColor=none;strokeColor=none;spacingTop=-3;spacingBottom=-3;spacingLeft=-3;spacingRight=-3;points=[];labelBackgroundColor=none;rounded=0;html=1;whiteSpace=wrap;" vertex="1" parent="JCDnAdbY1yPkoRfCkcH7-97">
          <mxGeometry x="7.875" y="19.25" width="3.9375" height="2.916666666666667" as="geometry" />
        </mxCell>
        <mxCell id="JCDnAdbY1yPkoRfCkcH7-111" style="vsdxID=1065;fillColor=#88acef;gradientColor=none;shape=stencil(lZFdDoIwEIRPs6+k7CoeAPEeJBS7sbak1L/b27ohggka32Z3v5k0U6B6NO2gAdUYgz/pG3fRAO0BkZ3RgWNSQA1Q3fugj8FfXCfz0GYyq7O/5oS7+LZUVJRdqB6yKZV6zQfBLbsZPh0nONl36/SmKrBc8F+il8HJSuvsn6/+iSfxLqhna6Xf+f2z0LSSz6DmCQ==);strokeColor=none;spacingTop=-3;spacingBottom=-3;spacingLeft=-3;spacingRight=-3;points=[];labelBackgroundColor=none;rounded=0;html=1;whiteSpace=wrap;" vertex="1" parent="JCDnAdbY1yPkoRfCkcH7-110">
          <mxGeometry width="3.9375" height="2.916666666666667" as="geometry" />
        </mxCell>
        <mxCell id="JCDnAdbY1yPkoRfCkcH7-313" style="edgeStyle=orthogonalEdgeStyle;rounded=0;orthogonalLoop=1;jettySize=auto;html=1;fontSize=12;startArrow=none;startFill=0;endArrow=classic;endFill=1;entryX=1;entryY=0.5;entryDx=0;entryDy=0;exitX=0;exitY=0.462;exitDx=0;exitDy=0;exitPerimeter=0;" edge="1" parent="1" source="JCDnAdbY1yPkoRfCkcH7-133" target="JCDnAdbY1yPkoRfCkcH7-275">
          <mxGeometry relative="1" as="geometry">
            <mxPoint x="2040" y="540" as="targetPoint" />
            <mxPoint x="2040" y="240" as="sourcePoint" />
          </mxGeometry>
        </mxCell>
        <UserObject label="&lt;div style=&quot;font-size: 1px&quot;&gt;&lt;font style=&quot;font-size:15.52px;font-family:Segoe UI;color:#000000;direction:ltr;letter-spacing:0px;line-height:120%;opacity:1&quot;&gt;Azure &lt;br/&gt;Pipelines&lt;br/&gt;&lt;/font&gt;&lt;/div&gt;" tags="Background" id="JCDnAdbY1yPkoRfCkcH7-112">
          <mxCell style="verticalAlign=middle;align=center;vsdxID=1136;fillColor=none;gradientColor=none;shape=stencil(nZBLDoAgDERP0z3SIyjew0SURgSD+Lu9kMZoXLhwN9O+tukAlrNpJg1SzDH4QW/URgNYgZTkjA4UkwJUgGXng+6DX1zLfmoymdXo17xh5zmRJ6Q42BWCfc2oJfdAr+Yv+AP9Cb7OJ3H/2JG1HNGz/84klThPVCc=);strokeColor=none;points=[];labelBackgroundColor=none;rounded=0;html=1;whiteSpace=wrap;" vertex="1" parent="1">
            <mxGeometry x="2000" y="156" width="87.6" height="34" as="geometry" />
          </mxCell>
        </UserObject>
        <UserObject label="" tags="Background" id="JCDnAdbY1yPkoRfCkcH7-113">
          <mxCell style="vsdxID=1019;fillColor=none;gradientColor=none;strokeColor=none;spacingTop=-3;spacingBottom=-3;spacingLeft=-3;spacingRight=-3;points=[];labelBackgroundColor=none;rounded=0;html=1;whiteSpace=wrap;" vertex="1" parent="1">
            <mxGeometry x="1551" y="191" width="48" height="43" as="geometry" />
          </mxCell>
        </UserObject>
        <mxCell id="JCDnAdbY1yPkoRfCkcH7-114" style="vsdxID=1020;fillColor=none;gradientColor=none;strokeColor=none;spacingTop=-3;spacingBottom=-3;spacingLeft=-3;spacingRight=-3;points=[];labelBackgroundColor=none;rounded=0;html=1;whiteSpace=wrap;" vertex="1" parent="JCDnAdbY1yPkoRfCkcH7-113">
          <mxGeometry width="48" height="43" as="geometry" />
        </mxCell>
        <mxCell id="JCDnAdbY1yPkoRfCkcH7-115" style="vsdxID=1021;fillColor=none;gradientColor=none;strokeColor=none;spacingTop=-3;spacingBottom=-3;spacingLeft=-3;spacingRight=-3;points=[];labelBackgroundColor=none;rounded=0;html=1;whiteSpace=wrap;" vertex="1" parent="JCDnAdbY1yPkoRfCkcH7-114">
          <mxGeometry width="48" height="43" as="geometry" />
        </mxCell>
        <mxCell id="JCDnAdbY1yPkoRfCkcH7-116" style="vsdxID=1022;fillColor=none;gradientColor=none;strokeColor=none;spacingTop=-3;spacingBottom=-3;spacingLeft=-3;spacingRight=-3;points=[];labelBackgroundColor=none;rounded=0;html=1;whiteSpace=wrap;" vertex="1" parent="JCDnAdbY1yPkoRfCkcH7-115">
          <mxGeometry width="48" height="43" as="geometry" />
        </mxCell>
        <mxCell id="JCDnAdbY1yPkoRfCkcH7-117" style="vsdxID=1023;fillColor=none;gradientColor=none;strokeColor=none;spacingTop=-3;spacingBottom=-3;spacingLeft=-3;spacingRight=-3;points=[];labelBackgroundColor=none;rounded=0;html=1;whiteSpace=wrap;" vertex="1" parent="JCDnAdbY1yPkoRfCkcH7-116">
          <mxGeometry width="48" height="43" as="geometry" />
        </mxCell>
        <mxCell id="JCDnAdbY1yPkoRfCkcH7-118" style="vsdxID=1024;fillColor=#198ab3;gradientColor=#32d4f5;shape=stencil(xZfbcpswEIafhkvvaHVA0nWavgeTYJspNR6ZNMnbVxQQrDik7hh6h6Vd+dNq99cqEU+3c3bNE85utat+5O/Fa31OxLeE8+Jyzl1R+69EPCfi6Vi5/OSqt8tr+/uaNZbN18/qV7PCR+tnGEjdeHH22Y4IBoh/Rr63Dpl78bOuc+AGlGgd3OBhbTvUGSkEociqrJs/ZB/F7eCqOquL6tLOoelmy8yd8oP/v8OxzE7E8fae59fJ8DyhBYkRIYJVhJCLYNTZcAQmdqTUgJxSNuApoWSEUFqwZlfCPjVGhEbSOBpAmj/agN4xjpiCjSjRgBSE0mdoKvelLIvLqMyEBo0LALPbMsG+39UkOfyaLKVrKkD14E2tSIEBGyOmmiIa4FHcvd48OodxOe4z6RkA5pOehaC6QRg0lTcd9rBhZa4EHi0oO4HkhkByGYyG6mV6x9j7v6OXgD8NsWzvi7S/WXp70Zft/FkNqu4GD0OFfnoVmf5+2+WsPCSaCSRDAqmHkdEtnG5JSWM/A6B77nkHG9+fvtZx5bBQBSkIOp2CoodleSyTSoZ63KWyVFDZESUtLK2BpqmXFG63ZIxCz0IZTwDmU1AEh5CCaghrJ2E6bOL/tBsCdBR5f/T2C0ZlBpu7GfFuRp8esfA2/Yf8gtIimE0T5AGRRPbPLfr9cWwyMr5lVbgtlvPcQPpoMVhp2nQ66V4CwELgrYwDz2lH5MVD8n03NQ191Fl6yuj9FpJhQxVeY+ST7tczRr3l2st1l/T4i6ez/xge3seiLNt3+3g+fqj7ofaRL55/Aw==);strokeColor=none;strokeWidth=48;spacingTop=-3;spacingBottom=-3;spacingLeft=-3;spacingRight=-3;points=[];labelBackgroundColor=none;rounded=0;html=1;whiteSpace=wrap;" vertex="1" parent="JCDnAdbY1yPkoRfCkcH7-117">
          <mxGeometry width="48" height="43" as="geometry" />
        </mxCell>
        <mxCell id="JCDnAdbY1yPkoRfCkcH7-119" style="vsdxID=1025;fillColor=none;gradientColor=none;strokeColor=none;spacingTop=-3;spacingBottom=-3;spacingLeft=-3;spacingRight=-3;points=[];labelBackgroundColor=none;rounded=0;html=1;whiteSpace=wrap;" vertex="1" parent="JCDnAdbY1yPkoRfCkcH7-116">
          <mxGeometry x="18" y="28" width="8" height="8" as="geometry" />
        </mxCell>
        <mxCell id="JCDnAdbY1yPkoRfCkcH7-120" style="vsdxID=1026;fillColor=#c69aeb;gradientColor=#6f4bb2;shape=stencil(vVRRDsIgDD0NnxiEuem3znsQxzYijqVDnbcXhLgpGqMm+2tfX2lfoSC27mreCkRJZ0DvxVkWpkZsgyiVTS1AGmshliO2LjWICvSxKbzfcsd01kGf3Am9zyMug5KL9xZkliY3ZOvJHHY2CoGcrGZs6RPgMkCZhwZSQh9OnZNQpce8lx0GbbiRugnRZYgqDpXAtiIuFa8e2uvOQrQRHHpUshkJchKyl+V/l3QXEI1pEknP5V2D6Z+S4jFNeEfxE/n3ht4NaBI5H3boK7I1hlUtpVJ+08fx59W2kP8WWH4F);strokeColor=none;strokeWidth=48;spacingTop=-3;spacingBottom=-3;spacingLeft=-3;spacingRight=-3;points=[];labelBackgroundColor=none;rounded=0;html=1;whiteSpace=wrap;" vertex="1" parent="JCDnAdbY1yPkoRfCkcH7-119">
          <mxGeometry width="8" height="8" as="geometry" />
        </mxCell>
        <UserObject label="&lt;div style=&quot;font-size: 1px&quot;&gt;&lt;font style=&quot;font-size:14.11px;font-family:Segoe UI Semibold;color:#000000;direction:ltr;letter-spacing:0px;line-height:120%;opacity:1&quot;&gt;CI/CD&lt;br/&gt;&lt;/font&gt;&lt;/div&gt;" tags="Background" id="JCDnAdbY1yPkoRfCkcH7-134">
          <mxCell style="verticalAlign=middle;align=center;vsdxID=1147;fillColor=none;gradientColor=none;shape=stencil(nZBLDoAgDERP0z3SIyjew0SURgSD+Lu9kMZoXLhwN9O+tukAlrNpJg1SzDH4QW/URgNYgZTkjA4UkwJUgGXng+6DX1zLfmoymdXo17xh5zmRJ6Q42BWCfc2oJfdAr+Yv+AP9Cb7OJ3H/2JG1HNGz/84klThPVCc=);strokeColor=none;points=[];labelBackgroundColor=none;rounded=0;html=1;whiteSpace=wrap;" vertex="1" parent="1">
            <mxGeometry x="2077" y="95" width="67" height="15" as="geometry" />
          </mxCell>
        </UserObject>
        <UserObject label="&lt;div style=&quot;font-size: 1px&quot;&gt;&lt;/div&gt;" tags="Connector" id="JCDnAdbY1yPkoRfCkcH7-138">
          <mxCell style="vsdxID=1153;edgeStyle=none;startArrow=none;endArrow=block;startSize=5;endSize=5;strokeWidth=2;strokeColor=#000000;spacingTop=0;spacingBottom=0;spacingLeft=0;spacingRight=0;verticalAlign=bottom;html=1;labelBackgroundColor=#ffffff;rounded=0;align=center;" edge="1" parent="1">
            <mxGeometry relative="1" as="geometry">
              <mxPoint x="-1" y="-25" as="offset" />
              <Array as="points" />
              <mxPoint x="1616" y="216" as="sourcePoint" />
              <mxPoint x="1701" y="216" as="targetPoint" />
            </mxGeometry>
          </mxCell>
        </UserObject>
        <UserObject label="&lt;div style=&quot;font-size: 1px&quot;&gt;&lt;/div&gt;" tags="Connector" id="JCDnAdbY1yPkoRfCkcH7-139">
          <mxCell style="vsdxID=1154;edgeStyle=none;startArrow=none;endArrow=block;startSize=5;endSize=5;strokeWidth=2;strokeColor=#000000;spacingTop=0;spacingBottom=0;spacingLeft=0;spacingRight=0;verticalAlign=bottom;html=1;labelBackgroundColor=#ffffff;rounded=0;align=center;" edge="1" parent="1">
            <mxGeometry relative="1" as="geometry">
              <mxPoint x="-1" y="-25" as="offset" />
              <Array as="points" />
              <mxPoint x="1779" y="216" as="sourcePoint" />
              <mxPoint x="1865" y="216" as="targetPoint" />
            </mxGeometry>
          </mxCell>
        </UserObject>
        <mxCell id="JCDnAdbY1yPkoRfCkcH7-287" style="edgeStyle=orthogonalEdgeStyle;rounded=0;orthogonalLoop=1;jettySize=auto;html=1;fontSize=12;startArrow=none;startFill=0;endArrow=classic;endFill=1;" edge="1" parent="1" source="JCDnAdbY1yPkoRfCkcH7-141" target="JCDnAdbY1yPkoRfCkcH7-194">
          <mxGeometry relative="1" as="geometry" />
        </mxCell>
        <mxCell id="JCDnAdbY1yPkoRfCkcH7-316" value="" style="edgeStyle=orthogonalEdgeStyle;rounded=0;orthogonalLoop=1;jettySize=auto;html=1;fontSize=12;startArrow=classic;startFill=1;endArrow=none;endFill=0;" edge="1" parent="1" source="JCDnAdbY1yPkoRfCkcH7-141" target="JCDnAdbY1yPkoRfCkcH7-208">
          <mxGeometry relative="1" as="geometry">
            <Array as="points">
              <mxPoint x="1230" y="640" />
              <mxPoint x="1230" y="640" />
            </Array>
          </mxGeometry>
        </mxCell>
        <UserObject label="&lt;div style=&quot;font-size: 1px&quot;&gt;&lt;font style=&quot;font-size:14.11px;font-family:Segoe UI;color:#000000;direction:ltr;letter-spacing:0px;line-height:120%;opacity:1&quot;&gt;&lt;i&gt;Sign-in&lt;br/&gt;&lt;/i&gt;&lt;/font&gt;&lt;/div&gt;" tags="Background" id="JCDnAdbY1yPkoRfCkcH7-141">
          <mxCell style="verticalAlign=middle;align=center;vsdxID=1158;fillColor=none;gradientColor=none;shape=stencil(nZBLDoAgDERP0z3SIyjew0SURgSD+Lu9kMZoXLhwN9O+tukAlrNpJg1SzDH4QW/URgNYgZTkjA4UkwJUgGXng+6DX1zLfmoymdXo17xh5zmRJ6Q42BWCfc2oJfdAr+Yv+AP9Cb7OJ3H/2JG1HNGz/84klThPVCc=);strokeColor=none;points=[];labelBackgroundColor=none;rounded=0;html=1;whiteSpace=wrap;" vertex="1" parent="1">
            <mxGeometry x="1250" y="629" width="73" height="25" as="geometry" />
          </mxCell>
        </UserObject>
        <UserObject label="&lt;div style=&quot;font-size: 1px&quot;&gt;&lt;font style=&quot;font-size:14.11px;font-family:Segoe UI;color:#000000;direction:ltr;letter-spacing:0px;line-height:120%;opacity:1&quot;&gt;&lt;i&gt;Authentication&lt;br/&gt;&lt;/i&gt;&lt;/font&gt;&lt;/div&gt;" tags="Background" id="JCDnAdbY1yPkoRfCkcH7-142">
          <mxCell style="verticalAlign=middle;align=center;vsdxID=1159;fillColor=none;gradientColor=none;shape=stencil(nZBLDoAgDERP0z3SIyjew0SURgSD+Lu9kMZoXLhwN9O+tukAlrNpJg1SzDH4QW/URgNYgZTkjA4UkwJUgGXng+6DX1zLfmoymdXo17xh5zmRJ6Q42BWCfc2oJfdAr+Yv+AP9Cb7OJ3H/2JG1HNGz/84klThPVCc=);strokeColor=none;points=[];labelBackgroundColor=none;rounded=0;html=1;whiteSpace=wrap;" vertex="1" parent="1">
            <mxGeometry x="1323" y="504.5" width="110" height="18" as="geometry" />
          </mxCell>
        </UserObject>
        <UserObject label="" tags="Background" id="JCDnAdbY1yPkoRfCkcH7-143">
          <mxCell style="vsdxID=1161;fillColor=none;gradientColor=none;strokeColor=none;spacingTop=-3;spacingBottom=-3;spacingLeft=-3;spacingRight=-3;points=[];labelBackgroundColor=none;rounded=0;html=1;whiteSpace=wrap;" vertex="1" parent="1">
            <mxGeometry x="2144" y="124" width="84.4" height="118" as="geometry" />
          </mxCell>
        </UserObject>
        <mxCell id="JCDnAdbY1yPkoRfCkcH7-144" style="vsdxID=1162;fillColor=none;gradientColor=none;shape=stencil(jZLRDoMgDEW/hlcDbTazZ+f+Y5k4yZwY1E3/fpJqhC4mvrVw4N4LFZh11b3VAmTXO/vSX1P0lcCrADBNpZ3p50pgLjArrdNPZ4emoL69e9JXb/vxN4x07iT9EZATtdTdiHwMjlBFm2manNWCq5CXI1Cr5HrdsgCQ4GVhkDMYWdgR3fDABcSyoTHuZEQWlNnYkQ2MT9zJKsuyhsYwJg4lZTnDp/t/zSn2sJcyEqxNc/Dn52IbmNLUNc1buM8HbF6i4cT8Bw==);strokeColor=#0078d7;strokeWidth=2;spacingTop=-3;spacingBottom=-3;spacingLeft=-3;spacingRight=-3;points=[];labelBackgroundColor=none;rounded=0;html=1;whiteSpace=wrap;" vertex="1" parent="JCDnAdbY1yPkoRfCkcH7-143">
          <mxGeometry width="32.60909090909091" height="45.590909090909086" as="geometry" />
        </mxCell>
        <mxCell id="JCDnAdbY1yPkoRfCkcH7-145" style="vsdxID=1163;fillColor=none;gradientColor=none;shape=stencil(jZJBDoMgEEVPw9YAk9Z0be09TMVKasWgtnj7SkYjjDFxNwMP/v8wDLK+LjrFJO8Ha97qp8uhZnBnUuq2VlYPc8UgZ5BVxqqXNWNbYt8VnvTVx3z9DQ7PXbg/IvmELXYPJJ+jRVTgZpomV7HgIuS5k9gKvl63LEiZwG1hgDIQWTgQ3fC9i1U2NEadOCBBiY0D2cD4RJ2ssiRraAxi4lRSkjN8uv1rTrGHo5SRYKPbkz8/F9vAVLppcN7CfTpg8xIOJ+R/);strokeColor=#0078d7;strokeWidth=2;spacingTop=-3;spacingBottom=-3;spacingLeft=-3;spacingRight=-3;points=[];labelBackgroundColor=none;rounded=0;html=1;whiteSpace=wrap;" vertex="1" parent="JCDnAdbY1yPkoRfCkcH7-143">
          <mxGeometry x="28.772727272727273" y="45.590909090909086" width="21.1" height="29.5" as="geometry" />
        </mxCell>
        <mxCell id="JCDnAdbY1yPkoRfCkcH7-146" style="vsdxID=1164;fillColor=none;gradientColor=none;shape=stencil(jZJBDoMgEEVPw9YAk9Z0be09TMVKasWgtnj7SkYjjDFxNwMP/v8wDLK+LjrFJO8Ha97qp8uhZnBnUuq2VlYPc8UgZ5BVxqqXNWNbYt8VnvTVx3z9DQ7PXbg/IvmELXYPJJ+jRVTgZpomV7HgIuS5k9gKvl63LEiZwG1hgDIQWTgQ3fC9i1U2NEadOCBBiY0D2cD4RJ2ssiRraAxi4lRSkjN8uv1rTrGHo5SRYKPbkz8/F9vAVLppcN7CfTpg8xIOJ+R/);strokeColor=#0078d7;strokeWidth=2;spacingTop=-3;spacingBottom=-3;spacingLeft=-3;spacingRight=-3;points=[];labelBackgroundColor=none;rounded=0;html=1;whiteSpace=wrap;" vertex="1" parent="JCDnAdbY1yPkoRfCkcH7-143">
          <mxGeometry x="28.772727272727273" y="88.5" width="21.1" height="29.5" as="geometry" />
        </mxCell>
        <mxCell id="JCDnAdbY1yPkoRfCkcH7-147" style="vsdxID=1165;fillColor=none;gradientColor=none;shape=stencil(jZJBDoMgEEVPw9YAk9Z0be09TMVKasWgtnj7SkYjjDFxNwMP/v8wDLK+LjrFJO8Ha97qp8uhZnBnUuq2VlYPc8UgZ5BVxqqXNWNbYt8VnvTVx3z9DQ7PXbg/IvmELXYPJJ+jRVTgZpomV7HgIuS5k9gKvl63LEiZwG1hgDIQWTgQ3fC9i1U2NEadOCBBiY0D2cD4RJ2ssiRraAxi4lRSkjN8uv1rTrGHo5SRYKPbkz8/F9vAVLppcN7CfTpg8xIOJ+R/);strokeColor=#0078d7;strokeWidth=2;spacingTop=-3;spacingBottom=-3;spacingLeft=-3;spacingRight=-3;points=[];labelBackgroundColor=none;rounded=0;html=1;whiteSpace=wrap;" vertex="1" parent="JCDnAdbY1yPkoRfCkcH7-143">
          <mxGeometry x="63.300000000000004" y="88.5" width="21.1" height="29.5" as="geometry" />
        </mxCell>
        <mxCell id="JCDnAdbY1yPkoRfCkcH7-148" style="vsdxID=1166;fillColor=none;gradientColor=none;shape=stencil(bY9LDoMwDERP4y0KNlTqmtJ7IBEaq2mCQujn9k1kVQ2I3Yz9xvIAdYsZZg2olhj8Xb94jAboAojsjA4ckwLqgbrJB30LfnWj+HnIZFYP/8wX3pKrlcoZVB/x4q6CWnYFSlidzhv4Fz7Et3fbumqbEk7i/9PE1kqlcr/vkEbSn/ov);strokeColor=#0078d7;strokeWidth=2;spacingTop=-3;spacingBottom=-3;spacingLeft=-3;spacingRight=-3;points=[];labelBackgroundColor=none;rounded=0;html=1;whiteSpace=wrap;" vertex="1" parent="JCDnAdbY1yPkoRfCkcH7-143">
          <mxGeometry x="34.52727272727273" y="56.31818181818181" width="7.672727272727273" height="5.363636363636363" as="geometry" />
        </mxCell>
        <mxCell id="JCDnAdbY1yPkoRfCkcH7-149" style="vsdxID=1167;fillColor=none;gradientColor=none;shape=stencil(jZJBDoMgEEVPw9YAk9Z0be09TMVKasWgtnj7SkYjjDFxNwMP/v8wDLK+LjrFJO8Ha97qp8uhZnBnUuq2VlYPc8UgZ5BVxqqXNWNbYt8VnvTVx3z9DQ7PXbg/IvmELXYPJJ+jRVTgZpomV7HgIuS5k9gKvl63LEiZwG1hgDIQWTgQ3fC9i1U2NEadOCBBiY0D2cD4RJ2ssiRraAxi4lRSkjN8uv1rTrGHo5SRYKPbkz8/F9vAVLppcN7CfTpg8xIOJ+R/);strokeColor=#0078d7;strokeWidth=2;spacingTop=-3;spacingBottom=-3;spacingLeft=-3;spacingRight=-3;points=[];labelBackgroundColor=none;rounded=0;html=1;whiteSpace=wrap;" vertex="1" parent="JCDnAdbY1yPkoRfCkcH7-143">
          <mxGeometry x="63.300000000000004" y="45.590909090909086" width="21.1" height="29.5" as="geometry" />
        </mxCell>
        <mxCell id="JCDnAdbY1yPkoRfCkcH7-150" style="vsdxID=1168;fillColor=none;gradientColor=none;shape=stencil(bY9LDoMwDERP4y0KNlTqmtJ7IBEaq2mCQujn9k1kVQ2I3Yz9xvIAdYsZZg2olhj8Xb94jAboAojsjA4ckwLqgbrJB30LfnWj+HnIZFYP/8wX3pKrlcoZVB/x4q6CWnYFSlidzhv4Fz7Et3fbumqbEk7i/9PE1kqlcr/vkEbSn/ov);strokeColor=#0078d7;strokeWidth=2;spacingTop=-3;spacingBottom=-3;spacingLeft=-3;spacingRight=-3;points=[];labelBackgroundColor=none;rounded=0;html=1;whiteSpace=wrap;" vertex="1" parent="JCDnAdbY1yPkoRfCkcH7-143">
          <mxGeometry x="69.05454545454546" y="56.31818181818181" width="7.672727272727273" height="5.363636363636363" as="geometry" />
        </mxCell>
        <mxCell id="JCDnAdbY1yPkoRfCkcH7-151" style="vsdxID=1169;fillColor=none;gradientColor=none;shape=stencil(lZLRbsIwDEW/Jq9WbCeQPDP2HwjKGq1rUSij+/u1c4Aawaa92c61feRcw6tjvTlUhuyxz917dU67vjb8YohSW1c59WNkeG14te9y9Za7U7uT/LCZlFP00X1OEwbps1MH2S/J0AHGn8qriLenLGrU8pJ64KVUBioTECIVEamegSUlBBuKopQcLOdLm9TOCCOCU5DOQsDfINHeYToPxJozRohec3oPbqFZx91MmtVHCPycllCxxuuFnrEiBKdpr/iDPuCFMzpYsOa0mjH4y9CHjH/8+b/EY3Cz1j41jThz/n5vxbEkNub1Nw==);strokeColor=#0078d7;strokeWidth=2;spacingTop=-3;spacingBottom=-3;spacingLeft=-3;spacingRight=-3;points=[];labelBackgroundColor=none;rounded=0;html=1;whiteSpace=wrap;" vertex="1" parent="JCDnAdbY1yPkoRfCkcH7-143">
          <mxGeometry x="9.590909090909092" y="10.727272727272727" width="13.427272727272728" height="21.454545454545453" as="geometry" />
        </mxCell>
        <mxCell id="JCDnAdbY1yPkoRfCkcH7-152" style="vsdxID=1170;fillColor=none;gradientColor=none;shape=stencil(dZBBDoMgFERPw5YgP1a6tvYepmIhpWAQrdy+kk9abexuZnjzQ4ZAPap2kISzMXj3kC/dBUXgQjjXVkmvw6oINATq3nl5926yHfqhTWRSTzenCwv2WGpwFrfuiqDR9i94ErQQW/g2eTxb7PFsRUmrEqOFYwRnWvFM5ahgubZArlU0tyLskcM/fvrxEF7Fd4ZeG4Mrbt9/Z1sjnByaNw==);strokeColor=#0078d7;strokeWidth=2;spacingTop=-3;spacingBottom=-3;spacingLeft=-3;spacingRight=-3;points=[];labelBackgroundColor=none;rounded=0;html=1;whiteSpace=wrap;" vertex="1" parent="JCDnAdbY1yPkoRfCkcH7-143">
          <mxGeometry x="13.427272727272728" y="45.590909090909086" width="13.427272727272728" height="56.31818181818181" as="geometry" />
        </mxCell>
        <mxCell id="JCDnAdbY1yPkoRfCkcH7-153" style="vsdxID=1171;fillColor=#0078d7;gradientColor=none;shape=stencil(pZTdbsMgDIWfhlsLMIxw3Z/3qNZ0QUuTiqZb+/ZLBlUwW5NGvYPD59g+jsxwda52p5JJfu58+1l+u31XMVwzKV1Tld51/YnhhuHq0Pryw7eXZh/up91ADqdj+zV84RriCgtWD1GS34IiOP+9bwP+fvGBF+HZarjzggbwq8yEWxQsgjaRwZyJQqHhTU0lHiOiYAwYQTMnxUXFCJAFTZ22jDkVk9euWWLSQpyOgBN00vzMAa1BInUABaCiFozzuXfLgQtqwGQ/Kf/Ar7xQJUEpWmw6iViZ5CBorWgBsz8lgfAfi2ipE14+DdLp/G3+tdnP4TO/4hOzmAtYOOsM7w/jLjm4ug6rKH3Pd08vhb2Fmx8=);strokeColor=none;spacingTop=-3;spacingBottom=-3;spacingLeft=-3;spacingRight=-3;points=[];labelBackgroundColor=none;rounded=0;html=1;whiteSpace=wrap;" vertex="1" parent="JCDnAdbY1yPkoRfCkcH7-143">
          <mxGeometry x="11.50909090909091" y="45.590909090909086" width="17.263636363636365" height="16.09090909090909" as="geometry" />
        </mxCell>
        <mxCell id="JCDnAdbY1yPkoRfCkcH7-154" style="vsdxID=1172;fillColor=none;gradientColor=none;shape=stencil(dU9bDoAgDDvN/pEdwcc9TEBZRCCIr9sLWYzGxL92bbcOsF5MHzRIsaToJ72TSgawASnJGR0pZQTYAtaDj3qMfnWKeeiLs6DZb2XDwTlRElKczCrBvGOrJfey3uKPOYPnyEDWcse3/i2VR/wQthc=);strokeColor=#0078d7;strokeWidth=2;spacingTop=-3;spacingBottom=-3;spacingLeft=-3;spacingRight=-3;points=[];labelBackgroundColor=none;rounded=0;html=1;whiteSpace=wrap;" vertex="1" parent="JCDnAdbY1yPkoRfCkcH7-143">
          <mxGeometry x="51.79090909090909" y="61.68181818181818" width="9.590909090909092" height="2.6818181818181817" as="geometry" />
        </mxCell>
        <mxCell id="JCDnAdbY1yPkoRfCkcH7-155" style="vsdxID=1173;fillColor=none;gradientColor=none;shape=stencil(jZJNDoMgEIVPw9YAU2u6tvYepmIltWLwp3r7SkYjTGPibgY+eO/BMEi7Km8Vk7zrrXmrry76isGdSambSlndLxWDjEFaGqte1gxNgX2bO9JVHzO6GyY8F3N3RPIZW+weSD4Hi6jAzSSJ4tuKC5/nk8RW8O26dUHK6CJWBigDgYUD0R3fXVwhlPWNUScTkKDExoGsZ3ymTjZZktU3BiFxKinJ6T/d/2vOoYejlIFgrZuTP78U+8CUuq5x3vx9OmDLEg4nZD8=);strokeColor=#0078d7;spacingTop=-3;spacingBottom=-3;spacingLeft=-3;spacingRight=-3;points=[];labelBackgroundColor=none;rounded=0;html=1;whiteSpace=wrap;" vertex="1" parent="JCDnAdbY1yPkoRfCkcH7-143">
          <mxGeometry x="34.52727272727273" y="99.22727272727272" width="1.9181818181818182" height="2.6818181818181817" as="geometry" />
        </mxCell>
        <mxCell id="JCDnAdbY1yPkoRfCkcH7-156" style="vsdxID=1174;fillColor=none;gradientColor=none;shape=stencil(jZJNDoMgEIVPw9YAU2u6tvYepmIltWLwp3r7SkYjTGPibgY+eO/BMEi7Km8Vk7zrrXmrry76isGdSambSlndLxWDjEFaGqte1gxNgX2bO9JVHzO6GyY8F3N3RPIZW+weSD4Hi6jAzSSJ4tuKC5/nk8RW8O26dUHK6CJWBigDgYUD0R3fXVwhlPWNUScTkKDExoGsZ3ymTjZZktU3BiFxKinJ6T/d/2vOoYejlIFgrZuTP78U+8CUuq5x3vx9OmDLEg4nZD8=);strokeColor=#0078d7;spacingTop=-3;spacingBottom=-3;spacingLeft=-3;spacingRight=-3;points=[];labelBackgroundColor=none;rounded=0;html=1;whiteSpace=wrap;" vertex="1" parent="JCDnAdbY1yPkoRfCkcH7-143">
          <mxGeometry x="42.2" y="99.22727272727272" width="1.9181818181818182" height="2.6818181818181817" as="geometry" />
        </mxCell>
        <mxCell id="JCDnAdbY1yPkoRfCkcH7-157" style="vsdxID=1175;fillColor=none;gradientColor=none;shape=stencil(XY9ZDoAgDERP03+kR1C8h4kojQgGcbu9kGpc/mbaN10Ay9k0kwYp5hj8oDdqowGsQEpyRgeKSQEqwLLzQffBL65lPzWZzGr0a56wc64QImekONizqxm15F7oF7yDF5rEs6Ija/nCd/9/UirxO6hO);strokeColor=#0078d7;strokeWidth=2;spacingTop=-3;spacingBottom=-3;spacingLeft=-3;spacingRight=-3;points=[];labelBackgroundColor=none;rounded=0;html=1;whiteSpace=wrap;" vertex="1" parent="JCDnAdbY1yPkoRfCkcH7-143">
          <mxGeometry x="59.46363636363636" y="101.9090909090909" as="geometry" />
        </mxCell>
        <UserObject label="&lt;div style=&quot;font-size: 1px&quot;&gt;&lt;font style=&quot;font-size:15.52px;font-family:Segoe UI;color:#000000;direction:ltr;letter-spacing:0px;line-height:120%;opacity:1&quot;&gt;GitHub &lt;br/&gt;Actions&lt;br/&gt;&lt;/font&gt;&lt;/div&gt;" tags="Background" id="JCDnAdbY1yPkoRfCkcH7-158">
          <mxCell style="verticalAlign=middle;align=center;vsdxID=1176;fillColor=none;gradientColor=none;shape=stencil(nZBLDoAgDERP0z3SIyjew0SURgSD+Lu9kMZoXLhwN9O+tukAlrNpJg1SzDH4QW/URgNYgZTkjA4UkwJUgGXng+6DX1zLfmoymdXo17xh5zmRJ6Q42BWCfc2oJfdAr+Yv+AP9Cb7OJ3H/2JG1HNGz/84klThPVCc=);strokeColor=none;points=[];labelBackgroundColor=none;rounded=0;html=1;whiteSpace=wrap;" vertex="1" parent="1">
            <mxGeometry x="2160.7999999999997" y="270" width="66" height="42" as="geometry" />
          </mxCell>
        </UserObject>
        <UserObject label="&lt;div style=&quot;font-size: 1px&quot;&gt;&lt;font style=&quot;font-size:15.52px;font-family:Segoe UI;color:#000000;direction:ltr;letter-spacing:0px;line-height:120%;opacity:1&quot;&gt;Single-page web application&lt;/font&gt;&lt;font style=&quot;font-size:15.52px;font-family:Segoe UI;color:#000000;direction:ltr;letter-spacing:0px;line-height:120%;opacity:1&quot;&gt;&lt;br/&gt;&lt;/font&gt;&lt;/div&gt;" tags="Background" id="JCDnAdbY1yPkoRfCkcH7-162">
          <mxCell style="verticalAlign=middle;align=center;vsdxID=1178;fillColor=none;gradientColor=none;shape=stencil(nZBLDoAgDERP0z3SIyjew0SURgSD+Lu9kMZoXLhwN9O+tukAlrNpJg1SzDH4QW/URgNYgZTkjA4UkwJUgGXng+6DX1zLfmoymdXo17xh5zmRJ6Q42BWCfc2oJfdAr+Yv+AP9Cb7OJ3H/2JG1HNGz/84klThPVCc=);strokeColor=none;points=[];labelBackgroundColor=none;rounded=0;html=1;whiteSpace=wrap;" vertex="1" parent="1">
            <mxGeometry x="1177" y="74" width="146" height="40" as="geometry" />
          </mxCell>
        </UserObject>
        <mxCell id="JCDnAdbY1yPkoRfCkcH7-283" style="edgeStyle=orthogonalEdgeStyle;rounded=0;orthogonalLoop=1;jettySize=auto;html=1;dashed=1;dashPattern=1 1;fontSize=12;startArrow=none;startFill=0;endArrow=none;endFill=0;entryX=0.28;entryY=1.043;entryDx=0;entryDy=0;entryPerimeter=0;" edge="1" parent="1" target="JCDnAdbY1yPkoRfCkcH7-73">
          <mxGeometry relative="1" as="geometry">
            <mxPoint x="1230" y="190" as="targetPoint" />
            <mxPoint x="1400" y="312" as="sourcePoint" />
            <Array as="points">
              <mxPoint x="1400" y="310" />
              <mxPoint x="1228" y="310" />
            </Array>
          </mxGeometry>
        </mxCell>
        <UserObject label="&lt;div style=&quot;font-size: 1px&quot;&gt;&lt;font style=&quot;font-size:12.7px;font-family:Segoe UI;color:#000000;direction:ltr;letter-spacing:0px;line-height:120%;opacity:1&quot;&gt;HTTP GET&lt;br/&gt;&lt;/font&gt;&lt;font style=&quot;font-size:12.7px;font-family:Segoe UI;color:#000000;direction:ltr;letter-spacing:0px;line-height:120%;opacity:1&quot;&gt;(AJAX request)&lt;br/&gt;&lt;/font&gt;&lt;/div&gt;" tags="Background" id="JCDnAdbY1yPkoRfCkcH7-164">
          <mxCell style="verticalAlign=middle;align=center;vsdxID=1180;fillColor=none;gradientColor=none;shape=stencil(nZBLDoAgDERP0z3SIyjew0SURgSD+Lu9kMZoXLhwN9O+tukAlrNpJg1SzDH4QW/URgNYgZTkjA4UkwJUgGXng+6DX1zLfmoymdXo17xh5zmRJ6Q42BWCfc2oJfdAr+Yv+AP9Cb7OJ3H/2JG1HNGz/84klThPVCc=);strokeColor=none;points=[];labelBackgroundColor=none;rounded=0;html=1;whiteSpace=wrap;" vertex="1" parent="1">
            <mxGeometry x="1260" y="293" width="92" height="37" as="geometry" />
          </mxCell>
        </UserObject>
        <mxCell id="JCDnAdbY1yPkoRfCkcH7-165" vertex="1" parent="1">
          <mxGeometry x="1539" y="298" as="geometry" />
        </mxCell>
        <mxCell id="JCDnAdbY1yPkoRfCkcH7-167" vertex="1" parent="1">
          <mxGeometry x="1532" y="138" as="geometry" />
        </mxCell>
        <UserObject label="" tags="Flowchart symbols Connector" id="JCDnAdbY1yPkoRfCkcH7-169">
          <mxCell vertex="1" visible="0" parent="1">
            <mxGeometry x="1220" y="710" as="geometry" />
          </mxCell>
        </UserObject>
        <mxCell id="JCDnAdbY1yPkoRfCkcH7-175" value="Terraform IC" style="shape=image;verticalLabelPosition=bottom;verticalAlign=top;imageAspect=0;aspect=fixed;image=data:image/png,iVBORw0KGgoAAAANSUhEUgAAAsgAAALICAYAAABiqwZ2AAAABHNCSVQICAgIfAhkiAAAIABJREFUeF7t3c+OHXd2H/C63T1GPMYAyiaARpTMfoJEm2iyigjLUnsVkSIdIhs3n2CoJxD5BCM9AcmNQVsaiQtj1PRwIK4SKZvRG5CJSXFpAbGdwFLfm3ulabLJru6+t25V/f6cjzfBVFfV75zPqSAn19+Rmsb/ECBAgAABAgQIECBAgAABAgQIECBAgAABAgQIECBAgAABAgQIECBAgAABAgQIECBAgAABAgQIECBAgAABAgQIECBAgAABAgQIECBAgAABAgQIECBAgAABAgQIECBAgAABAgQIECBAgAABAgQIECBAgAABAgQIECBAgAABAgQIECBAgAABAgQIECBAgAABAgQIECBAgAABAgQIECBAgAABAgQIECBAgAABAgQIECBAgAABAgQIECBAgAABAgQIECBAgAABAgQIECBAgAABAgQIECBAgAABAgQIECBAgAABAgQIECBAgAABAgQIECBAgAABAgQIECBAgAABAgQIECBAgAABAgQIECBAgAABAgQIECBAgAABAgQIECBAgAABAgQIECBAgAABAgQIECBAgAABAgQIECBAgAABAgQIECBAgAABAgQIECBAgAABAgQIECBAgAABAgQIECBAgAABAgQIECBAgAABAgQIECBAgAABAgQIECBAgAABAgQIECBAgAABAgQIECBAgAABAgQIECBAgAABAgQIECBAgAABAgQIECBAgAABAgQIECBAgAABAgQIECBAgAABAgQIECBAgAABAgQIECBAgAABAgQIECBAgAABAgQIECBAgAABAgQIECBAgAABAgQIECBAgAABAgQIECBAgAABAgQIECBAgAABAgQIECBAgAABAgQIECBAgAABAgQIECBAgAABAgQIECBAgAABAgQIECBAgAABAgQIECBAgAABAgQIECBAgAABAgQIECBAgAABAgQIECBAgAABAgQIECBAgAABAgQIECBAgAABAgQIECBAgAABAgQIECBAgAABAgQIECBAgAABAgQIECBAgAABAgQIECBAgAABAgQIECBAgAABAgQIECBAgAABAgQIECBAgAABAgQIECBAgAABAgQIECBAgAABAgQIECBAgAABAgQIECBAgAABAgQIECBAgAABAgQIECBAgAABAgQIECBAgAABAgQIECBAgAABAgQIZCswybayigu7+Pb/vrmxufWPG7PJR7f3Xn5YcataI0CAAAECBAgUJ7BRXMWVFDydTq/uN9MvLuw82q2kJW0QIECAAAECBKoQsCAnHONsNju7MWtuXNp5/OC9v/jm3YSlOJoAAQIECBAgQOAPAhbkDD6FxaI8mU4/my/KNy7vPDmbQUlKIECAAAECBAiEFbAgZzT6+aK8+/1s/8Ff/sU3v7IoZzQYpRAgQIAAAQKhBCzIGY5bPjnDoSiJAAECBAgQCCNgQc501Ifzyf6LfJkOSVkECBAgQIBAlQIW5MzHemhRlk/OfFbKI0CAAAECBOoQsCAXMseDfLL/Il8hA1MmAQIECBAgUKyABbmw0S0WZf/85MKGplwCBAgQIECgKAELclHj+rFY+eQCh6ZkAgQIECBAoBgBC3IxozpaqHzyURNXCBAgQIAAAQLrCliQ1xXM4Hn55AyGoAQCBAgQIECgGgELcjWjbBr55IqGqRUCBAgQIEAgmYAFORn9MAfLJw/j6q0ECBAgQIBAHAELcqWzlk+udLDaIkCAAAECBAYXsCAPTpz2APnktP5OJ0CAAAECBMoTsCCXN7NOFcsnd2LzEAECBAgQIBBQwIIcaOjyyYGGrVUCBAgQIECgs4AFuTNduQ/KJ5c7O5UTIECAAAECwwtYkIc3zvYE+eRsR6MwAgQIECBAIKGABTkhfi5HyyfnMgl1ECBAgAABAjkIWJBzmEIGNcgnZzAEJRAgQIAAAQJZCFiQsxhDPkXIJ+czC5UQIECAAAECaQQsyGncsz9VPjn7ESmQAAECBAgQGEjAgjwQbC2vlU+uZZL6IECAAAECBJYVsCAvKxX4PvnkwMPXOgECBAgQCChgQQ449K4tyyd3lfMcAQIECBAgUJKABbmkaWVSq3xyJoNQBgECBAgQIDCIgAV5ENYYL5VPjjFnXRIgQIAAgWgCFuRoE++5X/nknkG9jgABAgQIEEguYEFOPoI6CpBPrmOOuiBAgAABAgSaxoLsK+hVQD65V04vI0CAAAECBBIIWJAToEc4Uj45wpT1SIAAAQIE6hSwINc51yy6kk/OYgyKIECAAAECBFYUsCCvCOb21QXkk1c38wQBAgQIECCQTsCCnM4+3MnyyeFGrmECBAgQIFCkgAW5yLGVXbR8ctnzUz0BAgQIEKhdwIJc+4Qz7U8+OdPBKIsAAQIECBDwj3nzDaQVeLoov/P4s8s7T86mrcbpBAgQIECAAAH/HGTfQCYCs2b27vez/QeXdh7fsChnMhRlECBAgACBoAIiFkEHn2vbB/nki+88upprjeoiQIAAAQIE6hawINc93yK7W8Qu5oX/av5r8oMLO492i2xC0QQIECBAgECxAhbkYkdXf+HyyfXPWIcECBAgQCBHAQtyjlNR03MC8sk+CAIECBAgQGBMAQvymNrOWktAPnktPg8TIECAAAECSwpYkJeEclseAvLJecxBFQQIECBAoGYBC3LN0624N/nkioerNQIECBAgkFjAgpx4AI5fT0A+eT0/TxMgQIAAAQJHBSzIR01cKVBAPrnAoSmZAAECBAhkKmBBznQwylpdQD55dTNPECBAgAABAkcFLMhHTVwpXEA+ufABKp8AAQIECCQWsCAnHoDjhxOQTx7O1psJECBAgEDNAhbkmqertx8E5JN9CAQIECBAgMAqAhbkVbTcW6yAfHKxo1M4AQIECBAYXcCCPDq5A1MKyCen1Hc2AQIECBAoQ8CCXMacVNmzgHxyz6BeR4AAAQIEKhKwIFc0TK2sLiCfvLqZJwgQIECAQO0CFuTaJ6y/UwXkk08lcgMBAgQIEAglYEEONW7NniQgn3ySjr8RIECAAIE4AhbkOLPW6ZIC8slLQrmNAAECBAhUKmBBrnSw2lpfQD55fUNvIECAAAECJQpYkEucmppHE5BPHo3aQQQIECBAIBsBC3I2o1BIzgLyyTlPR20ECBAgQKBfAQtyv57eVrmAfHLlA9YeAQIECBCYC1iQfQYEOgjIJ3dA8wgBAgQIEChEwIJcyKCUmZ+AfHJ+M1ERAQIECBDoQ8CC3Ieid4QWkE8OPX7NEyBAgECFAhbkCoeqpTQC8slp3J1KgAABAgT6FrAg9y3qfeEF5JPDfwIACBAgQKBwAQty4QNUfp4C8sl5zkVVBAgQIEBgGQEL8jJK7iHQUUA+uSOcxwgQIECAQEIBC3JCfEfHEZBPjjNrnRIgQIBA+QIW5PJnqIOCBJ7mk99+8kFBZSuVAAECBAiEErAghxq3ZnMQ+CGfPNm/dmnn8YMLO492c6hJDQQIECBAgMAzAQuyr4FAIoGDfPLFnW++uLzz5GyiMhxLgAABAgQIvCBgQfZJEEgtMJu++f1s/8H8F+UbFuXUw3A+AQIECBBoGguyr4BAJgLyyZkMQhkECBAgEF7Aghz+EwCQk4B8ck7TUAsBAgQIRBWwIEedvL6zFpBPzno8iiNAgACBygUsyJUPWHuFC8gnFz5A5RMgQIBAiQIW5BKnpuZwAvLJ4UauYQIECBBIKGBBTojvaAKrCMgnr6LlXgIECBAg0F3AgtzdzpMEkgjIJydhdygBAgQIBBKwIAcatlYrE5BPrmyg2iFAgACBXAQsyLlMQh0EOgrIJ3eE8xgBAgQIEDhGwIJ8DIzLBEoSkE8uaVpqJUCAAIHcBSzIuU9IfQRWEJBPXgHLrQQIECBA4BgBC/IxMC4TKFpAPrno8SmeAAECBNIKWJDT+judwKAC8smD8no5AQIECFQqYEGudLDaInAgIJ/sWyBAgAABAqsJWJBX83I3gWIF5JOLHZ3CCRAgQGBkAQvyyOCOI5BcQD45+QgUQIAAAQJ5C1iQ856P6ggMJnCQTx7sAC8mQIAAAQKFCliQCx2csgn0IfBDPtn/ECBAgAABAs8JWJB9EAQIECBAgAABAgQOCViQfQ4ECBAgQIAAAQIEDglYkH0OBAgQIECAAAECBA4JWJB9DgQIECBAgAABAgQOCViQfQ4ECBAgQIAAAQIEDglYkH0OBAgQIECAAAECBA4JWJB9DgQIECBAgAABAgQOCViQfQ4ECBAgQIAAAQIEDglYkH0OBAgQIECAAAECBA4JWJB9DgQI9CJwaefxjcs7T8728jIvIUCAAIGnAm/8+We//E9vf/IukvEELMjjWTuJQNUC839t9e5+M/3iws6j3aob1RwBAgRGEvjFWx+/+cZbn34xm04/nM02XxrpWMfMBbYoECBAoC+B+ZJ8dv7/674x/zX5g/1mdv3TvTM3+3q39xAgQCCKwC92Pjs7+352Yzqbvdk0syhtZ9WnBTmrcSiGQB0Chxbl/7zZbFy/vffywzo60wUBAgSGE3jz3c9e+pd/an45/W52db4Y+8V4OOpT3yxicSqRGwgQ6CqwiF18P9t/IJ/cVdBzBAhEEVjkjP/l/8weNLPpNctx+qlbkNPPQAUEqheQT65+xBokQKCjwOGcscW4I+IAj4lYDIDqlQQIHBWQTz5q4goBAnEF5Izznr0FOe/5qI5AdQLyydWNVEMECKwgIGe8AlbCW0UsEuI7mkBkAfnkyNPXO4GYAnLG5czdglzOrFRKoEoB+eQqx6opAgQOCcgZl/c5iFiUNzMVE6hOQD65upFqiACBuYCccbmfgQW53NmpnEB1AvLJ1Y1UQwRCCsgZlz92EYvyZ6gDAtUJyCdXN1INEQgjIGdcx6gtyHXMURcEqhSQT65yrJoiUKWAnHFdYxWxqGueuiFQnYB8cnUj1RCBqgTkjKsa59NmLMh1zlVXBKoTkE+ubqQaIlC0gJxx0eM7tXgRi1OJ3ECAQE4C8sk5TUMtBGIKyBnXP3cLcv0z1iGBKgXkk6scq6YIZC0gZ5z1eHotTsSiV04vI0BgTAH55DG1nUUgroCccbzZW5DjzVzHBKoTkE+ubqQaIpCFgJxxFmNIUoSIRRJ2hxIgMISAfPIQqt5JIKaAnHHMuR90bUGOPX/dE6hSQD65yrFqisAoAnLGozBnf4iIRfYjUiABAl0E5JO7qHmGQFwBOeO4s2/r3ILcpuIaAQLVCMgnVzNKjRAYREDOeBDW4l8qYlH8CDVAgMAyAvLJyyi5h0AsATnjWPNepVsL8ipa7iVAoHiBg3zyxXceXS2+GQ0QINBJQM64E1uoh0QsQo1bswQILAQWsYv5//GrSzuPf7nfzK5/unfmJhkCBOoXkDOuf8Z9dWhB7kvSewgQKE7gaT75ncf/ZXOy8f7tvZcfFteEggkQOFVAzvhUIje8ICBi4ZMgQCC8wKyZvfv9bP/B/BflG5d3npwNDwKAQEUCcsYVDXPEVizII2I7igCBvAXkk/Oej+oIrCIgZ7yKlntfFBCxeFHEfyZAILSAfHLo8Wu+AgE54wqGmEELFuQMhqAEAgTyE5BPzm8mKiJwkoCc8Uk6/raqgIjFqmLuJ0AglIB8cqhxa7ZQATnjQgeXcdkW5IyHozQCBPIRkE/OZxYqIXAgIGfsWxhKQMRiKFnvJUCgOgH55OpGqqFCBeSMCx1cQWVbkAsallIJEMhDQD45jzmoIp6AnHG8mafqWMQilbxzCRAoXkA+ufgRaqAgATnjgoZVQakW5AqGqAUCBNIKyCen9Xd63QKLnPF/fOuz38+m0w/n/6L4l+ruVne5CIhY5DIJdRAgULSAfHLR41N8hgLP54ynGVaopJoFLMg1T1dvBAiMLiCfPDq5AysTeJYznl6rrDXtFCQgYlHQsJRKgEA5AvLJ5cxKpfkIPJ8zzqculcQTsCDHm7mOCRAYUUA+eURsRxUrIGdc7OiqLVzEotrRaowAgVwE5JNzmYQ6chOQM85tIuo5ELAg+xYIECAwkoB88kjQjsleQM44+xGFL1DEIvwnAIAAgbEF5JPHFndeTgJyxjlNQy3HCViQj5NxnQABAgMLyCcPDOz1WQnIGWc1DsWcIiBicQqQPxMgQGBIAfnkIXW9OwcBOeMcpqCGVQUsyKuKuZ8AAQIDCMgnD4DqlUkF5IyT8jt8TQERizUBPU6AAIE+BeST+9T0rlQCcsap5J3bl4AFuS9J7yFAgECPAvLJPWJ61WgCcsajUTtoYAERi4GBvZ4AAQJdBeSTu8p5bmwBOeOxxZ03tIAFeWhh7ydAgMCaAvLJawJ6fDABOePBaL04sYCIReIBOJ4AAQLLCsgnLyvlvjEE5IzHUHZGKgELcip55xIgQKCjgHxyRziP9SIgZ9wLo5dkLiBikfmAlEeAAIE2AfnkNhXXhhSQMx5S17tzE7Ag5zYR9RAgQGAFAfnkFbDc2klAzrgTm4cKFxCxKHyAyidAgMBCQD7ZdzCEgJzxEKreWYKABbmEKamRAAECSwrIJy8J5bYTBeSMT+TxxwACIhYBhqxFAgRiCcgnx5p3n93KGfep6V0lC1iQS56e2gkQIHCCgHzyCTj+9JyAnLEPgsDzAiIWvggCBAhULiCfXPmA12xPznhNQI9XKWBBrnKsmiJAgMBRAfnkoyaRr8gZR56+3k8TELE4TcjfCRAgUJGAfHJFw+zYipxxRziPhRKwIIcat2YJECDwo4B8crwvQc443sx13F1AxKK7nScJECBQvIB8cvEjXKoBOeOlmNxE4KmABdnHQIAAAQLN03zy208+wFGPgJxxPbPUybgCIhbjejuNAAEC2Qr8kE+e7F+7tPN4d7+ZXf9078zNbItV2IkCcsYn8vgjgVMFLMinErmBAAECsQQO8skXd775q61mcuX23ssPYwmU262ccbmzU3leAiIWec1DNQQIEMhHYDZ98/vZ/oP5L8o3Lu88OZtPYSppE5AzblNxjUA3AQtyNzdPESBAIIyAfHLeo5Yzzns+qitTQMSizLmpmgABAqMKyCePyr3UYXLGSzG5iUAnAQtyJzYPESBAIKaAfHL6ucsZp5+BCuoXELGof8Y6JECAQP8C8sn9my7xRjnjJZDcQqAHAQtyD4heQYAAgagC8snjTF7OeBxnpxA4EBCx8C0QIECAwFoC8slr8Z34sJzxiTz+SGAwAQvyYLReTIAAgVgC8sn9zVvOuD9LbyLQRUDEoouaZwgQIEDgeAH55ONtlviLnPESSG4hMLCABXlgYK8nQIBAVAH55NUmv8gZv/Fnnz6YTacfNs3spdWedjcBAn0KiFj0qeldBAgQIPCcgHzy6R/E8znj2ekPuIMAgcEFLMiDEzuAAAECBOSTj34Di5zx//2n5oPpd9OrR//qCgECKQVELFLqO5sAAQLRBOSTf5j4Qc54NrMcR/u/AvotQ8CCXMacVEmAAIGqBKLmk+WMq/qMNVOxgIhFxcPVGgECBHIWiJRPljPO+UtUG4GjAn5BPmoy+JVP/v613a1Jc2XSTB4OfpgDCBAgkLnAD/nkWXPj4s43X1zeeXI283JXKm+RM37jrc9+Nc8ZP5j3+eZKD7uZAIFkAhbkRPS3987c3JxsnJttNB8lKsGxBAgQyEugsnyynHFen5dqCKwiYEFeRavne2/vvfzw15+fubo12dxuJtNbPb/e6wgQIFCkQOn5ZDnjIj87RRN4TsCCnMEHsViUP9l7bXdjY+O82EUGA1ECAQLJBQ7lkx9c2Hm0m7ygJQpY5IzfeOvTL6azjS9mzezsEo+4hQCBTAUsyBkN5m8///mdj+++si2fnNFQlEKAQFKBEvLJcsZJPxGHExhEwII8COt6L5VPXs/P0wQIVCiQaT5ZzrjCb01LBOYCFuRMPwP55EwHoywCBJIK5JJPljNO+hk4nMDgAhbkwYnXO0A+eT0/TxMgUJ9AynyynHF935OOCLQJWJDbVDK8Jp+c4VCURIBAUoEx88lyxklH7XACowtYkEcnX+9A+eT1/DxNgECFAgPnk+WMK/xmtETgFAEL8ilAOf5ZPjnHqaiJAIHUAk/zye88utpHLT/EKf7s0wez6fTDppm91Mc7vYMAgTIELMhlzKm1SvnkVhYXCRAILLCIXcz/efL/vheC/e/e9M8z7kXSSwgUJ2BBLm5kRwuWTz5q4goBAgQIECBAoKuABbmrXIbPySdnOBQlESBAgAABAsUJWJCLG9nJBcsnn+zjrwQIECBAgACB0wQsyKcJFfp3+eRCB6dsAgQIECBAILmABTn5CIYtQD55WF9vJ0CAAAECBOoTsCDXN9PWjuSTW1lcJECAAAECBAgcEbAgHyGp94J8cr2z1RkBAgQIECDQn4AFuT/LYt50kE/e+sns3PyfF/qwmMIVSoAAAQIECBAYQcCCPAJyrkfc/rtX739895XtrUlzxaKc65TURYAAAQIECIwtYEEeWzzD8w7yyVubs+sZlqckAgQIECBAgMCoAhbkUbnzPWwRu7j9m1evbU02t5vJ9Fa+laqMAAECBAgQIDCsgAV5WN/i3i6fXNzIFEyAAAECBAj0LGBB7hm0ltfJJ9cySX0QIECAAAECqwpYkFcVC3a/fHKwgWuXAAECBAgQaCzIPoJTBeSTTyVyAwECBAgQIFCRgAW5omEO3Yp88tDC3k+AAAECBAjkIGBBzmEKhdUgn1zYwJRLgAABAgQIrCRgQV6Jy82HBeSTfQ8ECBAgQIBAjQIW5BqnOmJP8skjYjuKAAECBAgQGEXAgjwKc/2HyCfXP2MdEiBAgACBKAIW5CiTHqlP+eSRoB1DgAABAgQIDCZgQR6MNvaL5ZNjz1/3BAgQIECgZAELcsnTy7x2+eTMB6Q8AgQIECBAoFXAgtzK4mKfAvLJfWp6FwECBAgQIDC0gAV5aGHvfyogn+xjIECAAAECBEoQsCCXMKXKapRPrmyg2iFAgAABApUJWJArG2gp7cgnlzIpdRIgQIAAgXgCFuR4M8+qY/nkrMahGAIECBAgQGAuYEH2GWQhIJ+cxRgUQYAAAQIECMwFLMg+g6wE5JOzGodiCBAgQIBASAELcsix5920fHLe81EdAQIECBCoXcCCXPuEC+5PPrng4SmdAAECBAgULGBBLnh4UUqXT44yaX0SIECAAIE8BCzIecxBFUsIyCcvgeQWAgQIECBAYG0BC/LahF4wpoB88pjaziJAgAABAjEFLMgx51581/LJxY9QAwQIECBAIFsBC3K2o1HYMgLyycsouYcAAQIECBBYRcCCvIqWe7MVkE/OdjQKI0CAAAECxQlYkIsbmYKPE5BPPk7GdQIECBAgQGAVAQvyKlruLUJAPrmIMSmSAAECBAhkK2BBznY0CltXQD55XUHPEyBAgACBmAIW5JhzD9W1fHKocWuWAAECBAisLWBBXpvQC0oQkE8uYUpqJECAAAECeQhYkPOYgypGEpBPHgnaMQQIECBAoGABC3LBw1N6dwH55O52niRAgAABArULWJBrn7D+ThSQTz6Rxx8JECBAgEBIAQtyyLFr+rCAfLLvgQABAgQIEDgsYEH2PRD4g4B8sk+BAAECBAgQWAhYkH0HBF4QkE/2SRAgQIAAgdgCFuTY89f9CQLyySfg+BMBAgQIEKhYwIJc8XC1tr6AfPL6ht5AgAABAgRKE7AglzYx9SYRkE9Owu5QAgQIECCQRMCCnITdoaUKyCeXOjl1EyBAgACB5QUsyMtbuZPAUwH5ZB8DAQIECBCoV8CCXO9sdTawgHzywMBeT4AAAQIEEglYkBPBO7YeAfnkemapEwIECBAgsBCwIPsOCPQkIJ/cE6TXECBAgACBxAIW5MQDcHx9AvLJ9c1URwQIECAQS8CCHGveuh1JQD55JGjHECBAgACBAQQsyAOgeiWBAwH5ZN8CAQIECBAoT8CCXN7MVFyggHxygUNTMgECBAiEFbAghx29xlMIyCenUHcmAQIECBBYTcCCvJqXuwmsLSCfvDahFxAgQIAAgUEFLMiD8no5geMF5JOPt/EXAgQIECCQUsCCnFLf2QTmAvLJPgMCBAgQIJCXgAU5r3moJrDAIp/8J3/809e3NmfXAzNonQABAgQIJBewICcfgQIIPBO4eefffnv7N69e25psbjeT6S02BAgQIECAwPgCFuTxzZ1I4FSBg3zyH02/e33STB6e+oAbCBAgQIAAgd4ELMi9UXoRgf4F/vq3219/fPeV7a1Jc8Wi3L+vNxIgQIAAgTYBC3KbimsEMhOQT85sIMohQIAAgaoFLMhVj1dzNQnIJ9c0Tb0QIECAQM4CFuScp6M2Ai0C8sktKC4RIECAAIEeBSzIPWJ6FYExBeSTx9R2FgECBAhEErAgR5q2XqsUkE+ucqyaIkCAAIGEAhbkhPiOJtCXgHxyX5LeQ4AAAQIEmsaC7CsgUJGAfHJFw9QKAQIECCQTsCAno3cwgeEE5JOHs/VmAgQIEKhfwIJc/4x1GFhAPjnw8LVOgAABAp0FLMid6TxIoAwB+eQy5qRKAgQIEMhHwIKczyxUQmBQAfnkQXm9nAABAgQqErAgVzRMrRBYRkA+eRkl9xAgQIBAZAELcuTp6z20wEE+OTSC5gkQIECAQIuABbkFxSUCUQQW+eQoveqTAAECBAgsK2BBXlbKfQQIECBAgAABAiEELMghxqxJAgQIECBAgACBZQUsyMtKuY8AAQIECBAgQCCEgAU5xJg1SYAAAQIECBAgsKyABXlZKfcRIECAAAECBAiEELAghxizJgkQIECAAAECBJYVsCAvK+U+AgQIECBAgACBEAIW5BBj1iQBAgQIECBAgMCyAhbkZaXcR4AAAQIECBAgEELAghxizJokMLzAZrP//qSZPBz+JCcQIEAglsCkaW7+mz9p7sTqOm23FuS0/k4nUI3A39z90w83Jxvnmsn0VjVNaYQAAQIJBSaTyf3TiuSqAAAfGklEQVSNyfTcV79778r9O+e/TVhKuKMtyOFGrmECwwnc3nv54Sd7r+1uTTa3LcrDOXszAQJ1Cyz+t3Gbm7PzX927cO7Le5fu191tnt1ZkPOci6oIFC3wbFFurohdFD1KxRMgMKrA5NuNSXP9j382ef1//P1FkYpR7Z8/bCvh2Y4mQKBygdt7Z27OW7x5eefR7v5s8sGsmZ2tvGXtESBAoJPAImc8X4zfv3/ngihFJ8F+H/ILcr+e3kaAQIvAYlGWT26BcYkAgfACcsZ5fgIW5DznoioC1QnIJ1c3Ug0RILCGgJzxGngjPGpBHgHZEQQIPBOQT/Y1ECAQW0DOuIT5yyCXMCU1EqhQQD65wqFqiQCBEwXkjE/kyeqPfkHOahyKIRBPQD453sx1TCCagJxxeRP3C3J5M1MxgeoEFrGLeVO7l3eeXPu++e5aM9v4q+qa1BABAuEEFjnjyWT/in+WcXmj9wtyeTNTMYFqBeSTqx2txggEE3iWM7Yclzl6vyCXOTdVE6haQD656vFqjkDVAvNfjT+a//OMr/nnGZc9Zr8glz0/1ROoWkA+uerxao5AVQLPcsYXrt6/c96/7KPw6foFufABKp9A7QLyybVPWH8EyhaQMy57fsdV7xfk42RcJ0AgKwH55KzGoRgCBBo545o/Ar8g1zxdvRGoUEA+ucKhaolAYQJyxoUNrEO5fkHugOYRAgTSC8gnp5+BCghEE5AzjjNxvyDHmbVOCVQnIJ9c3Ug1RCBLATnjLMcyaFF+QR6U18sJEBhDQD55DGVnEIgoIGccceqLni3IUSevbwI9C8z/LXhne37lyq9bxC4+vvvK9takubL4xWflF3iAAAECfxBY5Ix/+rPJ9pf33pv/M439Y9uifRgW5GgT1y+BgQS+n+0/uPj2kw8Gev1Kr5VPXonLzQQIHBKQM/Y5LAQsyL4DAgT6E5jsX7u08/jBhZ1Hu/29tNubnsUuNrebyfRWt7d4igCBKAKL/63TxmR67qt7F87510NHmfrxfVqQj7fxFwIEOgjMZrOzG7PmxmJR/m9//uA/dHhFr4/IJ/fK6WUEKhSQM65wqGu3ZEFem9ALCBBoE1gsyv+68ZPfzxflG/LJbUKuESCQWkDOOPUE8j3fgpzvbFRGoAqB+aK8e5BP3n33wUupm5JPTj0B5xNILyBnnH4GuVdgQc59QuojUIvAPJ/8z//vj34vn1zLQPVBoDwBOePyZpaqYgtyKnnnEggoIJ8ccOhaJpCFgJxxFmMoqAgLckHDUiqBWgTkk2uZpD4I5C8gZ5z/jHKs0IKc41TURCCIgHxykEFrk0ACATnjBOgVHWlBrmiYWiFQrIB8crGjUziB3ATkjHObSJn1WJDLnJuqCVQnIJ9c3Ug1RGBkATnjkcGrPs6CXPV4NUegPAH55PJmpmICqQXkjFNPoL7zLcj1zVRHBKoQyDWfPNtoPqoCWBMEKhBY5Iy3NvZf/+p3F67ev3P+2wpa0kImAhbkTAahDAIEjhHILJ/868/PXN2abG43k+mtYyp2mQCBgQUO54z/+2//8uuBj/P6gAIW5IBD1zKB0gRyzSdvbGycX/w/1KV5qpdAuQI/5oznvxhvf3nv0v1y+1B57gIW5NwnpD4CBJ4K5JZP/tvPf37n47uvbG9NmisWZR8qgWEFDueMhz3J2wk0jQXZV0CAQHEC8snFjUzBBDoLyBl3pvPgGgIW5DXwPEqAQGIB+eTEA3A8geEE5IyHs/Xm0wUsyKcbuYMAgYwF5JMzHo7SCHQSkDPuxOahXgUsyL1yehkBAqkE5JNTyTuXQH8Ccsb9WXrTegIW5PX8PE2AQGYC8smZDUQ5BJYQkDNeAsktowpYkEfldhgBAqMJyCePRu0gAl0F5Iy7ynluaAEL8tDC3k+AQDIB+eRk9A4mcIqAnPEpQP6cWMCCnHgAjidAYHgB+eThjZ1AYFkBOeNlpdyXUsCCnFLf2QQIjCognzwqt8MIPCcgZ+yDKEnAglzStNRKgEA/AvLJ/Th6C4ElBOSMl0ByS3YCFuTsRqIgAgTGEJBPHkPZGbEF5Ixjz7/s7i3IZc9P9QQIrCkgn7wmoMcJtAjIGbeguFSUgAW5qHEplgCBoQTkk4eS9d5IAnLGkaZdd68W5LrnqzsCBFYVkE9eVcz9BBo5Yx9BbQIW5Nomqh8CBNYWkE9em9ALwgjIGYcZdbBGLcjBBq5dAgSWF5BPXt7KnfEE5IzjzTxSxxbkSNPWKwECnQTkkzuxeahSATnjSgerrecELMg+CAIECCwrIJ+8rJT7KhSQM65wqFo6VsCCfCyNPxAgQOCogHzyURNXaheQM659wvo7KmBBPmriCgECBE4VkE8+lcgNFQjIGVcwRC10ErAgd2LzEAECBH4UkE/2JdQosMgZb/xkY/ur3124ev/O+W9r7FFPBE4SsCCfpONvBAgQWFZAPnlZKfdlLHA4Z/zl3vmHGZeqNAKDCliQB+X1cgIEIgnIJ0eadm29Tr6dTJr3578Yb39579L92rrTD4FVBSzIq4q5nwABAqcIyCefAuTPWQkc5Iy/uvfeh1kVphgCCQUsyAnxHU2AQN0Ch/PJl3eenE3d7e29Mzc3JxvnZhvNR6lrcX56ATnj9DNQQb4CFuR8Z6MyAgRqEZjnk/eb6RcXdh7tpm7p9t7LD3/9+ZmrW5PN7WYyvZW6HuePLyBnPL65E8sTsCCXNzMVEyBQoMDhfPLFnX94M3ULi0X5k73Xdrd+Mju3WJhS1+P8MQTkjMdQdkYdAhbkOuaoCwIEChFYLMrNbPLFpZ3HN7KIXfzdq/c/vvvK9takuWJRLuQj6lCmnHEHNI+EFrAghx6/5gkQSCWQaz55a3N2PZWJc/sXkDPu39QbYwhYkGPMWZcECOQqkFk++fZvXr0mn5zrx7J8XXLGy1u5k0CbgAW5TcU1AgQIjCggnzwidvVHyRlXP2INjiJgQR6F2SEECBA4XUA++XQjdxwvIGd8vI2/EFhVwIK8qpj7CRAgMLCAfPLAwJW9Xs64soFqJwsBC3IWY1AEAQIEWgTkk1tQXDoQkDP2LRAYTsCCPJytNxMgQGBtAfnktQkrfIGccYVD1VJmAhbkzAaiHAIECLQJyCe3qcS7Jmccb+Y6TiNgQU7j7lQCBAh0EpBP7sRW/ENyxsWPUAOFCViQCxuYcgkQIPCDgHxyiA9BzjjEmDWZoYAFOcOhKIkAAQLLCMgnL6NU6j1yxqVOTt11CFiQ65ijLggQCCwgn1zX8OWM65qnbsoUsCCXOTdVEyBA4IiAfPIRkqIuyBkXNS7FVi5gQa58wNojQCCggHxyUUOXMy5qXIoNImBBDjJobRIgEEtAPrmEecsZlzAlNcYUsCDHnLuuCRAIIiCfnOegNybN9Z/+bLL91b33PsyzQlURiC1gQY49f90TIBBEQD45j0Ef5Iy/vPfetft3zn+bR1WqIEDgRQEL8osi/jMBAgRqFpBPTjPdyezrjcn03Ff3Lpz7cu/8wzRFOJUAgWUFLMjLSrmPAAEClQjIJ485yB9zxv/z3sXXv7x36f6YJzuLAIHuAhbk7naeJECAQNEC8snDjk/OeFhfbycwpIAFeUhd7yZAgEABAvLJ/Q5JzrhfT28jkELAgpxC3ZkECBDIUUA+eb2pyBmv5+dpAhkJWJAzGoZSCBAgkFpAPrnLBOSMu6h5hkDOAhbknKejNgIECCQSkE9eDl7OeDkndxEoTcCCXNrE1EuAAIERBeST27HljNtdXCVQi4AFuZZJ6oMAAQJDCsgn/6grZzzkV+bdBLIRsCBnMwqFECBAIG+B2PlkOeO8v07VEehXwILcr6e3ESBAoHqBaPlkOePqP2kNEjgiMDlyxQUCBAh0ELj4zqNZh8c8UoPAbPPa1kZz6/beyw9Tt7P77j++9K///N3Zv/7tv/t63Vp+8dZnbzZbzUP/auh1JT1PoDwBC3J5M1MxgSwFLMhZjmW0oub/pbWH+83s+qd7Z26OdqiDCBAgMJCABXkgWK8lEE3Aghxt4u39LhblWTO98sneq/fb73CVAAEC+QvIIOc/IxUSIECgGIHc8snFwCmUAIGsBPyCnNU4FEOgXAG/IJc7u0ErzyifPGifXk6AQFUCfkGuapyaIUCAQGYCGf3zkzOTUQ4BAhkL+AU54+EojUBJAn5BLmlaaWpd5JOnk8n7v/7853fSVOBUAgQILCfgF+TlnNxFgAABAmsKLPLJk+n0s0s7j29c3nlyds3XeZwAAQKDCfgFeTBaLyYQS8AvyLHm3Ue3GxsbH27MJh/l8M9P7qMf7yBAoB4BvyDXM0udECBAoCiB6XR6db+ZfnFh59FuUYUrlgCB6gX8glz9iDVIYBwBvyCP41zrKfLJtU5WXwTKFPALcplzUzUBAgSqEpBPrmqcmiFQvIBfkIsfoQYI5CHgF+Q85lBLFfLJtUxSHwTKFPALcplzUzUBAgSqFpBPrnq8miOQvYBfkLMfkQIJlCHgF+Qy5lRilfLJJU5NzQTKFvALctnzUz0BAgSqF5BPrn7EGiSQnYBfkLMbiYIIlCngF+Qy51Zi1fLJJU5NzQTKEvALclnzUi0BAgTCC8gnh/8EABAYXMAvyIMTO4BADAG/IMeYc25dyifnNhH1EKhDwC/IdcxRFwQIEAgpIJ8ccuyaJjC4gF+QByd2AIEYAn5BjjHn3LuUT859QuojUIbAVhllqpIAAQIECJwusMgnz5rJS/M7r5x+tzsIECDQLiBi0e7iKgECBAgQIECAQFABC3LQwWubAAECBAgQIECgXcCC3O7iKgECBAgQIECAQFABC3LQwWubAAECBAgQIECgXcCC3O7iKgECBAgQIECAQFABC3LQwWubAAECBAgQIECgXcCC3O7iKgECBAgQIECAQFABC3LQwWubAAECBAgQIECgXcCC3O7iKgECBAgQIECAQFABC3LQwWubAAECBAgQIECgXcCC3O7iKgECBAgQIECAQFABC3LQwWubAAECBAgQIECgXcCC3O7iKgECBAgQIECAQFABC3LQwWubAAECBAgQIECgXcCC3O7iKgECBAgQIECAQFABC3LQwWubAAECBAgQIECgXcCC3O7iKgECBAgQIECAQFABC3LQwWubAAECBAgQIECgXcCC3O7iKgECBAgQIECAQFABC3LQwWubAAECBAgQIECgXcCC3O7iKgECBAgQIECAQFABC3LQwWubAAECBAgQIECgXcCC3O7iKgECBAgQIECAQFABC3LQwWubAAECBAgQIECgXcCC3O7iKgECBAgQIECAQFABC3LQwWubAAECBAgQIECgXcCC3O7iKgECBAgQIECAQFABC3LQwWubAAECBAgQIECgXcCC3O7iKgECBAgQIECAQFABC3LQwWubAAECBAgQIECgXcCC3O7iKgECBAgQIECAQFABC3LQwWubAAECBAgQIECgXcCC3O7iKgECBAgQIECAQFABC3LQwWubAAECBAgQIECgXcCC3O7iKgECBAgQIECAQFABC3LQwWubAAECBAgQIECgXcCC3O7iKgECBAgQIECAQFABC3LQwWubAAECBAgQIECgXcCC3O7iKgECBAgQIECAQFABC3LQwWubAAECBAgQIECgXcCC3O7iKgECBAgQIECAQFABC3LQwWubAAECBAgQIECgXcCC3O7iKgECBAgQIECAQFABC3LQwWubAAECBAgQIECgXcCC3O7iKgECBAgQIECAQFABC3LQwWubAAECBAgQIECgXcCC3O7iKgECBAgQIECAQFABC3LQwWubAAECBAgQIECgXcCC3O7iKgECBAgQIECAQFABC3LQwWubAAECBAgQIECgXcCC3O7iKgECBAgQIECAQFABC3LQwWubAAECBAgQIECgXcCC3O7iKgECBAgQIECAQFABC3LQwWubAAECBAgQIECgXcCC3O7iKgECBAgQIECAQFABC3LQwWubAAECBAgQIECgXcCC3O7iKgECBAgQIECAQFABC3LQwWubAAECBAgQIECgXcCC3O7iKgECBAgQIECAQFABC3LQwWubAAECBAgQIECgXcCC3O7iKgECBAgQIECAQFABC3LQwWubAAECBAgQIECgXcCC3O7iKgECBAgQIECAQFABC3LQwWubAAECBAgQIECgXcCC3O7iKgECBAgQIECAQFABC3LQwWubAAECBAgQIECgXcCC3O7iKgECBAgQIECAQFABC3LQwWubAAECBAgQIECgXcCC3O7iKgECBAgQIECAQFABC3LQwWubAAECBAgQIECgXcCC3O7iKgECBAgQIECAQFABC3LQwWubAAECBAgQIECgXcCC3O7iKgECBAgQIECAQFABC3LQwWubAAECBAgQIECgXcCC3O7iKgECBAgQIECAQFABC3LQwWubAAECBAgQIECgXcCC3O7iKgECBAgQIECAQFABC3LQwWubAAECBAgQIECgXcCC3O7iKgECBAgQIECAQFABC3LQwWubAAECBAgQIECgXcCC3O7iKgECBAgQIECAQFABC3LQwWubAAECBAgQIECgXcCC3O7iKgECBAgQIECAQFABC3LQwWubAAECBAgQIECgXcCC3O7iKgECBAgQIECAQFABC3LQwWubAAECBAgQIECgXcCC3O7iKgECBAgQIECAQFABC3LQwWubAAECBAgQIECgXcCC3O7iKgECBAgQIECAQFABC3LQwWubAAECBAgQIECgXcCC3O7iKgECBAgQIECAQFABC3LQwWubAAECBAgQIECgXcCC3O7iKgECKwpMmsnDFR9xOwECBAgQyFLAgpzlWBRFoDyBj+++sr21ObvezCbflle9igkQIECAwDMBC7KvgQCB3gRu/+bVa1sbG683k+mt3l7qRQQIECBAYGQBC/LI4I4jULvA7b2XH36y99ru1mRzex67+Lr2fvVHgAABAvUJWJDrm6mOCGQhsFiU57GL17cmzRX55CxGoggCBAgQWFLAgrwklNsIEOgmcHvvzE355G52niJAgACBNAIW5DTuTiUQTkA+OdzINUyAAIFiBSzIxY5O4QTKE5BPLm9mKiZAgEBEAQtyxKnrmUBiAfnkxANwPAECBAicKGBBPpHHHwkQGFJAPnlIXe8mQIAAga4CFuSucp4jQKA3Afnk3ii9iAABAgR6ELAg94DoFQQIrC8gn7y+oTcQIECAQD8CFuR+HL2FAIGeBOSTe4L0GgIECBDoLGBB7kznQQIEhhSQTx5S17sJECBA4CQBC/JJOv5GgEByAfnk5CNQAAECBMIJWJDDjVzDBMoTkE8ub2YqJkCAQMkCFuSSp6d2AsEE5JODDVy7BAgQSCRgQU4E71gCBLoLyCd3t/MkAQIECJwuYEE+3cgdBAhkKiCfnOlglEWAAIHCBSzIhQ9Q+QSiC8gnR/8C9E+AAIH+BSzI/Zt6IwECCQTkkxOgO5IAAQKVCliQKx2stghEFZBPjjp5fRMgQKA/AQtyf5beRIBARgLyyRkNQykECBAoTMCCXNjAlEuAwPIC8snLW7mTAAECBJ4JWJB9DQQIVC8gn1z9iDVIgACBXgUsyL1yehkBAjkLyCfnPB21ESBAIB8BC3I+s1AJAQIjCcgnjwTtGAIECBQqYEEudHDKJkBgPYHD+eRm0txf722eJkCAAIGaBCzINU1TLwQIrCzw46J85tzWpLkyaSYPV36BBwgQIECgOgELcnUj1RABAl0EDueTLcpdBD1DgACBegQsyPXMUicECPQgsMgnb042zjWT6a0eXucVBAgQIFCggAW5wKEpmQCBYQXkk4f19XYCBAjkLmBBzn1C6iNAIJmAfHIyegcTIEAgqYAFOSm/wwkQKEFAPrmEKamRAAEC/QlYkPuz9CYCBCoXkE+ufMDaI0CAwB8ELMg+BQIECKwgIJ+8ApZbCRAgUKiABbnQwSmbAIG0AvLJaf2dToAAgSEFLMhD6no3AQLVC8gnVz9iDRIgEFDAghxw6FomQKB/Afnk/k29kQABAqkELMip5J1LgEB1AvLJ1Y1UQwQIBBWwIAcdvLYJEBhOQD55OFtvJkCAwBgCFuQxlJ1BgEBIAfnkkGPXNAECFQhYkCsYohYIEMhbQD457/mojgABAi8KWJBfFPGfCRAgMICAfPIAqF5JgACBgQQsyAPBei0BAgTaBOST21RcI0CAQF4CFuS85qEaAgSCCMgnBxm0NgkQKFLAglzk2BRNgEAtAvLJtUxSHwQI1CRgQa5pmnohQKBIAfnkIsemaAIEKhawIFc8XK0RIFCWgHxyWfNSLQEC9QpYkOudrc4IEChUQD650MEpmwCBagQsyNWMUiMECNQmIJ9c20T1Q4BAKQIW5FImpU4CBEIKyCeHHLumCRBILGBBTjwAxxMgQGAZAfnkZZTcQ4AAgX4ELMj9OHoLAQIERhGQTx6F2SEECAQXsCAH/wC0T4BAmQLyyWXOTdUECJQhYEEuY06qJECAwBEB+eQjJC4QIECgFwELci+MXkKAAIF0AvLJ6eydTIBAnQIW5DrnqisCBAIKyCcHHLqWCRAYRMCCPAirlxIgQCCdgHxyOnsnEyBQh4AFuY456oIAAQLPCcgn+yAIECDQXcCC3N3OkwQIEMheQD45+xEpkACBDAUsyBkORUkECBDoW0A+uW9R7yNAoGYBC3LN09UbAQIEXhCQT/ZJECBA4HQBC/LpRu4gQIBAVQLyyVWNUzMECAwgYEEeANUrCRAgUIKAfHIJU1IjAQIpBCzIKdSdSYAAgYwE5JMzGoZSCBDIQsCCnMUYFEGAAIH0AvLJ6WegAgIE8hCwIOcxB1UQIEAgCwH55CzGoAgCBBILWJATD8DxBAgQyFFAPjnHqaiJAIGxBCzIY0k7hwABAgUKyCcXODQlEyCwtoAFeW1CLyBAgED9AvLJ9c9YhwQIPBOwIPsaCBAgQGApAfnkpZjcRIBABQIW5AqGqAUCBAiMKSCfPKa2swgQSCFgQU6h7kwCBAhUICCfXMEQtUCAQKuABbmVxUUCBAgQWFZAPnlZKfcRIFCKgAW5lEmpkwABAhkLyCdnPBylESCwsoAFeWUyDxAgQIDAcQLyycfJuE6AQEkCFuSSpqVWAgQIFCIgn1zIoJRJgECrgAW5lcVFAgQIEOhDQD65D0XvIEBgbAEL8tjiziNAgEAwAfnkYAPXLoEKBCzIFQxRCwQIEChBQD65hCmpkQCBhYAF2XdAgAABAqMKyCePyu0wAgQ6CFiQO6B5hAABAgTWF5BPXt/QGwgQGEbAgjyMq7cSIECAwBIC8slLILmFAIHRBSzIo5M7kAABAgReFJBPflHEfyZAIKWABTmlvrMJECBA4DkB+WQfBAECOQhYkHOYghoIECBA4DkB+WQfBAECKQUsyCn1nU2AAAECxwrIJx9L4w8ECAwsYEEeGNjrCRAgQGA9Afnk9fw8TYDA6gIW5NXNPEGAAAECCQQO8smbzf77k2byMEEJjiRAIIiABTnIoLVJgACBWgT+5u6ffrg52TjXTKa3aulJHwQI5CVgQc5rHqohQIAAgSUEDueTJ83szhKPuIUAAQJLC1iQl6ZyIwECBAjkJrBYlD++++r5rUlzRewit+mohwABAgQIECBAILnAf33nf129vPMP15IXogACBAgQIECAAAECBAgQIECAAAECBAgQIECAAAECBAgQIECAAAECBAgQIECAAAECBAgQIECAAAECBAgQIECAAAECBAgQIECAAAECBAgQIECAAAECBAgQIECAAAECBAgQIECAAAECBAgQIECAAAECBAgQIECAAAECBAgQIECAAAECBAgQIECAAAECBAgQIECAAAECBAgQIECAAAECBAgQIECAAAECBAgQIECAAAECBAgQIECAAAECBAgQIECAAAECBAgQIECAAAECBAgQIECAAAECBAgQIECAAAECBAgQIECAAAECBAgQIECAAAECBAgQIECAAAECBAgQIECAAAECBAgQIECAAAECBAgQIECAAAECBAgQIECAAAECBAgQIECAAAECBAgQIECAAAECBAgQIECAAAECBAgQIECAAAECBAgQIECAAAECBAgQIECAAAECBAgQIECAAAECBAgQIECAAAECBAgQIECAAAECBAgQIECAAAECBAgQIECAAAECBAgQIECAAAECBAgQIECAAAECBAgQIECAAAECBAgQIECAAAECBAgQIECAAAECBAgQIECAAAECBAgQIECAAAECBAgQIECAAAECBAgQIECAAAECBAgQIECAAAECBAgQIECAAAECBAgQIECAAAECBAgQIECAAAECBAgQIECAAAECBAgQIECAAAECBAgQIECAAAECBAgQIECAAAECBAgQIECAAAECBAgQIECAAAECBAgQIECAAAECBAgQIECAAAECBAgQIECAAAECBAgQIECAAAECBAgQIECAAAECBAgQIECAAAECBAgQIECAAAECBAgQIECAAAECBAgQIECAAAECBAgQIECAAAECBAgQIECAAAECBAgQIECAAAECBAgQIECAAAECBAgQIECAAAECBAgQIECAAAECBAgQIECAAAECBAgQIECAAAECBAgQIECAAAECBAgQIECAAAECBAgQIECAAAECBAgQIEBgXYH/D8U/sO+1OYOXAAAAAElFTkSuQmCC" vertex="1" parent="1">
          <mxGeometry x="2050" y="206" width="27" height="27" as="geometry" />
        </mxCell>
        <UserObject label="&lt;div style=&quot;font-size: 1px&quot;&gt;&lt;font style=&quot;font-size:15.52px;font-family:Segoe UI;color:#000000;direction:ltr;letter-spacing:0px;line-height:120%;opacity:1&quot;&gt;API Management&lt;br/&gt;&lt;/font&gt;&lt;/div&gt;" tags="Background" id="JCDnAdbY1yPkoRfCkcH7-121">
          <mxCell style="verticalAlign=middle;align=center;vsdxID=1140;fillColor=none;gradientColor=none;shape=stencil(nZBLDoAgDERP0z3SIyjew0SURgSD+Lu9kMZoXLhwN9O+tukAlrNpJg1SzDH4QW/URgNYgZTkjA4UkwJUgGXng+6DX1zLfmoymdXo17xh5zmRJ6Q42BWCfc2oJfdAr+Yv+AP9Cb7OJ3H/2JG1HNGz/84klThPVCc=);strokeColor=none;points=[];labelBackgroundColor=none;rounded=0;html=1;whiteSpace=wrap;" vertex="1" parent="1">
            <mxGeometry x="1510" y="236" width="146" height="25" as="geometry" />
          </mxCell>
        </UserObject>
        <mxCell id="JCDnAdbY1yPkoRfCkcH7-177" value="Resource Group" style="text;html=1;align=center;verticalAlign=middle;resizable=0;points=[];autosize=1;strokeColor=none;fillColor=none;" vertex="1" parent="1">
          <mxGeometry x="1459" y="92" width="110" height="30" as="geometry" />
        </mxCell>
        <mxCell id="JCDnAdbY1yPkoRfCkcH7-178" value="" style="sketch=0;aspect=fixed;html=1;points=[];align=center;image;fontSize=12;image=img/lib/mscae/ResourceGroup.svg;strokeColor=#2c1111;" vertex="1" parent="1">
          <mxGeometry x="1478" y="122" width="50" height="40" as="geometry" />
        </mxCell>
        <mxCell id="JCDnAdbY1yPkoRfCkcH7-186" value="Developer" style="pointerEvents=1;shadow=0;dashed=0;html=1;strokeColor=none;fillColor=#4495D1;labelPosition=center;verticalLabelPosition=bottom;verticalAlign=top;align=center;outlineConnect=0;shape=mxgraph.veeam.laptop;" vertex="1" parent="1">
          <mxGeometry x="2168.4" y="510" width="58.4" height="44" as="geometry" />
        </mxCell>
        <mxCell id="JCDnAdbY1yPkoRfCkcH7-192" value="" style="shape=image;html=1;verticalAlign=top;verticalLabelPosition=bottom;labelBackgroundColor=#ffffff;imageAspect=0;aspect=fixed;image=https://cdn0.iconfinder.com/data/icons/social-network-9/50/29-128.png;strokeColor=#2c1111;" vertex="1" parent="1">
          <mxGeometry x="2240" y="90" width="45.5" height="45.5" as="geometry" />
        </mxCell>
        <mxCell id="JCDnAdbY1yPkoRfCkcH7-286" style="edgeStyle=orthogonalEdgeStyle;rounded=0;orthogonalLoop=1;jettySize=auto;html=1;dashed=1;dashPattern=1 1;fontSize=12;startArrow=classic;startFill=1;endArrow=classic;endFill=1;" edge="1" parent="1" source="JCDnAdbY1yPkoRfCkcH7-194">
          <mxGeometry relative="1" as="geometry">
            <mxPoint x="1430" y="310" as="targetPoint" />
            <Array as="points">
              <mxPoint x="1385" y="310" />
            </Array>
          </mxGeometry>
        </mxCell>
        <mxCell id="JCDnAdbY1yPkoRfCkcH7-194" value="&lt;span style=&quot;font-family: &amp;quot;Segoe UI&amp;quot;; font-size: 15.52px; background-color: rgb(251, 251, 251);&quot;&gt;Azure Active Directory&lt;/span&gt;" style="aspect=fixed;html=1;points=[];align=center;image;fontSize=12;image=img/lib/azure2/identity/Azure_Active_Directory.svg;strokeColor=#2c1111;" vertex="1" parent="1">
          <mxGeometry x="1359.69" y="618.5" width="50.31" height="46" as="geometry" />
        </mxCell>
        <mxCell id="JCDnAdbY1yPkoRfCkcH7-208" value="" style="verticalLabelPosition=bottom;html=1;verticalAlign=top;align=center;strokeColor=none;fillColor=#00BEF2;shape=mxgraph.azure.user;fontSize=12;" vertex="1" parent="1">
          <mxGeometry x="1190" y="618.5" width="30" height="41.5" as="geometry" />
        </mxCell>
        <mxCell id="JCDnAdbY1yPkoRfCkcH7-209" value="User" style="text;html=1;align=center;verticalAlign=middle;resizable=0;points=[];autosize=1;strokeColor=none;fillColor=none;fontSize=12;" vertex="1" parent="1">
          <mxGeometry x="1180" y="664.5" width="50" height="30" as="geometry" />
        </mxCell>
        <mxCell id="JCDnAdbY1yPkoRfCkcH7-210" value="Pull Request" style="text;html=1;align=center;verticalAlign=middle;resizable=0;points=[];autosize=1;strokeColor=none;fillColor=none;fontSize=12;" vertex="1" parent="1">
          <mxGeometry x="2195.5" y="440" width="90" height="30" as="geometry" />
        </mxCell>
        <UserObject label="" tags="Background" id="JCDnAdbY1yPkoRfCkcH7-245">
          <mxCell style="vsdxID=1008;fillColor=none;gradientColor=none;strokeColor=none;spacingTop=-3;spacingBottom=-3;spacingLeft=-3;spacingRight=-3;points=[[0.5,1.31,0],[0.5,0,0],[0,0.5,0],[1,0.5,0]];labelBackgroundColor=none;rounded=0;html=1;whiteSpace=wrap;" vertex="1" parent="1">
            <mxGeometry x="1710.5" y="456.5" width="48" height="48" as="geometry" />
          </mxCell>
        </UserObject>
        <mxCell id="JCDnAdbY1yPkoRfCkcH7-246" style="vsdxID=1009;fillColor=#50e6ff;gradientColor=none;shape=stencil(vVPLbsMgEPwajl4Bix04p+l/oAbbqNRYmDbO3xdKH6atpfaS2zKzM6vRsgSPy6hnQzhdYvCP5mLPcSR4Rzi302iCjakieCJ47H0wQ/DP07m8Z507c/XkX7LDWnRKQotZxem1IFKCEG/IfRE4O20E8gBKVYJk0bVbgQ4PiQ3vAgGSlf5w/UC6MuDTkwHfsaRro1e7NMFHHa2fCk8L53QYTJPGNb3TQ0UtF2PmDcz2E3GQ9XSOgGI/kIKuzqOAt1WeH46MAhe3ysMQBKvG0/3mvP96nWkZ8vDPdWIV/xfP9KfwVvn/8KVT8XUQvXWu3NOW/35ACSrHh6dX);strokeColor=none;spacingTop=-3;spacingBottom=-3;spacingLeft=-3;spacingRight=-3;points=[[0.5,1.31,0],[0.5,0,0],[0,0.5,0],[1,0.5,0]];labelBackgroundColor=none;rounded=0;html=1;whiteSpace=wrap;" vertex="1" parent="JCDnAdbY1yPkoRfCkcH7-245">
          <mxGeometry y="20" width="15" height="17" as="geometry" />
        </mxCell>
        <mxCell id="JCDnAdbY1yPkoRfCkcH7-247" style="vsdxID=1010;fillColor=#1490df;gradientColor=none;shape=stencil(vVPLbsMgEPwajl4BG/M4p+l/oAbbqNRYmDbJ3xcXVzVRkx4q5bbMzC7sskNwPw9msoTTOcXwak/umAaCT4RzNw42upQjggeC+y5E28fwPh7LeTKLconewsdS4VzylASplyxOLwVhgPILeC5678aNXitoZa1nINQ2wcSXzMY1YQeqsDRevpFVf6emAmSrpjFnNzcxJJNcGAtPC+dN7G2T72s6b/qKmk/WThuY3W6JIYi2vp7S23IOSlRqpe8OQINs6wFowLYaQC5ZP0AK2IlH9a8oaLxeAfGvH81bpX6v+Ih+/lzpHPz4oXPeFztt+Wv/ZKh4Dw+f);strokeColor=none;spacingTop=-3;spacingBottom=-3;spacingLeft=-3;spacingRight=-3;points=[[0.5,1.31,0],[0.5,0,0],[0,0.5,0],[1,0.5,0]];labelBackgroundColor=none;rounded=0;html=1;whiteSpace=wrap;" vertex="1" parent="JCDnAdbY1yPkoRfCkcH7-245">
          <mxGeometry y="9" width="14" height="17" as="geometry" />
        </mxCell>
        <mxCell id="JCDnAdbY1yPkoRfCkcH7-248" style="vsdxID=1011;fillColor=#50e6ff;gradientColor=none;shape=stencil(vVPLbsMgEPwajl7xMsHnNPkP1GAblRoLkyb5+0JxFIjkXCrltjs7M8tILGL7ZVSzRhQvwbsvfTGnMCL2gSg106i9CbFC7IDYvndeD96dp1PuZ5WYqfp2P8nhmnVSgEgiim8ZwH/dMXOtmQputwPSVWSCgfJSoPxnnPq7ANqV7293ZOWXnrLypAwYWzmNupql8S6oYNxUPhBb5QfdxH1Nb9VQjZaL1nMBk+1IRMKurdZ3EkS7HYmDJHUkDqKORAh0YsPzHZGAV8ulBC7+F+jZMQak74qTPmi9HgNmr/nbHzoWj0vojbX5kMr58+VEKF8dO/wC);strokeColor=none;spacingTop=-3;spacingBottom=-3;spacingLeft=-3;spacingRight=-3;points=[[0.5,1.31,0],[0.5,0,0],[0,0.5,0],[1,0.5,0]];labelBackgroundColor=none;rounded=0;html=1;whiteSpace=wrap;" vertex="1" parent="JCDnAdbY1yPkoRfCkcH7-245">
          <mxGeometry x="33" y="20" width="15" height="17" as="geometry" />
        </mxCell>
        <mxCell id="JCDnAdbY1yPkoRfCkcH7-249" style="vsdxID=1012;fillColor=#1490df;gradientColor=none;shape=stencil(vVPLcsMgDPwajtbwcDGc0/Q/mAbbTF3jwaRx/r5QNa1xx5npJTexWmm1I0TEYe7NZAmncwz+zV7cKfZEPBPO3djb4GKKiDgScWh9sF3w5/GE78lkZo7e/UfusGCdboDlIk6vCCgNUn0hL8gf3LjiKwmCFwWM0n06g3rDVsD1mm/Ca8qGb34NCsVpuN4Qifz9luw2MV0qs7i5Cj6a6PyIeRyPDiZ0tkpyVTuYrkjNF2unFczuGOKwUQfR/NOPKv3ozQZ+Oj7ATl6/LNQbCU/7fjQ0delHg6gLP39b5i+lH+no/odOwe81tG4Y8JjW+e31JAgvTxw/AQ==);strokeColor=none;spacingTop=-3;spacingBottom=-3;spacingLeft=-3;spacingRight=-3;points=[[0.5,1.31,0],[0.5,0,0],[0,0.5,0],[1,0.5,0]];labelBackgroundColor=none;rounded=0;html=1;whiteSpace=wrap;" vertex="1" parent="JCDnAdbY1yPkoRfCkcH7-245">
          <mxGeometry x="33" y="9" width="14" height="17" as="geometry" />
        </mxCell>
        <mxCell id="JCDnAdbY1yPkoRfCkcH7-250" style="vsdxID=1013;fillColor=#000000;gradientColor=none;shape=stencil(vVXLloIwDP0aluS0TQvt2tH/6FFUzjDgKTjq30+ZokPKiCvZlZub5nFTkuCqPdpTkQjWdq75LC7lrjsm+JEIUdbHwpWdPyW4TnC1b1xxcM253oXvk+2Z/emr+e5vuAY/KYDL3kuwW0CUBJX/IpvgUJX1yEFAb5rjW7f1Vvfgcwx8Nzhw4DogA4XR+xBkNthTey3b1DWd7cqmJuzKukOR+ljpvrIHYmovRXEawfx5dhy0irNjgmYHUb34vuRoq6UGpkhsBpmaazXyuBhBW60YcFoOW6oakwPiP6GfTc1EF25IKcaAysh9nsIXHBw9GRwZJ8jzKMF8ueERYGh0j2R6Vp9czztMNMpeaMQZfdsSQb+vAbFCZpIeo6/BKyTpa5D+Z6aWkkgD0udtMjA45m/PLvyseSDkcHfgD9HEfebFvUo5IDcRqXDFoUrAQafbgBgFeTY7TK+2hD/87Zh9WVVhRY3t8U7yUNhnuP4B);strokeColor=none;spacingTop=-3;spacingBottom=-3;spacingLeft=-3;spacingRight=-3;points=[[0.5,1.31,0],[0.5,0,0],[0,0.5,0],[1,0.5,0]];labelBackgroundColor=none;rounded=0;html=1;whiteSpace=wrap;" vertex="1" parent="JCDnAdbY1yPkoRfCkcH7-245">
          <mxGeometry x="12" width="24" height="48" as="geometry" />
        </mxCell>
        <mxCell id="JCDnAdbY1yPkoRfCkcH7-251" value="&lt;div style=&quot;font-size: 1px&quot;&gt;&lt;font style=&quot;font-size:15.52px;font-family:Segoe UI;color:#000000;direction:ltr;letter-spacing:0px;line-height:120%;opacity:1&quot;&gt;Function Apps&lt;br/&gt;&lt;/font&gt;&lt;/div&gt;" style="text;vsdxID=1008;fillColor=none;gradientColor=none;strokeColor=none;spacingTop=-3;spacingBottom=-3;spacingLeft=-3;spacingRight=-3;points=[[0.5,1.31,0],[0.5,0,0],[0,0.5,0],[1,0.5,0]];labelBackgroundColor=none;rounded=0;html=1;whiteSpace=wrap;verticalAlign=middle;align=center;;html=1;" vertex="1" parent="JCDnAdbY1yPkoRfCkcH7-245">
          <mxGeometry x="-26.42" y="48" width="101.6" height="18.63" as="geometry" />
        </mxCell>
        <UserObject label="" tags="Background" id="JCDnAdbY1yPkoRfCkcH7-252">
          <mxCell style="vsdxID=1027;fillColor=none;gradientColor=none;strokeColor=none;spacingTop=-3;spacingBottom=-3;spacingLeft=-3;spacingRight=-3;points=[[0.5,1.31,0],[0.5,0,0],[0,0.5,0],[1,0.5,0]];labelBackgroundColor=none;rounded=0;html=1;whiteSpace=wrap;" vertex="1" parent="1">
            <mxGeometry x="1880" y="452.5" width="48" height="48" as="geometry" />
          </mxCell>
        </UserObject>
        <mxCell id="JCDnAdbY1yPkoRfCkcH7-253" style="vsdxID=1028;fillColor=none;gradientColor=none;strokeColor=none;spacingTop=-3;spacingBottom=-3;spacingLeft=-3;spacingRight=-3;points=[[0.5,1.31,0],[0.5,0,0],[0,0.5,0],[1,0.5,0]];labelBackgroundColor=none;rounded=0;html=1;whiteSpace=wrap;" vertex="1" parent="JCDnAdbY1yPkoRfCkcH7-252">
          <mxGeometry width="48" height="48" as="geometry" />
        </mxCell>
        <mxCell id="JCDnAdbY1yPkoRfCkcH7-254" style="vsdxID=1029;fillColor=#50e6ff;gradientColor=none;shape=stencil(lVfLctswDPwaXTkUqQd1TtP/yDROralrZxyntf6+VCUT4MKE4puiYL0gd7GkKv/0sX9531XOflzOp1+7v+PrZV/5b5Vz43G/O4+X+FT558o/vZ3Ou5/n0+fxdfn7/WWunJ9+n/7Mv3BdcLU3QzejnJ2WN643g/v/5vsC+PF5XhB1gvhhhdSIsVe3Vrn0anKpqlm5rl5Wra9cZ8Kg8jNMjRiVn1Xp/OFRfms8rL83Xc5et8bWwG5sk5PXrcZsTdPnxGt9YrWJI9E2pm1yWguc0QK9SgucpD/RpsbY9vvN1aailfkwHrk3CVCox05p06VWijESTLFFaubrrqBdSdxx60LObYE5itHmzHZjGFN9LhfjHLpNzu4RTrJUibMFQjn4NA1sh1VxOaQGCGOWE0BFKrkub4SAvOSaW77EFPByDGDoWQpNwm4FdpacirNZCk/ScIm/T5M5CdOV+RNGGo/z4/pZlc7fPcofTegFv4ghJO8M7r2+cCZWIXJ5SZlVSK7TMidJ9yte5wdR2ezbRxxEyryzsGweAtJ/SrSI+wWE/vaFJL/BhGCCzwC1VeMrAjweoxYCLEROEHUYTAc5wqt8qsqlzVfHEQWAaDdCQt7u4ClVbg1708Psh9hwnzfcB9NAw3OVOnsRY8GLhKHrTkzDVvA7uG7xKo/ylfgZhikYgJ91KTXU1p+qSvsfdxbXT5Jww8DJzoCKYaglRX+IoHmxDfAzUzNJ4NTls+KxqsRPMk61/GUnLDFJSa7CbA+sn2GYJBBH80jc0R/OvnnY+uox/dncT1KSFIe3BJmYIHjnsXDz3vQ+IWgz4NDj7ZUH/97CU9XdpOKIAkDslBdX4BmDk0LdTVI8xSnU0dedwkObxRJMKsV/eU7gUIFY3zqD4gN9gb+Nh8PyAc//j1/s8dXyte+f/wE=);strokeColor=none;spacingTop=-3;spacingBottom=-3;spacingLeft=-3;spacingRight=-3;points=[[0.5,1.31,0],[0.5,0,0],[0,0.5,0],[1,0.5,0]];labelBackgroundColor=none;rounded=0;html=1;whiteSpace=wrap;" vertex="1" parent="JCDnAdbY1yPkoRfCkcH7-253">
          <mxGeometry x="1" width="46" height="48" as="geometry" />
        </mxCell>
        <mxCell id="JCDnAdbY1yPkoRfCkcH7-255" style="vsdxID=1030;fillColor=#000000;gradientColor=none;shape=stencil(jVLbEoIgFPwaXs8ARwifu/xHU5ZMpg1a2d8nHbxh0/R2XHbdhbMM13W+v2VM8rpx1SV72mOTM9wwKW2ZZ8423cRwy3B9qlx2dtW9PNL3be+ZfrpWD/+HlnRpAsJ4leQvQjCFRH2QHQkOd0cKQQTBeRAEQCOYhKBWEmQSSHVg9ZABVIGFQchB9Swc86x+uaPuCYP/EKh3FwJ07N4FitwVGJyb+zw/rx5d3GfRkbUCrubWPk1kPb7x4D2kCdaFLSdrmgq+8+OofilqHjd6pclCXsv0LS4Lskj/NesfleqGsZAnWxTU5+l5XOAOovLj9g0=);strokeColor=none;spacingTop=-3;spacingBottom=-3;spacingLeft=-3;spacingRight=-3;points=[[0.5,1.31,0],[0.5,0,0],[0,0.5,0],[1,0.5,0]];labelBackgroundColor=none;rounded=0;html=1;whiteSpace=wrap;" vertex="1" parent="JCDnAdbY1yPkoRfCkcH7-253">
          <mxGeometry x="5" y="4" width="37" height="38" as="geometry" />
        </mxCell>
        <mxCell id="JCDnAdbY1yPkoRfCkcH7-256" style="vsdxID=1031;fillColor=none;gradientColor=none;strokeColor=none;spacingTop=-3;spacingBottom=-3;spacingLeft=-3;spacingRight=-3;points=[[0.5,1.31,0],[0.5,0,0],[0,0.5,0],[1,0.5,0]];labelBackgroundColor=none;rounded=0;html=1;whiteSpace=wrap;" vertex="1" parent="JCDnAdbY1yPkoRfCkcH7-253">
          <mxGeometry x="6" y="11" width="34" height="24" as="geometry" />
        </mxCell>
        <mxCell id="JCDnAdbY1yPkoRfCkcH7-257" style="vsdxID=1032;fillColor=#f2f2f2;gradientColor=none;shape=stencil(lZbddtswCMefxrccAfq87rr36FnTJWdZ0pOmW/v2w7MlGbw6651DQD8k+CMNfPeyf3jeDeRerpfzj93vw+N1P/CXgehw2u8uh6t8DXw/8N3T+bL7fjm/nh6n388Po+f49fP8a1zhbYqjAC6MUeTeJ0spkPxfy9cp4NvrZYrAyYEJGOeQ2YTOTYY3mn0ycF12NhWExLMXN6/gZ6/ZlBHG3xv03Jap9OQgkeGzhkeEEjVcdp4MXLxi3oJLTCAN7zENLl7tgGjt1fmufJ6PvOJjWPHRG76D9fbRbt+BSzfwLmu8LxBQ47EAksZ7BEeajwgZNX/0Uvzj4bRoVSmh7tSVv83XmaOSxi06Vw+x6FQzQzGZekhRZ7rSiM70P0T16QAt2ya496YK3OycHtB15Gzhmk9VUYJsJCt5FdM24hU3y1AWw6B3EnlNLx686VrkunLj5wzRFMPfmBg51Yq2vUMykhUfNCODwZu95whs9w64ufUk6XoNN5NShlc0aonggybHDJ40GROEsoWWmCbD2gSiTCOAKIdj8ORWVRevbGYVEfhtfgJOpuoSY3ouRsiWT61dGj8C5RWfN6+pIJdLXvHZdF3oplZ4BDbDculVu47q4PuIv4ipJmwyb/zYlU8tcdv148Vg6i+mwJvnz03gywFojl9ElzRenCw9QEmGTnVw/nOeZQKqKv0gYKXS3ETZjqvftoshkcxx+QSmW/sc6+8MPR3NxXJrmMpHfz89HY7H6fm1/N++t8Q0vdX4/g8=);strokeColor=none;spacingTop=-3;spacingBottom=-3;spacingLeft=-3;spacingRight=-3;points=[[0.5,1.31,0],[0.5,0,0],[0,0.5,0],[1,0.5,0]];labelBackgroundColor=none;rounded=0;html=1;whiteSpace=wrap;" vertex="1" parent="JCDnAdbY1yPkoRfCkcH7-256">
          <mxGeometry width="34" height="24" as="geometry" />
        </mxCell>
        <mxCell id="JCDnAdbY1yPkoRfCkcH7-258" style="vsdxID=1033;fillColor=#50e6ff;gradientColor=none;shape=stencil(lZbbUttADIafxrcaabXHawrvwUBoMk0TJoQW3h6lttfZ35NleudstP4s6ddh0Lu37ePrZnD8dj4df23+7p7P20F/DM7tDtvNaXe2p0HvB717OZ42P0/H98Pz+Pv18WJ5efp9/HN5w8d4r0Ty/nLL8ed4IkJB/508jBee3k/jDZmuOMp5ujIdKbnxCn+48ST7+S38OR3xZKHjz2SvKZPFdOTId8kxL1cWsmvJ0VMJLdmTlxYehTi38EgsXbgnCS08kS8AT8SxhRcKHuCFUmjh4ohLj56ERFq6JSqmFm8x9anFm5Wklp+UwHfhObC38IFyAjxX5VR8ogLem5WD2GcmRveZpMs3OTlwv5AG0Fwmv3I+AL1YPCLQA5W+4pXUt3THVCD39mbQnX1jhNznSOJbvJocuspLmSLIPjiKGaRnQgN+VAq55YeyBFKrtHKX78tKe5bDCMlXS36LN1+Ta/FWZQJFn8392MNLInWQe5N+SzcFlQz4+uIl+rOnC91/E/xYHa1Vb1kFel6VXQLZidWctujIc7XcctwTNBzLXoJGa0YRas6sBOJuEveuxYc0l/QtfFh62cw3QUHLMasqDlf1UsfBwg9Qdb726Vt8XTVcn6sUrhMPVR+ktqEl8QWiH6yjuS6eCojexk+BxDNIjleS05Xjpkvu5t30DuVuU7p2UVejE6HchWHE1s+be1/+JuQ2gRVG++UOVLrN0wRos4rQacwNWeGl67h1QhBcMZGA4Cy7AQRvjR/bfDRPIO5Wt1PrvRV3XXmfmBQ3G63VVQWXl0m8jBleCz738BYexu1GVm22JrlmvVCGIXO91M0FiFvdfnf4vzXQHpYl8mW334876PX/uHTa0biw6v0X);strokeColor=none;spacingTop=-3;spacingBottom=-3;spacingLeft=-3;spacingRight=-3;points=[[0.5,1.31,0],[0.5,0,0],[0,0.5,0],[1,0.5,0]];labelBackgroundColor=none;rounded=0;html=1;whiteSpace=wrap;" vertex="1" parent="JCDnAdbY1yPkoRfCkcH7-253">
          <mxGeometry y="5" width="48" height="36" as="geometry" />
        </mxCell>
        <mxCell id="JCDnAdbY1yPkoRfCkcH7-259" value="&lt;div style=&quot;font-size: 1px&quot;&gt;&lt;font style=&quot;font-size:15.52px;font-family:Segoe UI;color:#000000;direction:ltr;letter-spacing:0px;line-height:120%;opacity:1&quot;&gt;Azure &lt;br/&gt;Cosmos DB&lt;br/&gt;&lt;/font&gt;&lt;/div&gt;" style="text;vsdxID=1027;fillColor=none;gradientColor=none;strokeColor=none;spacingTop=-3;spacingBottom=-3;spacingLeft=-3;spacingRight=-3;points=[[0.5,1.31,0],[0.5,0,0],[0,0.5,0],[1,0.5,0]];labelBackgroundColor=none;rounded=0;html=1;whiteSpace=wrap;verticalAlign=middle;align=center;;html=1;" vertex="1" parent="JCDnAdbY1yPkoRfCkcH7-252">
          <mxGeometry x="-26.42" y="48" width="101.6" height="37.26" as="geometry" />
        </mxCell>
        <UserObject label="" tags="Background" id="JCDnAdbY1yPkoRfCkcH7-260">
          <mxCell style="vsdxID=1019;fillColor=none;gradientColor=none;strokeColor=none;spacingTop=-3;spacingBottom=-3;spacingLeft=-3;spacingRight=-3;points=[];labelBackgroundColor=none;rounded=0;html=1;whiteSpace=wrap;" vertex="1" parent="1">
            <mxGeometry x="1551" y="457.5" width="48" height="43" as="geometry" />
          </mxCell>
        </UserObject>
        <mxCell id="JCDnAdbY1yPkoRfCkcH7-261" style="vsdxID=1020;fillColor=none;gradientColor=none;strokeColor=none;spacingTop=-3;spacingBottom=-3;spacingLeft=-3;spacingRight=-3;points=[];labelBackgroundColor=none;rounded=0;html=1;whiteSpace=wrap;" vertex="1" parent="JCDnAdbY1yPkoRfCkcH7-260">
          <mxGeometry width="48" height="43" as="geometry" />
        </mxCell>
        <mxCell id="JCDnAdbY1yPkoRfCkcH7-262" style="vsdxID=1021;fillColor=none;gradientColor=none;strokeColor=none;spacingTop=-3;spacingBottom=-3;spacingLeft=-3;spacingRight=-3;points=[];labelBackgroundColor=none;rounded=0;html=1;whiteSpace=wrap;" vertex="1" parent="JCDnAdbY1yPkoRfCkcH7-261">
          <mxGeometry width="48" height="43" as="geometry" />
        </mxCell>
        <mxCell id="JCDnAdbY1yPkoRfCkcH7-263" style="vsdxID=1022;fillColor=none;gradientColor=none;strokeColor=none;spacingTop=-3;spacingBottom=-3;spacingLeft=-3;spacingRight=-3;points=[];labelBackgroundColor=none;rounded=0;html=1;whiteSpace=wrap;" vertex="1" parent="JCDnAdbY1yPkoRfCkcH7-262">
          <mxGeometry width="48" height="43" as="geometry" />
        </mxCell>
        <mxCell id="JCDnAdbY1yPkoRfCkcH7-264" style="vsdxID=1023;fillColor=none;gradientColor=none;strokeColor=none;spacingTop=-3;spacingBottom=-3;spacingLeft=-3;spacingRight=-3;points=[];labelBackgroundColor=none;rounded=0;html=1;whiteSpace=wrap;" vertex="1" parent="JCDnAdbY1yPkoRfCkcH7-263">
          <mxGeometry width="48" height="43" as="geometry" />
        </mxCell>
        <mxCell id="JCDnAdbY1yPkoRfCkcH7-265" style="vsdxID=1024;fillColor=#198ab3;gradientColor=#32d4f5;shape=stencil(xZfbcpswEIafhkvvaHVA0nWavgeTYJspNR6ZNMnbVxQQrDik7hh6h6Vd+dNq99cqEU+3c3bNE85utat+5O/Fa31OxLeE8+Jyzl1R+69EPCfi6Vi5/OSqt8tr+/uaNZbN18/qV7PCR+tnGEjdeHH22Y4IBoh/Rr63Dpl78bOuc+AGlGgd3OBhbTvUGSkEociqrJs/ZB/F7eCqOquL6tLOoelmy8yd8oP/v8OxzE7E8fae59fJ8DyhBYkRIYJVhJCLYNTZcAQmdqTUgJxSNuApoWSEUFqwZlfCPjVGhEbSOBpAmj/agN4xjpiCjSjRgBSE0mdoKvelLIvLqMyEBo0LALPbMsG+39UkOfyaLKVrKkD14E2tSIEBGyOmmiIa4FHcvd48OodxOe4z6RkA5pOehaC6QRg0lTcd9rBhZa4EHi0oO4HkhkByGYyG6mV6x9j7v6OXgD8NsWzvi7S/WXp70Zft/FkNqu4GD0OFfnoVmf5+2+WsPCSaCSRDAqmHkdEtnG5JSWM/A6B77nkHG9+fvtZx5bBQBSkIOp2CoodleSyTSoZ63KWyVFDZESUtLK2BpqmXFG63ZIxCz0IZTwDmU1AEh5CCaghrJ2E6bOL/tBsCdBR5f/T2C0ZlBpu7GfFuRp8esfA2/Yf8gtIimE0T5AGRRPbPLfr9cWwyMr5lVbgtlvPcQPpoMVhp2nQ66V4CwELgrYwDz2lH5MVD8n03NQ191Fl6yuj9FpJhQxVeY+ST7tczRr3l2st1l/T4i6ez/xge3seiLNt3+3g+fqj7ofaRL55/Aw==);strokeColor=none;strokeWidth=48;spacingTop=-3;spacingBottom=-3;spacingLeft=-3;spacingRight=-3;points=[];labelBackgroundColor=none;rounded=0;html=1;whiteSpace=wrap;" vertex="1" parent="JCDnAdbY1yPkoRfCkcH7-264">
          <mxGeometry width="48" height="43" as="geometry" />
        </mxCell>
        <mxCell id="JCDnAdbY1yPkoRfCkcH7-266" style="vsdxID=1025;fillColor=none;gradientColor=none;strokeColor=none;spacingTop=-3;spacingBottom=-3;spacingLeft=-3;spacingRight=-3;points=[];labelBackgroundColor=none;rounded=0;html=1;whiteSpace=wrap;" vertex="1" parent="JCDnAdbY1yPkoRfCkcH7-263">
          <mxGeometry x="18" y="28" width="8" height="8" as="geometry" />
        </mxCell>
        <mxCell id="JCDnAdbY1yPkoRfCkcH7-267" style="vsdxID=1026;fillColor=#c69aeb;gradientColor=#6f4bb2;shape=stencil(vVRRDsIgDD0NnxiEuem3znsQxzYijqVDnbcXhLgpGqMm+2tfX2lfoSC27mreCkRJZ0DvxVkWpkZsgyiVTS1AGmshliO2LjWICvSxKbzfcsd01kGf3Am9zyMug5KL9xZkliY3ZOvJHHY2CoGcrGZs6RPgMkCZhwZSQh9OnZNQpce8lx0GbbiRugnRZYgqDpXAtiIuFa8e2uvOQrQRHHpUshkJchKyl+V/l3QXEI1pEknP5V2D6Z+S4jFNeEfxE/n3ht4NaBI5H3boK7I1hlUtpVJ+08fx59W2kP8WWH4F);strokeColor=none;strokeWidth=48;spacingTop=-3;spacingBottom=-3;spacingLeft=-3;spacingRight=-3;points=[];labelBackgroundColor=none;rounded=0;html=1;whiteSpace=wrap;" vertex="1" parent="JCDnAdbY1yPkoRfCkcH7-266">
          <mxGeometry width="8" height="8" as="geometry" />
        </mxCell>
        <UserObject label="&lt;div style=&quot;font-size: 1px&quot;&gt;&lt;/div&gt;" tags="Connector" id="JCDnAdbY1yPkoRfCkcH7-268">
          <mxCell style="vsdxID=1153;edgeStyle=none;startArrow=none;endArrow=block;startSize=5;endSize=5;strokeWidth=2;strokeColor=#000000;spacingTop=0;spacingBottom=0;spacingLeft=0;spacingRight=0;verticalAlign=bottom;html=1;labelBackgroundColor=#ffffff;rounded=0;align=center;" edge="1" parent="1">
            <mxGeometry relative="1" as="geometry">
              <mxPoint x="-1" y="-25" as="offset" />
              <Array as="points" />
              <mxPoint x="1616" y="482.5" as="sourcePoint" />
              <mxPoint x="1701" y="482.5" as="targetPoint" />
            </mxGeometry>
          </mxCell>
        </UserObject>
        <UserObject label="&lt;div style=&quot;font-size: 1px&quot;&gt;&lt;/div&gt;" tags="Connector" id="JCDnAdbY1yPkoRfCkcH7-269">
          <mxCell style="vsdxID=1154;edgeStyle=none;startArrow=none;endArrow=block;startSize=5;endSize=5;strokeWidth=2;strokeColor=#000000;spacingTop=0;spacingBottom=0;spacingLeft=0;spacingRight=0;verticalAlign=bottom;html=1;labelBackgroundColor=#ffffff;rounded=0;align=center;" edge="1" parent="1">
            <mxGeometry relative="1" as="geometry">
              <mxPoint x="-1" y="-25" as="offset" />
              <Array as="points" />
              <mxPoint x="1779" y="482.5" as="sourcePoint" />
              <mxPoint x="1865" y="482.5" as="targetPoint" />
            </mxGeometry>
          </mxCell>
        </UserObject>
        <mxCell id="JCDnAdbY1yPkoRfCkcH7-271" vertex="1" parent="1">
          <mxGeometry x="1539" y="564.5" as="geometry" />
        </mxCell>
        <mxCell id="JCDnAdbY1yPkoRfCkcH7-272" vertex="1" parent="1">
          <mxGeometry x="1532" y="404.5" as="geometry" />
        </mxCell>
        <UserObject label="&lt;div style=&quot;font-size: 1px&quot;&gt;&lt;font style=&quot;font-size:15.52px;font-family:Segoe UI;color:#000000;direction:ltr;letter-spacing:0px;line-height:120%;opacity:1&quot;&gt;API Management&lt;br/&gt;&lt;/font&gt;&lt;/div&gt;" tags="Background" id="JCDnAdbY1yPkoRfCkcH7-273">
          <mxCell style="verticalAlign=middle;align=center;vsdxID=1140;fillColor=none;gradientColor=none;shape=stencil(nZBLDoAgDERP0z3SIyjew0SURgSD+Lu9kMZoXLhwN9O+tukAlrNpJg1SzDH4QW/URgNYgZTkjA4UkwJUgGXng+6DX1zLfmoymdXo17xh5zmRJ6Q42BWCfc2oJfdAr+Yv+AP9Cb7OJ3H/2JG1HNGz/84klThPVCc=);strokeColor=none;points=[];labelBackgroundColor=none;rounded=0;html=1;whiteSpace=wrap;" vertex="1" parent="1">
            <mxGeometry x="1510" y="502.5" width="146" height="25" as="geometry" />
          </mxCell>
        </UserObject>
        <mxCell id="JCDnAdbY1yPkoRfCkcH7-274" value="" style="sketch=0;aspect=fixed;html=1;points=[];align=center;image;fontSize=12;image=img/lib/mscae/ResourceGroup.svg;strokeColor=#2c1111;" vertex="1" parent="1">
          <mxGeometry x="1489" y="391.5" width="50" height="40" as="geometry" />
        </mxCell>
        <mxCell id="JCDnAdbY1yPkoRfCkcH7-284" style="edgeStyle=orthogonalEdgeStyle;rounded=0;orthogonalLoop=1;jettySize=auto;html=1;dashed=1;dashPattern=1 1;fontSize=12;startArrow=classic;startFill=1;endArrow=none;endFill=0;" edge="1" parent="1" source="JCDnAdbY1yPkoRfCkcH7-117">
          <mxGeometry relative="1" as="geometry">
            <mxPoint x="1430" y="490" as="targetPoint" />
            <Array as="points">
              <mxPoint x="1430" y="212" />
            </Array>
          </mxGeometry>
        </mxCell>
        <mxCell id="JCDnAdbY1yPkoRfCkcH7-285" style="edgeStyle=orthogonalEdgeStyle;rounded=0;orthogonalLoop=1;jettySize=auto;html=1;dashed=1;dashPattern=1 1;fontSize=12;startArrow=classic;startFill=1;endArrow=none;endFill=0;" edge="1" parent="1" source="JCDnAdbY1yPkoRfCkcH7-266">
          <mxGeometry relative="1" as="geometry">
            <mxPoint x="1430" y="489.5" as="targetPoint" />
          </mxGeometry>
        </mxCell>
        <mxCell id="JCDnAdbY1yPkoRfCkcH7-290" value="Resource Group" style="text;html=1;align=center;verticalAlign=middle;resizable=0;points=[];autosize=1;strokeColor=none;fillColor=none;" vertex="1" parent="1">
          <mxGeometry x="1474" y="361.5" width="110" height="30" as="geometry" />
        </mxCell>
        <UserObject label="&lt;div style=&quot;font-size: 1px&quot;&gt;&lt;p style=&quot;align:left;margin-left:0;margin-right:0;margin-top:0px;margin-bottom:0px;text-indent:0;valign:top;direction:ltr;&quot;&gt;&lt;font style=&quot;font-size:16.93px;font-family:Segoe UI;color:#000000;direction:ltr;letter-spacing:0px;line-height:120%;opacity:1&quot;&gt;&lt;br&gt;&lt;/font&gt;&lt;/p&gt;&lt;/div&gt;" tags="Background" id="JCDnAdbY1yPkoRfCkcH7-291">
          <mxCell style="verticalAlign=top;align=left;vsdxID=1144;fillColor=none;gradientColor=none;shape=stencil(nZBLDoAgDERP0z3SIyjew0SURgSD+Lu9kMZoXLhwN9O+tukAlrNpJg1SzDH4QW/URgNYgZTkjA4UkwJUgGXng+6DX1zLfmoymdXo17xh5zmRJ6Q42BWCfc2oJfdAr+Yv+AP9Cb7OJ3H/2JG1HNGz/84klThPVCc=);strokeColor=#000000;points=[];labelBackgroundColor=none;rounded=0;html=1;whiteSpace=wrap;" vertex="1" parent="1">
            <mxGeometry x="1484" y="409" width="501" height="140" as="geometry" />
          </mxCell>
        </UserObject>
        <mxCell id="JCDnAdbY1yPkoRfCkcH7-315" value="" style="endArrow=none;html=1;rounded=0;fontSize=12;exitX=1;exitY=0.454;exitDx=0;exitDy=0;exitPerimeter=0;endFill=0;startArrow=classic;startFill=1;" edge="1" parent="1" source="JCDnAdbY1yPkoRfCkcH7-211">
          <mxGeometry width="50" height="50" relative="1" as="geometry">
            <mxPoint x="2000" y="200" as="sourcePoint" />
            <mxPoint x="2046" y="199" as="targetPoint" />
          </mxGeometry>
        </mxCell>
        <mxCell id="JCDnAdbY1yPkoRfCkcH7-319" value="Active region" style="text;html=1;align=center;verticalAlign=middle;resizable=0;points=[];autosize=1;strokeColor=none;fillColor=none;fontSize=12;fontStyle=1" vertex="1" parent="1">
          <mxGeometry x="1674.5" y="65" width="100" height="30" as="geometry" />
        </mxCell>
        <mxCell id="JCDnAdbY1yPkoRfCkcH7-321" value="Standby region" style="text;html=1;align=center;verticalAlign=middle;resizable=0;points=[];autosize=1;strokeColor=none;fillColor=none;fontSize=12;fontStyle=1" vertex="1" parent="1">
          <mxGeometry x="1669.5" y="326.5" width="110" height="30" as="geometry" />
        </mxCell>
        <mxCell id="JCDnAdbY1yPkoRfCkcH7-328" value="" style="shape=image;verticalLabelPosition=bottom;labelBackgroundColor=default;verticalAlign=top;aspect=fixed;imageAspect=0;image=data:image/jpeg,/9j/4AAQSkZJRgABAQAAAQABAAD/2wCEAAkGBxIQEBAREBIVEBEVFxUVEBcVERkVFxUVFxUXFxYXGBUYKCggGBslHBUWITEhJSotLi4uFyAzODMtNyovLisBCgoKDg0OGxAQGy4lHyUrLS0tLS0rKy0tLS0tLSstLS0tLS0vLS0tLS0tLS0tLS0tLS0tLS0tLS0tLS0tLS0tLf/AABEIAOkA2AMBIgACEQEDEQH/xAAcAAEAAgIDAQAAAAAAAAAAAAAABgcFCAEDBAL/xABPEAABAwIBBgcMBQoEBgMAAAABAAIDBBEFBgcSEyExQVFScZGS0hQXIjVTVGGBk5Sz0TJydKKxCBYjM0NEc4KhsiQlQsFiY4Oj0+IVVcP/xAAZAQEAAwEBAAAAAAAAAAAAAAAAAgMEAQX/xAAyEQACAQICBQsEAwEAAAAAAAAAAQIDEQQSITFRodETFCIzQUJSgZGx8GFxweEyU/Ej/9oADAMBAAIRAxEAPwC8UREAREQBERAEREAREQBERAEREAREQBERAEREAREQBERAEREAREQBERAEREAREQBFW+XmdJuG1XcsdP3RI1rXSky6trdIXa0eC4uNiDwbxv4I339pP/r2+9n/AMasVGbV0iLnFdpdiKmBnxef3BvvR7C74M9D3fuLQPtJ7CmsNVfZvRB16a0tlwIql78bvMm+8HsL6Znhcf3Ie8HsKXNK2zeuJW8ZRXe3PgWwiqrvvO8zHvB7C+Tngd5mPeD2E5nW8O9cTnPaHi3PgWuiqqbO49ouKIEcP+IPYXn78z/Mm+8nsI8JWXZvXE7HF0ZK6e58C3UVVOzuuG+jHvH/AKJg+eSKSdsdRT6iJxtrRLphp4C5uiLN9N9nFxceFqrWt6JQxNKbtF7mWqi643hwBaQQRcEG4IO4grsWcvCIiAIiIAiIgCIiAIiIAiIgCIiA1ozy+Oqvmh+BGpvkzmjoaqipKiSWpa+aGKR4bJGGhz2BxsCwm1zxqHZ34wcZqyeKH4EavLILxVh32aD4TVqqScacWvmgzwtKckyJtzK4eP21X7SL/wAa9Tc0dANgkqPaM7CsFFUq1Rd5ljpU3rSID3pqHylR7RnYXLc09CP2lR7RnYU9RdWIqrvM5yFLwr0IH3qaLylR7RnZXHeoofKVHtGdlT1F14mq+8znN6XhXoQfvXUXLn67OyvM7NJQXvrKgc0jLf2KwUTnNV95hYektUUV7PmjoX7DLUgeiSPsKlMfw4U9XUwMuWRSyRsLiC4tY8tBJFhew4ltatZsu6cx4nXNdvMz3+p502/0cFowtSc5PM76DPiIRpwWVJaSSZs8vnUZbSVbr0p2RvO0wE8Hpj/DmV4xvDgCCCCLgg3BB3EFamhWJm3y+NGW0tW4mlJtG87TAT/+f4cy7iMPfpQ19qGHxPdkXki645A4BzSCCAQQbgg7iDwhdi883BERAEREAREQBERAEREAREQGuOd3xxV80PwI1eOQnivDvs0HwmqjM7/jmr5ofgRq8cgvFWHfZoPhNWmt1UfnYZ6XWSM+sFX5W0NPI+KaqjjkZYPaSbi4BF/UQfWs6qxyqzXyVtbPVCqbGJS0hphLiNFjWb9IX+jf1qqmoN9N2Lajkl0VclX59Yb55F0n5LkZc4cd1ZF0n5KAd5iXz1nsD2lyzM1KDfuxnsD2lfyeH8e58Clzr+FFgfnth/ncfSfkuW5aYed1VH0n5KB956TztnsD2lx3npfPGexPaTk8P436PgQ5TEeBev7J/wDnhQ+dR/1WUoK2OeMSxPEkZvZw3Gxsf6gqs2Zp5gLGsYf+ge0p7krhBoqSOnc8SFhedIN0QdJ5du28ahVhRSvTld/b9InRnXcrVIpL7mZVcZ0chnVtqmlF6hrdGRl7a1g3WO7TG3fvHMFY6KqE3CWZF84KaszU2phdE5zJWuje36TXtLXDnadoXjkmvu3LbappI5P1kbJOLSYHfio5lxhUDcMxBzIImuFNOWkRNBBEbrEEDYVs55eyy/PQyczS033Fe5mMrphMzDZP0kLg8wEnbEWtLy30sIB2cB9B2Xatbs0Hjmk5pvgSLZFZ8Skp6C+g24aQiIqC4IiIAiIgCIiAIiIAiIgNcM73jmr5ofgRq8shPFeHfZoPhNVHZ3fHFXzQ/AjV45C+K8O+zQfCatNbqofOwz0uskZ1V9lLnOjoaqamdTSSGMtGkHtAN2NdsB+tZWCoti+QVBVyyTzxOdI8gvIme25DQ0bAbDYAqqTpp/8ARaC2am10CKd+iHzSX2jUbnohJt3JL7Rqz3erwryD/eJe0gzV4V5B/vEvaV+bDeGXzzKstbajDd+KHzST2jVy3PDCf3WT2jVnO9jhnkX+3k+aDNlhnkX+3k+aZsL4ZfPMio4jtaML334vNZPaNXIzuRebP9o1ZrvaYb5F3t5PmhzZ4Yf2L/byfNM2F8Mvnmdy4javnkYbvuw+aye0avfk/nHjrKmKmbA9hkLgHF4IFmuduH1V7Tm3w4/sXe2k+a9GF5D0NNMyeGJzZGElhMr3Wu0tOwm24lclLDWdk7/PqRhHE3WZq3aSZYXLPxdX/Z5vhuWaWEy08W1/2eb4blmjrX3NUtRS2apo/wDl6U222m+DIthFr1mpP+b0vNN8GRbCrVjOs8uJlwXVeYREWQ1hERAEREAREQBERAEREBrnnXbfGqu+60PwI1eWRfi6g+zw/DaqRzs+N6rmh+DGrsyI8WYf9mg+G1aq3VQ+dhlou9WfztM4qdy2zgVtJiFTTwyRiOMsDQY2ki8bHHafS4q4l1OhaTctBPpAVVKcYO8o3LqkJSVouxQhzq4l5WL2LV55M7WJt3yw+xatg+52chvVCdzs5DeqFdzil/WvX9FcaU1rm2URHnSxE/tYrfwmrl2dTEOCSP2TVe3c7OQ3qhO52chvVCc4pf1r1/RxUai77KG76eI+Vi9i1dtPnPxF17yxeyar07nZyG9UJ3OzkN6oTnFL+vf+jkqNRqym18+5SXfMxDykfs2rMZHZd1lVX08Er2GN5cHARgHZG9w284CtXUM5LeqFy2FoNw0A8wSWIpNNKmvnkRjh6qabqN/PudiweW3i3EPs8/w3LOLCZaeLq/7PN8Nyyx1o1y1Mo/NO6+M0vNN8CRbFrXfNQy2MUpHFN8GRbELTi+s8uJnwluT0BERZTSEREAREQBERAEREBV+enKaqoe4mUkph1uudIWtaXHV6oNF3A2H6Q9AVdRZe4pbbWyE/VZ2VMPygP1mGX5NV+NOqua4L0cPTi6abS+MwYmpKMrJnrxGvlqZXTTvMkrraTja5sA0btm4ALL0eWOIRRsijqnsjY0NY0BlmtaLAC44gsCF2RMuQFqyReixi5SSu0yVwZb4lbbVPPqZ8l2Oy3xDzp/Q35KOgL6Lbq5Uaa7q9EZnXqXvmfqzOOy5xHzt/Qz5L5blziRIHdb9p4mfJR2TZvSl2vHo2pyUPCvRFnLVLXzP1ZMDlnX+dP6G/JeKoyxxMbW1kluZmz+ixZK+CV10ab7q9EUQxNWLvmb+7Z7/z7xLzyToZ8l6Pz5xEDbVv6GfJR6eIDwhs4153PuqnTguxehs5WpNJxbt5kjdl5iXnb+hnyXwcvMS88k6GfJRwlcEqPJw2L0Cq1PE/Uk8WXeJG/wDi5OhnyXTiOWVfKx8UlU9zHtLZGkNs5rhYjdxXWAgO1fL3XJTk4bF6HOUqX/k/U78PxCWmlbNA8xytvouFri4IO/ZuJWXky9xTgrZOqzsqOlcFJQjLWicZyjqZc+ZjKarru7WVcpm1WpdGXNaHDT1gcLtAuP0Y6SrPVP5gx4eIn0U34zq4F5WISVRpfT2R61GWaCbCIipLAiIgCIiAIiICmPyhfp4b9Wp/GnVVtNwrU/KG+nhv1ar8adVPTu3herherj5+7PPxK6RLch8lhickkQqRTytAc1rotPTbucQdIbQbXHpXsyqySlwuSNr3iZkgJZI1hYNIHwmEEmxsQd+2/oUZwbEJKWoiqITaSNwc3i4iD6CCQfQStga2CHG8MBZYF404id8Uzbix5jdp4wTxpUqypVFJ/wAfYhGlCtBxX8ikKCmfPLHFG3Se9wawek/7cN1NMfzfiip31EtW2zfotEJu95+i0eFwnh4BcrM5qcl3RGSrqGFkgLoomuG1uiS2R3SC0HiDuAqNZyspe7ajVRm9PCS1ltz37nP9I4B6LnhVnLSnWyQeha3o/Jn5CFOjnqLS9S0/PqYHBcLNbURUzDYyG17X0QAS53qAKk2LZspKKCapFQ2fQFy0RFp0bjSN9I7ht9SzGZvCP19W4f8AKi/o55/sHSpzhmKxVvdcVg5sb3QyA/6m6NieYnTH8qqxGKnGp0dStf5uLsNhISo9PXK9vnlc17L1n8kMmHYlJKwSiHQaHXLNK9za1riy8OOYS6lqJoDtMbiBfhbvafW0g+tTPMyP8RVfw2/3LVXqWpOUXs/Bhw9JOsoTW3d+zG5WZupKSjmqBOJtDRLmiItOiXgE30juBv6lXkcZcQ1ouSQGjjJNgFsxVNbVMrKZ27bC7mkha6/3/wCiozIDCTNilNE8fqpDJKOIw3dt/na0etY6NeUotz1r/T2OSjT6MO331ErbmdkttrGe7ntqB4rguorJKQuDy2QR6Ybogk226NzbfxrY+KsDp5YRvjZG4/8AUMgA/wC3/VUVlUP85n+0N/Fq5hq05yak+z6fg5iIRSTW078p828tBTPqXVDJA0tGiGEE6RtvJ9KghC2DzreLJfrxf3ha/wBlbhpyqQvLbwMmJjGFTLFdnE6ivgld7mLzTHR3q5lcdOotvMD9LEean/GdXAqY/J6eS/E78VN+M6udeTiOsfl7I9airQQREVJaEREAREQBERAUv+UP9PDvq1P4wKo43WIKtv8AKI+nhvNVfjAqeC9LDv8A5rz92Y6y6Rl4m8KsPNBj74KvuQ3dFPew5EjWkh3MWtIPM3iVbwSHRHMpVmzlvi1EP+N/wnrRWtKm09hjpZo1VbaW1nQygdR0gZHcSTkxhw2aDbXeR6bEAc9+BUk1pJAAuTsAG8ngAVoZ9HAQ0d+XJ/a1RfNbhoq66N52sg/SP5wf0Y61j/KVVhJRp0XJ/VksZCVSuor6f6Wzh2HvocObDAzTmZGbAW8KV1yTc8GmT6lEc3eEV1HVO10D2xStLZHFzDZw8JrjYkn/AFD+ZZjLvLc4fJFFHG2V7ml79IkaIvZu7js7oUYOdqo83i67lRSp1pU3ZJqW35tL6tShGpG8mnHUkv1sPdncwmzoato2H9HLzi7mHo0h6gunNB+vqf4bf71Ma2NuK4YdDYZow5m36Mo2gX9D22PrUIzMgipqwbgiNtwd4OnwqUJt4aUXrjo3/wCnJQtiYyWqWnd/hKsIr9HGsQg4HxwvHoLI2C3OQ/7q6cl8ntRi2KT6Nmu0DEePXfpJfvNHSo9X1upylc69gXQNdzPhazb1gfUrKxqtFPTzzn9nG9/OWtJA9drKmsnFK3ejH8L8by6jJSck+7KXH8sjeRddr67F5AbgSxRt5o2vZs9BLSfWq0ypH+cz/wAdv4tUuzJkltcSbkuiJPGSH3KieU4/zmf+O38WrVRjlryS7EvwZ68/+MZbXxLMzq+LJfrxfECoGYWcVsdlrhElbRvghLQ9zmEF5IbZrgTtAJ4OJVo/NLWl19ZT+0k7CrwtWEKVpPTf8IYujUnVvFXVuJXkcd/QF81UYcNHo51LMqcjqjDo2STuic17tAat7nG+iXbdJo2WCiDnLdGUZRvF3RicZxl0lZllfk9C0mJg7wKb8Z1dCqDMKBp4ieG1Nf1GdW+vIxKtVfl7I9qjLNTTCIioLQiIgCIiAIiIClvyifp4ZzVX4wKoQFbv5RLrPwzmqvxgVRBejh+rXztMlb+R64Pohe/CsRkpZo54XaMrCSw2BsSC07DsOwleCDcvtakroxXtK5nMoMqqvEBG2qkEgYSWWja2xIsfogX3LtyYylqaDTFM8R6y2mTG1xOjfR2uB2C56VgmtX2uqnG1raNhCVSV730mbxbE5auV007tOR1gTYDYBYAAbBuXkXAKOdZXpW0IxNuTuzPYVllWUcQhgl0YwSWtLGusTtO1wva+31rx4flVVU881RDIGSzEmU6tpBJdpGzSLDaeBYRzrr5Kg6cHfQtOs0RqTSWl6NxmpMWmqqiSomdpSuDbuADfogNbsbsGwBZ3EssayoifDLKHRusHARsFwCDvAvvCiNAfCPN/uvY59tpU1CDSulo1fQz1JzU3ZvTr+pksIygqaESdyyCMPsZLsa6+je30hs3lY6sxWSWZ07jpSucHudogDSFtths4Fj6ifS2bgviJ3Aq2o5m0tL7TVCMsiU3q1LYTEZxcT8uPYx/JdvfDxK368X/gx/JRNoX2423qdLDUrNuK9EcrYmpeyk/U9mUeVlXWxtjqZA9rXaTQI2tsbEb2gcBUaJWTNOJLnh4l0SxFvBYf0UMihoS0HFWzPS9JZmYNpDsQvxU/4zK31UWYY+FiHNT/AIzK3V4+K62Xl7I9nDdUgiIqC8IiIAiIgCIiAgWdHIWTFxTGGVkT4dYLPB0XNk0L7W7QQYxwcJUDjzJVo31NP/3Oyr5RWRqzirJkJQjLWaq4/gj6CplpZXNe+PQJLL6J02NeLX27nKY4PmqqqmCCobPC1ssbJGg6dwHtDgDYb9qxWdiVoxqsBPBB8CNXjkO6+GYeRuNNB8Nq2VK8o04yWtmWFGMqkk1oKx7ztX5xB9/srnvPVfnEH3+yrqRUc7q7dxbzWls3lOR5pasCxnh+/wBlfD80dUf28H3+yrmRd57W2r0I8yo67b2Uv3oary8H3+yuDmfqvLwff7KulE55V2r0O80pbN5TUGaSrab6+Ddb/X2UnzTVjv28AHBtf2VcqJzyta19xxYOinmtp+5SvegrPOKf7/yXPefq/Lwff7KulFzndXbuJc1p7N5TrM1FWB+vgv8Az9leLFs2VVBBNO+eFzYmPkcBp3IY0uIFxv2K71hMtfFtf9nn+G5Tjja10r7iDwdFXdt7KHyUw11ZUNpo3Na54JBde3gtLje3Mpwc1lT5aH7/AMlFs0z/APN6b0ib4bz/ALLYRasXialKaUX2flmXDYOlUi5TWm+37EOyByQdhvdDnvY90ugLMBAAZpW2nhOmeDgUxRF5k5ucnKWs9KEFCKjHUERFAmEREAREQBERAEREBrFnn8eVZ9EHwI1Oclc71HT0dJTPgqXPhhijeWtj0SWMDSW3eDbZxLP5c5rIcSqe6hUPp5XNa2SzBI12iLNdYkEG1hvtsCjwzDtH7+73YdtaVKm4pSeorald2Mx36qLzeq6sXbXPfpovN6rqxdtY4ZkG+fH3Ydtc95Fvnzvdx2122H2veV3rbEZFueiiJt3PVdWLtrtGeCj8hUdWPtrFNzJNBv3c73cdtdwzNN88Pu47SlGOG7W9/AhJ4jsS+eZkmZ3aMm2pqBztj7a9Qzn0vkZ+qztLCjM43zw+7jtL00+ajQ2d2Ej+AO0pZcLt9+BDNiti3cTI98+l8lP1WdpdEudikabGGo6sfbXR3qx52fYDtLpqM0bX2/xZFv8AkDtLuXCbffgczYvYt3E9JzvUfkajqx9tfD88VEP2FSf5Yu2vEczbfPD7uO0uvvLt89d7uO0ouOF7G9/Asg8RfpJGQ78lH5vU9WLtrwZQZ0qWppKqnZBUNdLFJG0ubHogvYWgmzybbeJO8u3z0+7jtLnvMN89Pu47SiubrTf3Jt1dnsQ7NP44peab4Mi2IUFyQzcRYfUCpMzp5Ghwj8AMa3SFnG1ySbXG/hKnSjiqqqTTWziSoU3CNmERFmLgiIgCIiAIiIAiIgCIiAIiIAiIgCIiAIiIAiIgCIiAIiIAiIgCIiAIiIAiIgOrXs5TesE17OU3rBabU9LrHtYxoLnbGjYLm2wXPCd3OuwYa8sY8ROcx9tFwjJG1xYBcDYS4WA3m44wp5Abi69nKb1gmvZym9YLT5+CzDRvTyeEHEAROJAa7RNwBcWNt/GOMLuhyemdHrDG2NpcGM1rmxF7rNdZjX2LtjmnZvuLXTL9Qbd69nKb1gmvZym9YLUGowCojcWupZbiQxC0DiHSAkaDXAWc7YdgX0/J+ZujpxasFpdd7dENs6Rug4keC+8Ulmnb4K5l+oNvNezlN6wTXs5TesFplqxxDoTVjiHQu5Abm69nKb1gmvZym9YLTLVjiHQmrHEOhMgNzdezlN6wTXs5TesFplqxxDoTVjiHQmQG5uvZym9YJr2cpvWC0y1Y4h0JqxxDoTIDc3Xs5TesE17OU3rBaZascQ6E1Y4h0JkBubr2cpvWCa9nKb1gtMtWOIdCascQ6EyA3N17OU3rBNezlN6wWmWrHEOhfOg3iHQmQG5+vZym9YJr2cpvWC0x0G8Q6E0G8Q6EyA3O17OU3rBNezlN6wWmOg3iHQmg3iHQmQG52vZym9YJr2cpvWC0xDG8Q6E0G8Q6EyA3O17OU3rBFpiGN4h0LhMgO2OQtc1zTZzSHNPE4G4PSFnHZTPvcRMYAbRhu5sZ0AYzs0iLMG0Fu0k7dlsCisOGVhxZrGsYIbsY5ro7yHSBY5z2aTgBpAOkluLC4eN2iCvVR5TyRGd7WfpJb3Jlfq9rAzwoAQ2QjaWk7ib7bBYBEsCUHLN93uFPGC8Pjk8OTbA98kjoxYjROlK/wxtAtw3Jx+KY5r6eCm1TWRwaXc9nlzmB73ue0k/SB0mb92qFt5Cw6LlgERF04EREAREQBERAEREAREQBezDcQdAXlrWP0mlpa8aTdp4tl9lxzOK8aIDMnHdjh3NT7Tf9UON52AW8pY8YA3L7kykLhZ1PTuG3RBjJDRdxDWi9mt8K1hwcO62DRLHTMS45pFhNPB4LXNaNDZZzzJtHDtJH1SRw3XJx7Zsp4G7TYtZoO27D4bdty3SF/wDiJFtlsMiWBIPzqk2/oo9ri7bpaVy7S2kEbL8QG4cS+XZVTloFmaQGySx0y7QLdIm+07dnAPSsCiWB6sRrHTyvlcAHOtcAWGxoaPXZov6bovKiA//Z;" vertex="1" parent="1">
          <mxGeometry x="2073.28" y="138.09" width="35.05" height="37.81" as="geometry" />
        </mxCell>
        <mxCell id="JCDnAdbY1yPkoRfCkcH7-329" value="&lt;font style=&quot;font-size: 6px;&quot;&gt;main.tf&lt;/font&gt;" style="verticalLabelPosition=bottom;html=1;verticalAlign=top;align=center;strokeColor=none;fillColor=#00BEF2;shape=mxgraph.azure.code_file;pointerEvents=1;fontSize=12;" vertex="1" parent="1">
          <mxGeometry x="2051.3799999999997" y="261" width="24.25" height="26" as="geometry" />
        </mxCell>
      </root>
    </mxGraphModel>
  </diagram>
</mxfile>
